<?xml version="1.0" encoding="utf-8"?>
<!-- Generator: Adobe Illustrator 15.0.0, SVG Export Plug-In . SVG Version: 6.00 Build 0)  -->
<!DOCTYPE svg PUBLIC "-//W3C//DTD SVG 1.1//EN" "http://www.w3.org/Graphics/SVG/1.1/DTD/svg11.dtd">
<svg version="1.1" xmlns="http://www.w3.org/2000/svg" xmlns:xlink="http://www.w3.org/1999/xlink" x="0px" y="0px"
	 width="2951.41px" height="1500.985px" viewBox="0 0 2951.41 1500.985" enable-background="new 0 0 2951.41 1500.985"
	 xml:space="preserve">
<g id="Layer_2">
	<path fill="none" stroke="#000000" stroke-width="2.8346" stroke-miterlimit="10" d="M1284.768,1407.253"/>
	<path fill="none" stroke="#000000" stroke-width="2.8346" stroke-miterlimit="10" d="M2053.614,1406.158"/>
	<path fill="none" stroke="#000000" stroke-miterlimit="10" d="M483.921,1218.611"/>
	<path fill="none" stroke="#000000" stroke-width="2.8346" stroke-miterlimit="10" d="M1252.767,1217.513"/>
	<path fill="none" stroke="#000000" stroke-miterlimit="10" d="M483.036,1210.556"/>
	<path fill="none" stroke="#000000" stroke-width="2.8346" stroke-miterlimit="10" d="M1251.883,1210.556"/>
	
		<path id="bottom_outsideCutPath" vector-effect="non-scaling-stroke" fill="none" stroke="#000000" stroke-width="1.4173" stroke-linecap="round" d="
		M39.065,34.833v53.683h-8.504v71.221h8.504v71.221h-8.504v71.22h8.504v71.221h-8.504v71.221h8.504v71.221h-8.504v71.219h8.504
		v71.221h-8.504V729.5h8.504v53.68h53.683v8.504h71.221v-8.504h71.221v8.504h71.22v-8.504h71.221v8.504h71.221v-8.504h71.221v8.504
		h71.219v-8.504h71.221v8.504h71.22v-8.504h53.68V729.5h8.504v-71.221h-8.504v-71.221h8.504v-71.219h-8.504v-71.221h8.504v-71.221
		h-8.504v-71.221h8.504v-71.22h-8.504v-71.221h8.504V88.516h-8.504V34.833h-53.68V26.33h-71.22v8.504H591.29V26.33h-71.219v8.504
		H448.85V26.33h-71.221v8.504h-71.221V26.33h-71.22v8.504h-71.221V26.33H92.748v8.504H39.065z"/>
	
		<path id="left_outsideCutPath" vector-effect="non-scaling-stroke" fill="none" stroke="#000000" stroke-width="1.4173" stroke-linecap="round" d="
		M802.411,783.183h123.51v8.504h71.221v-8.504h71.218v8.504h71.22v-8.504h71.221h13.287V729.5h-8.504V658.28h8.504v-71.221h-8.504
		v-71.22h8.504v-71.221h-8.504v-71.221h8.504v-71.221h-8.504v-71.221h8.504v-71.22h-8.504V88.516h8.504v-53.68h-84.508v-8.504
		h-71.22v8.504h-71.218v-8.504H925.92v8.504H815.7h-13.289v53.68h8.504v71.221h-8.504v71.22h8.504v71.221h-8.504v71.221h8.504
		v71.221h-8.504v71.221h8.504v71.22h-8.504v71.221h8.504V729.5h-8.504V783.183z"/>
	
		<path id="right_outsideCutPath" vector-effect="non-scaling-stroke" fill="none" stroke="#000000" stroke-width="1.4173" stroke-linecap="round" d="
		M2451.106,807.161h123.508v8.504h71.221v-8.504h71.221v8.504h71.221v-8.504h71.221h13.285v-53.684h-8.504v-71.221h8.504v-71.221
		h-8.504v-71.219h8.504v-71.221h-8.504v-71.221h8.504v-71.221h-8.504v-71.221h8.504v-71.221h-8.504v-71.221h8.504v-53.68h-84.506
		V50.31h-71.221v8.504h-71.221V50.31h-71.221v8.504h-110.219h-13.289v53.68h8.504v71.221h-8.504v71.221h8.504v71.221h-8.504v71.221
		h8.504v71.221h-8.504v71.221h8.504v71.219h-8.504v71.221h8.504v71.221h-8.504V807.161z"/>
	
		<path id="top_outsideCutPath_3_" vector-effect="non-scaling-stroke" fill="none" stroke="#000000" stroke-width="1.4173" stroke-linecap="round" d="
		M1245.535,34.836l-0.443,748.347h39v8.504h71.219v-8.504h53.682V729.5h8.504v-71.22h-8.504v-71.22h8.504v-71.221h-8.504v-71.221
		h8.504v-71.221h-8.504v-71.22h8.504v-71.221h-8.504v-71.221h8.504V88.516h-8.504v-53.68h-53.682v-8.504h-71.22v8.504H1245.535"/>
	
		<path id="top_outsideCutPath_1_" vector-effect="non-scaling-stroke" fill="none" stroke="#000000" stroke-width="1.4173" stroke-linecap="round" d="
		M787.412,968.651v-38.557h8.504v-71.221h-8.504v-53.683h-53.68v-8.504h-71.22v8.504h-71.221v-8.504H520.07v8.504h-71.22v-8.504
		h-71.221v8.504h-71.221v-8.504h-71.22v8.504h-71.22v-8.504H92.748v8.504H39.065v53.683h-8.504v71.221h8.504v39L787.412,968.651"/>
</g>
<g id="Layer_1">
	<rect x="25.1" y="20.164" fill="none" stroke="#000000" stroke-miterlimit="10" width="1417.323" height="1417.323"/>
	<rect x="1496.872" y="14.513" fill="none" stroke="#000000" stroke-miterlimit="10" width="1417.322" height="1417.323"/>
</g>
<g id="Layer_4">
	<g>
		<g>
			<path fill="none" stroke="#000000" stroke-miterlimit="10" d="M1939.101,367.74v97.613c0,0-35.346,48.051-76.764,0V367.74
				H1939.101z"/>
			<path fill="none" stroke="#000000" stroke-miterlimit="10" d="M1941.562,617.619v61.178c0,0-35.348,40.055-76.766,0v-61.178
				H1941.562z"/>
			<path fill="none" stroke="#000000" stroke-miterlimit="10" d="M2023.574,367.74v97.613c0,0-26.859,38.779-53.721,0V367.74
				H2023.574z"/>
			<path fill="none" stroke="#000000" stroke-miterlimit="10" d="M1834.332,367.74v97.613c0,0-26.861,36.584-53.723,0V367.74
				H1834.332z"/>
			<path fill="none" stroke="#000000" stroke-miterlimit="10" d="M1940.597,506.113v63.283c0,0-35.346,51.879-76.764,0v-63.283
				H1940.597z"/>
			<path fill="none" stroke="#000000" stroke-miterlimit="10" d="M2023.574,503.92v49.607c0,0-24.734,40.67-53.721,0V503.92
				H2023.574z"/>
			<path fill="none" stroke="#000000" stroke-miterlimit="10" d="M1834.332,507.211v49.607c0,0-24.736,40.67-53.723,0v-49.607
				H1834.332z"/>
		</g>
		<path fill="none" stroke="#000000" stroke-miterlimit="10" d="M1666.449,297.748V106.416h90.666v191.332
			C1757.115,297.748,1717.117,349.749,1666.449,297.748z"/>
		<path fill="none" stroke="#000000" stroke-miterlimit="10" d="M2045.429,297.748V106.416h90.666v191.332
			C2136.095,297.748,2096.097,349.749,2045.429,297.748z"/>
		<path fill="none" stroke="#000000" stroke-miterlimit="10" d="M2161.076,297.748V106.416h90.666v191.332
			C2251.742,297.748,2211.744,349.749,2161.076,297.748z"/>
		<path fill="none" stroke="#000000" stroke-miterlimit="10" d="M1550.802,297.748V106.416h90.666v191.332
			C1641.468,297.748,1601.47,349.749,1550.802,297.748z"/>
		<g>
			<path fill="none" stroke="#000000" stroke-miterlimit="10" d="M1583.277,492.061v-8.504h71.221v8.504h34.717l6.219-0.006
				l40.371,60.453l7.117-4.537l39.891,59l-7.465,4.752l42.201,63.195l-16.895,13.318l106.137,59.395l105.244-59.227l-19.559-16.777
				l41.133-60.439l-6.881-4.652l39.889-59l7.062,4.775l41.012-60.262l8.273,0.012h30.076v-8.504h71.221v8.504h62.186v-123.51h-8.504
				V297.33h8.504v-71.219h-8.504V154.89h8.504V83.669V70.382h-62.186v8.504h-71.221v-8.504h-71.221v8.504h-70.162l0.205,193.81
				c0,0-112.951,120.778-221.102,0l0.125-193.81h-65.168v-8.504h-71.221v8.504h-71.221v-8.504h-62.184v84.508h8.504v71.221h-8.504
				v71.219h8.504v71.221h-8.504v110.221v13.289H1583.277z"/>
			<path fill="none" stroke="#000000" stroke-miterlimit="10" d="M1790.886,78.886 M2010.599,78.886h1.059 M2010.601,78.634"/>
		</g>
	</g>
	<g>
		<path fill="none" stroke="#000000" stroke-miterlimit="10" d="M1960.715,1011.17v205.191h-102.246V1011.17
			C1858.469,1011.17,1903.577,955.402,1960.715,1011.17z"/>
		<path fill="none" stroke="#000000" stroke-miterlimit="10" d="M2539.409,1011.17v205.191h-101.445V1011.17
			C2437.963,1011.17,2482.717,955.402,2539.409,1011.17z"/>
		<g>
			<polyline fill="none" stroke="#000000" stroke-miterlimit="10" points="2091.823,1248.613 2091.823,1257.117 2163.043,1257.117 
				2163.043,1248.613 2234.264,1248.613 2234.264,1257.117 2305.485,1257.117 2305.485,1248.613 			"/>
			<polyline fill="none" stroke="#000000" stroke-miterlimit="10" points="2305.487,1248.361 2376.708,1248.361 2376.708,1256.865 
				2447.926,1256.865 2447.926,1248.361 2519.147,1248.361 2519.147,1256.865 2581.331,1256.865 2581.331,1172.359 
				2572.827,1172.359 2572.827,1101.138 2581.331,1101.138 2581.331,1029.918 2572.827,1029.918 2572.827,958.697 2581.331,958.697 
				2581.331,848.477 2581.331,835.188 2519.147,835.188 2519.147,843.691 2447.926,843.691 2447.926,835.188 2413.209,835.188 
				2406.991,835.193 2366.622,774.74 2359.502,779.277 2319.614,720.277 2327.079,715.525 2284.877,652.33 2301.772,639.012 
				2195.635,579.617 2090.391,638.844 2109.95,655.621 2068.817,716.06 2075.698,720.713 2035.807,779.713 2028.747,774.938 
				1987.733,835.199 1979.459,835.188 1949.383,835.188 1949.383,843.691 1878.165,843.691 1878.165,835.188 1815.977,835.188 
				1815.977,958.697 1824.481,958.697 1824.481,1029.918 1815.977,1029.918 1815.977,1101.138 1824.481,1101.138 1824.481,1172.359 
				1815.977,1172.359 1815.977,1243.58 1815.977,1256.865 1878.165,1256.865 1878.165,1248.361 1949.383,1248.361 
				1949.383,1256.865 2020.604,1256.865 2020.604,1248.361 2091.825,1248.361 			"/>
			<path fill="none" stroke="#000000" stroke-miterlimit="10" d="M2366.622,774.74"/>
			<path fill="none" stroke="#000000" stroke-miterlimit="10" d="M2327.079,715.525"/>
		</g>
		<path fill="none" stroke="#000000" stroke-miterlimit="10" d="M2104.178,1011.17v205.191h-102.246V1011.17
			C2001.932,1011.17,2047.04,955.402,2104.178,1011.17z"/>
		<path fill="none" stroke="#000000" stroke-miterlimit="10" d="M2392.801,1011.17v205.191h-101.445V1011.17
			C2291.356,1011.17,2336.11,955.402,2392.801,1011.17z"/>
		<path fill="none" stroke="#000000" stroke-miterlimit="10" d="M2250.063,1011.17v205.191h-102.246V1011.17
			C2147.817,1011.17,2192.924,955.402,2250.063,1011.17z"/>
		<g>
			<path fill="none" stroke="#000000" stroke-miterlimit="10" d="M2161.93,953.041V855.43c0,0,35.346-48.051,76.764,0v97.611
				H2161.93z"/>
			<path fill="none" stroke="#000000" stroke-miterlimit="10" d="M2159.469,703.164v-61.178c0,0,35.348-40.055,76.766,0v61.178
				H2159.469z"/>
			<path fill="none" stroke="#000000" stroke-miterlimit="10" d="M2077.458,953.041V855.43c0,0,26.859-38.779,53.721,0v97.611
				H2077.458z"/>
			<path fill="none" stroke="#000000" stroke-miterlimit="10" d="M2266.7,953.041V855.43c0,0,26.861-36.584,53.723,0v97.611H2266.7z
				"/>
			<path fill="none" stroke="#000000" stroke-miterlimit="10" d="M2160.434,814.67v-63.283c0,0,35.346-51.879,76.764,0v63.283
				H2160.434z"/>
			<path fill="none" stroke="#000000" stroke-miterlimit="10" d="M2077.458,816.863v-49.607c0,0,24.734-40.67,53.721,0v49.607
				H2077.458z"/>
			<path fill="none" stroke="#000000" stroke-miterlimit="10" d="M2266.7,813.572v-49.607c0,0,24.736-40.67,53.723,0v49.607H2266.7z
				"/>
		</g>
	</g>
</g>
<g id="Layer_3">
	<g>
		
			<path id="top_outsideCutPath_6_" vector-effect="non-scaling-stroke" fill="none" stroke="#000000" stroke-width="1.4173" stroke-linecap="round" d="
			M39.069,1276.041l-8.504-0.002l-0.008,71.223l8.503,0.002l-0.529,72.541l748.35,0.092l0.527-72.543l8.502,0.002l0.008-71.223
			l-8.502,0.002L787,1200.597l-748.733,0.627L39.069,1276.041z"/>
	</g>
	<g>
		
			<path id="top_outsideCutPath_5_" vector-effect="non-scaling-stroke" fill="none" stroke="#000000" stroke-width="1.4173" stroke-linecap="round" d="
			M788.087,974.094l-748.732,0.204l-0.335,75.538l-8.502,0.008l0.088,71.222l8.503-0.012l0.607,72.543l748.351-0.924l-0.611-72.541
			l8.502-0.012l-0.084-71.22l-8.506,0.01L788.087,974.094z"/>
	</g>
</g>
</svg>
