<?xml version="1.0" encoding="UTF-8" standalone="no"?>
<!-- Created with Inkscape (http://www.inkscape.org/) -->

<svg
   width="210mm"
   height="297mm"
   viewBox="0 0 210 297"
   version="1.1"
   id="svg827"
   inkscape:version="1.1.2 (b8e25be833, 2022-02-05)"
   sodipodi:docname="desenho_rafa.svg"
   xmlns:inkscape="http://www.inkscape.org/namespaces/inkscape"
   xmlns:sodipodi="http://sodipodi.sourceforge.net/DTD/sodipodi-0.dtd"
   xmlns="http://www.w3.org/2000/svg"
   xmlns:svg="http://www.w3.org/2000/svg">
  <sodipodi:namedview
     id="namedview829"
     pagecolor="#ffffff"
     bordercolor="#999999"
     borderopacity="1"
     inkscape:pageshadow="0"
     inkscape:pageopacity="0"
     inkscape:pagecheckerboard="0"
     inkscape:document-units="mm"
     showgrid="false"
     inkscape:zoom="0.417193"
     inkscape:cx="1143.3557"
     inkscape:cy="465.01259"
     inkscape:window-width="1677"
     inkscape:window-height="1030"
     inkscape:window-x="-7"
     inkscape:window-y="2"
     inkscape:window-maximized="0"
     inkscape:current-layer="svg827" />
  <defs
     id="defs824" />
  <g
     inkscape:label="04"
     inkscape:groupmode="layer"
     id="layer1"
     style="display:inline">
    <path
       id="path2900-7"
       style="display:inline;fill:none;stroke:#000000;stroke-width:0.256715px;stroke-linecap:butt;stroke-linejoin:miter;stroke-opacity:1"
       inkscape:label="01"
       d="m 50.092687,213.23371 -10.69909,0.53485 0.35657,14.44408 -5.171257,2.3182 -9.807669,11.94759 -7.846549,-4.81469 1.426786,-2.3182 -2.139921,-3.56671 -6.062679,4.99298 1.247986,4.27984 3.209623,-1.60507 10.877889,7.84655 8.559168,-10.34304 -1.42627,14.62237 -3.03134,14.26579 -5.528344,11.05617 h -6.59753 c -0.713287,0 0.534851,5.52783 0.534851,5.52783 v 5.36763 h 4.221964 v 7.36286 h 39.277702 v -7.36286 h 4.3217 v -5.36763 h -4.50257 l -0.34365,-2.3182 -8.02432,0.35656 -3.56619,-26.56995 0.17829,-17.6537 2.49649,-0.71314 11.94759,11.05566 13.55214,-15.15722 -1.78284,-4.45812 0.17829,-1.60456 -3.21014,-1.78335 -1.42627,3.74447 2.85305,2.85358 -10.34252,11.05565 -8.73797,-9.80767 -5.34954,-2.85305 z m -6.06268,42.08373 2.31769,10.69909 2.54868,16.40572 H 27.53283 l 6.688998,-13.73094 3.210139,-13.19558 z" />
    <path
       id="rect2416"
       style="display:inline;fill:none;fill-opacity:0;fill-rule:evenodd;stroke:#ff0000;stroke-width:0.722252"
       inkscape:label="02"
       d="m 114.37352,212.1113 -10.69909,0.53485 0.35657,14.44408 -5.171263,2.3182 -8.3783,10.51771 -6.15157,-7.61194 1.42679,-2.3182 -2.13992,-3.56671 -6.06268,4.99297 1.24799,4.27985 3.21014,-1.60456 7.75301,12.07317 8.55917,-10.34304 -1.42627,14.62236 -6.41976,8.55969 -5.52783,11.05617 h -6.59805 c -0.71328,0 0.53485,5.52783 0.53485,5.52783 l 9.45111,0.17828 6.77633,-13.90923 6.598043,-7.48946 6.59805,-0.17829 2.31769,10.69909 2.54868,16.40572 H 82.275737 v 5.36763 h 4.22196 v 7.36286 h 39.277713 v -7.36286 h 4.3217 v -5.36763 h -4.50257 l -0.34365,-2.3182 -8.02432,0.35656 -3.56619,-26.56995 0.17829,-17.6537 2.49649,-0.71314 11.94759,11.05566 8.77362,-13.68702 -1.78283,-4.45761 0.17828,-1.60507 -3.21014,-1.78336 -1.42627,3.745 2.85305,2.85305 -5.564,9.58546 -8.73797,-9.80767 -5.34954,-2.85305 z" />
    <path
       id="path2900"
       style="display:inline;fill:none;stroke:#000000;stroke-width:0.256715px;stroke-linecap:butt;stroke-linejoin:miter;stroke-opacity:1"
       inkscape:label="03"
       d="m 185.24477,212.03663 -10.69908,0.53536 0.35656,14.44356 -5.17126,2.31821 -9.80767,11.94759 -7.84655,-4.8147 1.42679,-2.3182 c 0.71915,1.19859 -1.29937,-2.16526 -2.13992,-3.56619 l -6.06268,4.99298 1.24798,4.27932 3.21014,-1.60455 10.87738,7.84655 8.55968,-10.34304 -1.42679,14.62236 -10.45569,9.90482 -5.52783,11.05618 h -6.59804 c -0.71329,0 0.53485,5.52782 0.53485,5.52782 l 9.4511,0.17829 6.77633,-13.90923 6.59805,-7.48947 6.59805,-0.17828 2.31768,10.69909 2.54869,16.40571 h -30.90148 v 5.36764 h 4.22197 v 7.36286 h 39.2777 v -7.36286 h 4.3217 v -5.36764 h -4.50257 l -0.34364,-2.3182 -8.02432,0.35657 0.46974,-27.91509 0.17828,-17.6537 2.49649,-0.71366 7.1329,3.21014 13.55214,-15.15721 -1.78335,-4.45813 0.1788,-1.60507 -3.21014,-1.78335 -1.42627,3.74499 2.85306,2.85305 -10.34252,11.05618 -3.92328,-1.96164 -5.34954,-2.85305 z" />
    <path
       id="path8503"
       style="display:inline;fill:none;stroke:#000000;stroke-width:0.256715px;stroke-linecap:butt;stroke-linejoin:miter;stroke-opacity:1"
       inkscape:label="04"
       d="m 52.3803,112.57595 -10.69909,0.53536 0.35657,14.44357 -5.17126,2.3182 -10.17354,3.69332 -4.48242,-7.72925 1.42627,-2.3182 c 0.71915,1.19859 -1.29936,-2.16578 -2.13992,-3.56671 l -6.06268,4.99298 1.24799,4.27984 3.21014,-1.60507 6.16861,12.77958 10.2707,-4.10672 -1.42679,14.62236 -7.1329,-4.27933 -5.52783,11.05617 h -6.59804 c -0.71329,0 0.53485,5.52783 0.53485,5.52783 l 9.4511,0.17829 c 0,0 3.72093,-6.59685 4.12585,-8.24549 l 5.92573,1.03094 6.59805,-0.17828 2.31769,10.69908 2.54868,16.40572 H 16.24659 v 5.36763 h 4.22196 v 7.36286 h 39.27771 v -7.36286 h 4.32169 v -5.36763 h -4.50256 l -0.34365,-2.3182 -8.02432,0.35656 0.46974,-27.91509 0.17829,-17.6537 2.49648,-0.71314 3.21014,1.24799 7.94629,-11.79411 -1.78284,-4.45761 0.17829,-1.60507 -3.21014,-1.78335 -1.42627,3.74499 2.85305,2.85305 -4.73718,7.69256 -5.34954,-2.85306 z" />
    <path
       id="path7907"
       style="display:inline;fill:none;stroke:#000000;stroke-width:0.256715px;stroke-linecap:butt;stroke-linejoin:miter;stroke-opacity:1"
       inkscape:label="05"
       d="m 121.29715,111.60212 -10.69909,0.53536 0.35657,14.44357 -5.17126,2.3182 -8.462534,9.92963 -4.48293,-7.72976 1.426786,-2.31821 c 0.71915,1.19859 -1.299366,-2.16526 -2.139921,-3.56619 l -6.062679,4.99298 1.247986,4.27984 3.209623,-1.60507 6.169132,12.77958 8.559687,-10.34304 -1.42679,14.62237 -9.782864,1.38441 -5.528345,11.05617 h -6.59753 c -0.713287,0 0.534852,5.52783 0.534852,5.52783 l 9.451102,0.17828 6.775814,-13.90923 5.925731,1.03095 6.59805,-0.17829 2.31769,10.69909 2.54868,16.40572 H 85.163439 v 5.36763 h 4.221965 v 7.36286 h 39.277706 v -7.36286 h 4.32169 v -5.36763 h -4.50256 l -0.34365,-2.3182 -8.02432,0.35656 0.46974,-27.91509 0.17829,-17.6537 2.49648,-0.71314 7.1329,3.20963 7.9468,-11.79412 -1.78335,-4.45761 0.17828,-1.60506 -3.20962,-1.78336 -1.42678,3.74499 2.85305,2.85306 -4.73718,7.69255 -3.92224,-1.96164 -5.35006,-2.85305 z" />
    <path
       id="path8624"
       style="display:inline;fill:none;stroke:#000000;stroke-width:0.256715px;stroke-linecap:butt;stroke-linejoin:miter;stroke-opacity:1"
       inkscape:label="06"
       d="m 183.11426,109.66245 -10.69909,0.53537 0.35657,14.44356 -5.17126,2.31821 -5.54747,2.08152 -4.48293,-7.72924 1.42679,-2.31821 c 0.71915,1.19859 -1.29937,-2.16577 -2.13992,-3.5667 l -6.0632,4.99297 1.2485,4.27985 3.20963,-1.60456 6.16913,12.77907 5.64462,-2.49494 -1.42679,14.62236 -9.33483,-3.54862 -5.52783,11.05617 h -6.59804 c -0.71329,0 0.53536,5.52783 0.53536,5.52783 l 9.45059,0.17829 6.32778,-8.9762 5.92573,1.03094 6.59805,-0.17828 2.31769,10.69909 2.54868,16.40572 h -30.90147 v 5.36763 h 4.22196 v 7.36286 h 39.27771 v -7.36286 h 4.3217 v -5.36763 h -4.50257 l -0.34365,-2.31821 -8.02432,0.35657 0.46974,-27.91509 0.17829,-17.6537 3.66334,-3.59617 5.78724,0.74311 7.94681,-11.79411 -1.78336,-4.45761 0.17829,-1.60507 -3.20963,-1.78336 -1.42678,3.745 2.85305,2.85305 -4.73718,7.69255 -3.92224,-1.96163 -5.17126,2.49649 z" />
    <path
       id="path10704"
       style="display:inline;fill:none;stroke:#000000;stroke-width:0.256715px;stroke-linecap:butt;stroke-linejoin:miter;stroke-opacity:1"
       inkscape:label="07"
       d="m 55.39049,16.206093 -10.69909,0.53536 0.35657,14.44357 -5.17126,2.3182 -8.46253,9.92963 -4.48293,-7.72976 1.42679,-2.31821 c 0.71915,1.19859 -1.29937,-2.16526 -2.13993,-3.56619 l -6.06267,4.99298 1.24798,4.27984 3.20962,-1.60507 6.16914,12.77958 8.55968,-10.34304 -1.42679,14.62237 -9.78286,1.38441 -5.52835,11.05617 h -6.59753 c -0.71328,0 0.53486,5.52783 0.53486,5.52783 l 9.4511,0.17828 6.77581,-13.90923 5.92573,1.03095 6.59805,-0.17829 2.31769,10.69909 2.54868,16.40572 H 19.25678 v 5.36763 h 4.22197 v 7.36286 h 39.2777 v -7.36286 h 4.32169 v -5.36763 h -4.50256 l -0.34365,-2.3182 -8.02432,0.35656 0.46974,-27.91509 0.17829,-17.6537 2.49648,-0.71314 7.1329,3.20963 7.9468,-11.79412 -1.78335,-4.45761 0.17828,-1.60506 -3.20962,-1.78336 -1.42678,3.74499 2.85305,2.85306 -4.73718,7.69255 -3.92224,-1.96164 -5.35006,-2.85305 z" />
    <path
       id="path10706"
       style="display:inline;fill:none;stroke:#000000;stroke-width:0.256715px;stroke-linecap:butt;stroke-linejoin:miter;stroke-opacity:1"
       inkscape:label="08"
       d="m 120.0957,13.91776 -10.69909,0.53536 0.35657,14.44357 -5.17126,2.3182 -10.173544,3.69332 -4.48242,-7.72925 1.42627,-2.3182 c 0.71915,1.19859 -1.29936,-2.16578 -2.13992,-3.56671 l -6.06268,4.99298 1.24799,4.27984 3.21014,-1.60507 6.16861,12.77958 10.270704,-4.10672 -1.42679,14.62236 -7.132904,-4.27933 -5.52783,11.05617 h -6.59804 c -0.71329,0 0.53485,5.52783 0.53485,5.52783 l 9.4511,0.17829 c 0,0 3.72093,-6.59685 4.12585,-8.24549 l 5.925734,1.03094 6.59805,-0.17828 2.31769,10.69908 2.54868,16.40572 H 83.961986 v 5.36763 h 4.22196 v 7.36286 h 39.277714 v -7.36286 h 4.32169 v -5.36763 h -4.50256 l -0.34365,-2.3182 -8.02432,0.35656 0.46974,-27.91509 0.17829,-17.6537 2.49648,-0.71314 3.21014,1.24799 7.94629,-11.79411 -1.78284,-4.45761 0.17829,-1.60507 -3.21014,-1.78335 -1.42627,3.74499 2.85305,2.85305 -4.73718,7.69256 -5.34954,-2.85306 z" />
    <path
       id="path10708"
       style="display:inline;fill:none;stroke:#000000;stroke-width:0.256715px;stroke-linecap:butt;stroke-linejoin:miter;stroke-opacity:1"
       inkscape:label="09"
       d="m 182.51987,14.085779 -10.69908,0.53536 0.35656,14.44356 -5.17126,2.31821 -9.80767,11.94759 -7.84655,-4.8147 1.42679,-2.3182 c 0.71915,1.19859 -1.29937,-2.16526 -2.13992,-3.56619 l -6.06268,4.99298 1.24798,4.27932 3.21014,-1.60455 10.87738,7.84655 8.55968,-10.34304 -1.42679,14.62236 -10.45569,9.90482 -5.52783,11.05618 h -6.59804 c -0.71329,0 0.53485,5.52782 0.53485,5.52782 l 9.4511,0.17829 6.77633,-13.90923 6.59805,-7.48947 6.59805,-0.17828 2.31768,10.69909 2.54869,16.40571 h -30.90148 v 5.36764 h 4.22197 v 7.36286 h 39.2777 v -7.36286 h 4.3217 v -5.36764 h -4.50257 l -0.34364,-2.3182 -8.02432,0.35657 0.46974,-27.91509 0.17828,-17.6537 2.49649,-0.71366 7.1329,3.21014 13.55214,-15.15721 -1.78335,-4.45813 0.1788,-1.60507 -3.21014,-1.78335 -1.42627,3.74499 2.85306,2.85305 -10.34252,11.05618 -3.92328,-1.96164 -5.34954,-2.85305 z" />
    <path
       id="path11131"
       style="display:inline;fill:none;fill-opacity:0;fill-rule:evenodd;stroke:#ff0000;stroke-width:0.722252"
       inkscape:label="10"
       d="m 46.219493,-83.035343 -10.69909,0.53485 0.35657,14.44408 -5.17126,2.3182 -8.378302,10.51771 -6.15157,-7.61194 1.42679,-2.3182 -2.13992,-3.56671 -6.0626797,4.99297 1.2479897,4.27985 3.21014,-1.60456 7.75301,12.07317 8.559172,-10.34304 -1.42627,14.62236 -6.419762,8.55969 -5.52783,11.05617 h -6.59805 c -0.7132797,0 0.53485,5.52783 0.53485,5.52783 l 9.45111,0.17828 6.776332,-13.90923 6.59804,-7.48946 6.59805,-0.17829 2.31769,10.69909 2.54868,16.40572 H 14.121711 v 5.3676294 h 4.22196 v 7.36286 h 39.277712 v -7.36286 h 4.3217 v -5.3676294 h -4.50257 l -0.34365,-2.3182 -8.02432,0.35656 -3.56619,-26.56995 0.17829,-17.6537 2.49649,-0.71314 11.94759,11.05566 8.77362,-13.68702 -1.78283,-4.45761 0.17828,-1.60507 -3.21014,-1.78336 -1.42627,3.745 2.85305,2.85305 -5.564,9.58546 -8.73797,-9.80767 -5.34954,-2.85305 z" />
    <path
       id="path11213"
       style="display:inline;fill:none;fill-opacity:0;fill-rule:evenodd;stroke:#ff0000;stroke-width:0.722252"
       inkscape:label="11"
       d="m 119.37798,-83.135527 -10.69909,0.53485 0.35657,14.44408 -5.17126,2.3182 -6.475707,13.530155 -6.15157,-7.61194 1.42679,-2.3182 -2.13992,-3.56671 -6.06268,4.99297 1.24799,4.27985 3.21014,-1.60456 7.75301,12.07317 6.656577,-13.355485 -1.42627,14.62236 -3.724419,11.096486 -5.52783,11.05617 h -6.59805 c -0.713279,0 0.53485,5.52783 0.53485,5.52783 l 9.45111,0.17828 6.776329,-13.90923 3.9027,-10.026256 6.59805,-0.17829 2.31769,10.69909 2.54868,16.40572 H 87.280196 v 5.3676291 h 4.22196 v 7.36286 h 39.277714 v -7.36286 h 4.3217 V -13.946987 H 130.599 l -0.34365,-2.3182 -8.02432,0.35656 -3.56619,-26.56995 0.17829,-17.6537 2.49649,-0.71314 9.0937,17.714748 8.77362,-13.68702 -1.78284,-4.45761 0.17828,-1.60507 -3.21013,-1.78336 -1.42628,3.745 2.85306,2.85305 -5.564,9.58546 -5.88408,-16.466758 -5.34954,-2.85305 z"
       sodipodi:nodetypes="ccccccccccccccccscccccccccccccccccccccccccccccccc" />
    <path
       id="path11129"
       style="display:inline;fill:none;stroke:#000000;stroke-width:0.256715px;stroke-linecap:butt;stroke-linejoin:miter;stroke-opacity:1"
       inkscape:label="12"
       d="m 191.83897,-81.444684 -10.69909,0.53485 0.35657,14.44408 -5.17125,2.3182 -9.80767,11.94759 -7.84655,-4.81469 1.42678,-2.3182 -2.13992,-3.56671 -6.06268,4.99298 1.24799,4.27984 3.20962,-1.60507 10.87789,7.84655 8.55917,-10.34304 -1.42627,14.62237 -3.03134,14.26579 -5.52835,11.05617 h -6.59753 c -0.71328,0 0.53486,5.52783 0.53486,5.52783 v 5.3676297 h 4.22196 v 7.36285909 h 39.2777 V -6.8885143 h 4.3217 v -5.3676297 h -4.50257 l -0.34365,-2.3182 -8.02432,0.35656 -3.56619,-26.56995 0.17829,-17.6537 2.49649,-0.71314 11.94759,11.05566 13.55214,-15.15722 -1.78284,-4.45812 0.17829,-1.60456 -3.21014,-1.78335 -1.42627,3.74447 2.85305,2.85358 -10.34252,11.05565 -8.73797,-9.80767 -5.34954,-2.85305 z m -6.06268,42.08373 2.31769,10.69909 2.54868,16.40572 h -21.36354 l 6.68899,-13.73094 3.21014,-13.19558 z" />
  </g>
</svg>
