<?xml version="1.0" encoding="utf-8"?>
<!-- Generator: Adobe Illustrator 15.0.0, SVG Export Plug-In . SVG Version: 6.00 Build 0)  -->
<!DOCTYPE svg PUBLIC "-//W3C//DTD SVG 1.1//EN" "http://www.w3.org/Graphics/SVG/1.1/DTD/svg11.dtd">
<svg version="1.1" id="Layer_1" xmlns="http://www.w3.org/2000/svg" xmlns:xlink="http://www.w3.org/1999/xlink" x="0px" y="0px"
	 width="734.426px" height="926px" viewBox="0 0 734.426 926" enable-background="new 0 0 734.426 926" xml:space="preserve">
<polygon fill="none" stroke="#000000" stroke-miterlimit="10" points="92.37,194.005 92.37,207.058 67.079,207.058 61.813,185.923 
	62.813,158.985 70.895,134.661 78.207,131.967 93.14,157.061 94.679,178.227 "/>
<g>
	<path fill="none" stroke="#000000" stroke-miterlimit="10" d="M78.382,79.08L78.3,77.973l-0.297-4.039l1.965,1.476l0.19,1.971
		c-0.602,1.018,4.671,17.175,4.671,17.175c2.424,13.711,8.57,10.448,8.57,10.448c3.22-1.595,8.479-3.548,8.479-3.548
		c2.668-0.856,6.154-1.917,6.154-1.917c0.877-0.839,2.417-0.598,2.417-0.598c1.55,2.246,3.32,1.634,3.32,1.634
		c0.843,1.134,3.63,1.923,3.63,1.923c0.356,0.322,1.052,1.709,1.052,1.709c0.081,0.456,1.614,2.005,1.614,2.005
		c0.016,0.34-1.234,2.911-1.234,2.911l1.773-0.827c1.716-4.064,0.752-3.721,0.222-4.781c-0.029-0.057-0.065-0.121-0.108-0.189
		c-0.739-1.178-3.409-3.76-3.409-3.76l-3.311-3.987c0.669,0.651,3.831,0.14,3.831,0.14c0.816,0.752,2.582,1.889,2.582,1.889
		l1.143,3.706c0.686,2.187,2.699,4.671,2.699,4.671l-0.005-0.512c-0.67-1.376-0.711-6.757-0.711-6.757
		c-0.098-1.522-2.418-4.652-2.418-4.652c-1.059-0.199-4.64-2.81-4.64-2.81c-1.362-0.7-2.373-1.589-2.373-1.589
		c0.266-0.176,2.696-0.31,2.696-0.31c0.344,0.495,4.76,1.503,4.76,1.503c0.593,0.45,3.05,4.541,3.05,4.541
		c-0.42,1.013,0.614,2.921,0.614,2.921l1.11,3.516c1.225-1.542,0.204-6.583,0.204-6.583c-0.116-0.661-2.632-5.494-2.632-5.494
		c-1.044-1.311-5.613-3.013-5.613-3.013l-4.085-0.39l0.008-2.535l4.808-0.068c2.004-0.088,2.522,2.479,2.522,2.479
		c0.914-1.464-0.336-5.217-0.336-5.217c-3.731-1.947-9.838,1.088-9.838,1.088c-1.673,0.21-5.641,5.984-5.641,5.984
		c-0.644,0.371-2.891,3.541-2.891,3.541l-7.184,3.029c0,0-7.098-17.746-6.683-20.556l-0.113-1.436l-4.958-19.384l-7.184-5.516
		l2.083-2.309l8.692,5.901l-0.128-3.336c0,0,2.117-0.962,2.501-2.245c0,0-1.539,0.129-3.142-0.448l1.026-7.954
		c0,0,5.259,11.032,5.516,12.957l5.88-3.893l1.177,3.366l2.019-0.506l0.674-5.215c1.178-1.515,0.42-2.609,0.42-2.609
		c0.337-0.505,0.337-3.197,0.337-3.197c0.506-0.337,2.239-1.768,2.239-1.768l-0.052-2.019c0.253-1.177-0.53-2.776-0.53-2.776
		l-0.481-4.375c-0.419-2.777-2.354-5.048-2.354-5.048l-4.207-4.46c-4.544-4.039-9.003-2.861-9.003-2.861
		c-0.841,0.084-4.711,3.197-4.711,3.197l-1.516-1.178l-3.701,2.188l-2.608,3.449c-1.515-0.925-3.535-0.504-3.535-0.504
		c-1.345,0.252-4.291-0.421-4.291-0.421c-2.777-0.842-6.48,0-6.48,0l-2.439,1.639l-3.112,0.212c-8.668-1.43-16.07,4.797-16.07,4.797
		l-3.825,2.973l-0.006-0.029c-0.017,0.018-0.042,0.054-0.064,0.083l-0.008,0.007l0.002,0.001
		c-1.203,1.645-9.017,20.544-9.017,20.544c-1.515,1.892-5.491,9.086-5.491,9.086l-1.513,5.869
		c-1.515,5.867,1.892,14.576,1.892,14.576c0.19,2.271,9.655,26.692,9.655,26.692c-1.513,2.082-3.218,8.519-3.218,8.519
		c-6.247,8.518-7.194,22.527-7.194,22.527c2.84-8.33,12.116-19.24,12.116-19.24c-2.84,3.665-6.435,24.162-6.435,24.162l1.584,3.131
		l0.685-5.782c0.569-3.218,6.626-14.954,6.626-14.954s-1.702,5.679-2.46,7.761c-0.758,2.082,2.272,10.601,2.082,9.844
		c-0.188-0.758,0.569-8.14,0.569-9.465c0-1.326,6.056-8.71,6.056-8.71l-0.567,8.331l-2.152,2.264l6.254-1.925l1.058-15.682
		L35.904,84.017l-3.532-15.242l7.064-14.128l2.975,3.235l0.856,0.931l2.756,17.125l8.583,52.439l1.447,2.526l-6.476,27.232
		l-0.385,28.478l-9.545,3.079l-8.852,4.618l-1.43,12.283h-2.299v12.505h6.783v11h85.039v-11h5.745v-11.573h8.53l-1.539-5.903
		l-7.312-8.533l-16.164-5.322l0.77-6.927l-0.77-27.708l-20.116-32.814l-9.131-34.662L78.3,77.973"/>
	<polyline fill="none" stroke="#000000" stroke-miterlimit="10" points="78.232,79.807 78.15,78.7 77.853,74.661 	"/>
</g>
<polyline fill="none" stroke="#000000" stroke-miterlimit="10" points="211.359,176.065 206.207,191.156 203.651,204.906 
	232.995,210.358 182.309,210.358 179.402,193.81 180.402,166.871 183.547,149.474 186.483,141.546 193.795,138.853 209.638,153.694 
	211.269,176.106 "/>
<g>
	<path fill="none" stroke="#000000" stroke-miterlimit="10" d="M183.367,28.378c0,0-8.88,1.443-10.128,3.01l0.344,0.05
		c-8.667-1.431-16.07,4.797-16.07,4.797l-3.825,2.974l-0.006-0.03c-0.017,0.018-0.042,0.054-0.064,0.084l-0.003,0.004
		c-1.195,1.623-9.019,20.547-9.019,20.547c-1.516,1.892-5.491,9.085-5.491,9.085l-1.312,5.088
		c-2.528,5.481-0.893,14.532-0.893,14.532c-0.25,2.266,4.338,28.052,4.338,28.052l-0.154,0.293c-0.904,2.41-0.83,9.069-0.83,9.069
		c-3.75,9.876-0.925,23.63-0.925,23.63c0.515-8.786,6.545-21.775,6.545-21.775c-1.759,4.289,0.242,25.004,0.242,25.004l2.362,2.594
		l-0.882-5.754c-0.31-3.254,2.398-16.18,2.398-16.18s-0.126,5.927-0.301,8.136c-0.175,2.208,5.017,9.611,4.632,8.932
		c-0.384-0.68-1.623-7.998-1.976-9.274c-0.354-1.278,3.514-10.01,3.514-10.01l1.676,8.181l-1.471,2.755l5.514-3.522l-3.162-15.397
		l-6.546-9.795l-2.699-19.925l-0.532-15.637l9.652-12.504l0.758,0.633l0.804,0.672l2.756,17.127l10.583,54.903l-7.03,27.758
		l1.616,28.478l-11.546,3.079l-8.851,4.618l-0.897,7.698h-3.613v12.504h6.784v11h85.039v-11h5.744v-11.12l3.317,0.616l-0.436-6.086
		l-5.63-9.724l-14.919-8.185l1.253-7.44l0.711-29.447l-10.574-13.466l-9.543-10.342l-9.131-33.662l-0.898-12.186l3.528,3.914
		l0.113,0.414c1.175,2.693,11.208,15.774,11.208,15.774c7.118,11.965,11.713,6.739,11.713,6.739
		c2.447-2.631,6.675-6.318,6.675-6.318c2.192-1.745,5.078-3.97,5.078-3.97c0.523-1.095,2.048-1.415,2.048-1.415
		c2.245,1.553,3.684,0.354,3.684,0.354c1.189,0.762,4.076,0.514,4.076,0.514c0.446,0.175,1.588,1.228,1.588,1.228
		c0.237,0.397,2.219,1.304,2.219,1.304c0.135,0.311-0.124,3.159-0.124,3.159l1.365-1.401c0.168-4.408-0.613-3.746-1.483-4.551
		c-0.048-0.042-0.104-0.09-0.168-0.137c-1.108-0.841-4.519-2.311-4.519-2.311l-4.507-2.558c0.856,0.372,3.633-1.224,3.633-1.224
		c1.029,0.414,3.082,0.853,3.082,0.853l2.381,3.061c1.415,1.803,4.177,3.415,4.177,3.415l-0.186-0.478
		c-1.113-1.05-3.055-6.069-3.055-6.069c-0.631-1.387-3.908-3.495-3.908-3.495c-1.062,0.189-5.334-0.986-5.334-0.986
		c-1.522-0.173-2.782-0.647-2.782-0.647c0.187-0.258,2.412-1.244,2.412-1.244c0.497,0.341,4.984-0.278,4.984-0.278
		c0.713,0.211,4.46,3.169,4.46,3.169c-0.035,1.096,1.607,2.514,1.607,2.514l2.282,2.896c0.6-1.875-2.137-6.229-2.137-6.229
		c-0.344-0.577-4.406-4.208-4.406-4.208c-1.441-0.856-6.317-0.832-6.317-0.832l-3.959,1.081l-0.889-2.374l4.472-1.765
		c1.844-0.791,3.237,1.426,3.237,1.426c0.337-1.693-2.159-4.761-2.159-4.761c-4.18-0.5-8.818,4.499-8.818,4.499
		c-1.49,0.788-3.159,7.593-3.159,7.593c-0.471,0.574-1.451,4.335-1.451,4.335l-5.647,5.374c0,0-13.532-15.39-14.138-18.164
		l-4.975-18.853l-7.184-5.517l1.299-3.966l1.205-2.867l10.152,2.705l-1.222-3.107c0,0,1.682-1.606,1.622-2.944
		c0,0-1.411,0.629-3.115,0.613l-1.654-7.847c0,0,10.143,7.141,11.02,8.873l2.727-4.074l2.222,2.789l1.74-1.143l-1.084-5.146
		c0.612-1.818-0.464-2.601-0.464-2.601c0.151-0.588-0.737-3.129-0.737-3.129c0.367-0.486,1.531-2.407,1.531-2.407l-0.715-1.89
		c-0.15-1.195-1.415-2.446-1.415-2.446l-1.896-3.972c-1.313-2.483-3.888-3.989-3.888-3.989l-5.442-2.823
		c-5.622-2.315-9.443,0.267-9.443,0.267c-0.767,0.357-3.394,4.573-3.394,4.573l-1.819-0.613l-2.773,3.286l-1.324,4.116
		c-1.736-0.373-3.504,0.689-3.504,0.689L183.367,28.378z"/>
</g>
<g>
	<path fill="none" stroke="#010101" d="M262.157,47.914l-3.699,8.182c0.247-0.368,0.469-0.68,0.655-0.911
		C259.113,55.185,260.479,51.881,262.157,47.914z"/>
	<polygon fill="none" stroke="#010101" stroke-miterlimit="10" points="325.316,171.483 320.723,187.299 318.168,201.047 
		340.58,205.212 296.671,205.212 293.919,189.181 295.919,162.242 299.064,146.845 302,138.918 309.312,136.225 324.245,150.311 
		326.142,168.638 	"/>
	<path fill="none" stroke="#010101" stroke-miterlimit="10" d="M258.458,56.096l-6.093,13.898l-0.539,1.71
		c-1.533,5.42,2.56,13.656,2.56,13.656c0.129,2.114,8.401,25.011,8.401,25.011l-0.096,0.293c-0.447,2.352,0.671,8.44,0.671,8.44
		c-1.876,9.638,2.881,21.792,2.881,21.792c-0.914-8.13,2.56-20.981,2.56-20.981c-0.934,4.208,4.167,22.868,4.167,22.868l2.573,2.003
		l-1.715-5.131c-0.798-2.932-0.357-15.201-0.357-15.201s0.82,5.45,1.008,7.5c0.189,2.052,6.112,8.014,5.652,7.453
		c-0.459-0.563-2.748-7.071-3.273-8.184c-0.526-1.115,1.64-9.725,1.64-9.725l2.826,7.231l-0.912,2.756l4.494-4.097l-5.325-13.605
		l-7.543-7.941l-5.616-17.827l-4.265-11.93l1.003-2.048l9.651-12.504v-0.769l1.562,1.305l4.382,27.231l9.957,47.8l-6.029,24.758
		l-0.385,28.478l-11.546,3.078l-8.851,4.619l-0.836,7.179h-0.869v12.505h6.784v11h85.039v-11h5.744v-9.312l1.131-0.32l-1.054-5.671
		l-5.631-9.724l-14.919-8.185l1.253-8.439v0.229l0.711-29.447l-8.229-11.154l-11.887-12.654l-9.132-33.661l-0.985-23.888
		c-0.016-0.383,0.39-0.638,0.723-0.448c3.703,2.116,19.463,8.258,19.463,8.258c12.164,6.774,13.513-0.053,13.513-0.053
		c0.795-3.504,2.6-8.815,2.6-8.815c1.02-2.61,2.398-5.983,2.398-5.983c-0.098-1.211,1.061-2.252,1.061-2.252
		c2.721,0.214,3.363-1.545,3.363-1.545c1.411,0.062,3.783-1.602,3.783-1.602c0.474-0.072,1.989,0.264,1.989,0.264
		c0.405,0.224,2.574,0.013,2.574,0.013c0.273,0.202,1.479,2.793,1.479,2.793l0.477-1.896c-2.068-3.897-2.411-2.932-3.568-3.189
		c-0.063-0.014-0.135-0.027-0.214-0.036c-1.38-0.171-5.069,0.27-5.069,0.27l-5.181,0.053c0.927-0.109,2.526-2.883,2.526-2.883
		c1.099-0.159,3.095-0.811,3.095-0.811l3.596,1.451c2.129,0.849,5.326,0.856,5.326,0.856l-0.4-0.319
		c-1.49-0.349-5.69-3.714-5.69-3.714c-1.242-0.884-5.134-1.061-5.134-1.061c-0.824,0.696-5.108,1.826-5.108,1.826
		c-1.403,0.615-2.731,0.837-2.731,0.837c0.032-0.317,1.47-2.952,1.47-2.952c0.787-0.361,4.161-2.078,4.161-2.078
		c0.724-0.176,5.449,0.502,5.449,0.502c0.521,0.965,2.652,1.367,2.652,1.367l3.428,1.357c-0.423-1.921-4.977-4.312-4.977-4.312
		c-0.586-0.327-5.922-1.427-5.922-1.427c-1.677-0.017-5.881,2.452-5.881,2.452l-2.88,2.923l-1.962-1.606l2.982-3.773
		c1.196-1.61,3.515-0.391,3.515-0.391c-0.56-1.633-4.259-3.033-4.259-3.033c-3.864,1.666-5.365,8.318-5.365,8.318
		c-0.893,1.43,1.081,8.152,1.081,8.152c-0.119,0.734,0.921,4.478,0.921,4.478l-2.185,7.483c0,0-19.43-6.514-21.347-8.609
		l-0.134-0.198l0.37,0.381l-7.183-5.516l-1.642-10.47l-7.423-5.745l1.25-4l9.875,3.25l6.59-3.268l-2.994-1.475
		c0,0,0.162-2.321-0.782-3.27c0,0-0.62,1.414-1.892,2.549l-8.043-4.691c0,0,3.13-1.973,7.061-2.278
		c3.477-0.27,7.749,1.102,8.601,1.427l-0.724-4.85l3.521,0.57l0.517-2.017l-4.264-3.077c-0.771-1.758-2.094-1.613-2.094-1.613
		c-0.283-0.536-2.651-1.819-2.651-1.819c-0.055-0.605-0.486-2.81-0.486-2.81l-1.8-0.916c-0.915-0.784-2.694-0.858-2.694-0.858
		L303.677,4c-2.642-0.955-5.56-0.336-5.56-0.336l-5.926,1.575c-5.715,2.07-6.804,6.55-6.804,6.55
		c-0.328,0.781,0.565,5.667,0.565,5.667l-1.758,0.771l0.16,4.297l1.79,3.935c-1.535,0.892-2.128,2.868-2.128,2.868
		c-8.667-1.43-11.987,2.28-11.987,2.28l-3.854,2.997l-1.134,2.458c-0.696,0.947-2.545,5.324-4.884,10.852L258.458,56.096z"/>
	<path fill="none" stroke="#010101" d="M420.368,529.779l-3.698,8.183c0.247-0.368,0.47-0.68,0.654-0.911
		C417.324,537.051,418.69,533.747,420.368,529.779z"/>
	<polygon fill="none" stroke="#010101" stroke-miterlimit="10" points="483.528,653.349 478.936,669.165 476.38,682.913 
		498.792,687.078 454.883,687.078 452.131,671.047 454.131,644.107 457.276,628.711 460.212,620.784 467.524,618.091 
		482.457,632.177 484.354,650.504 	"/>
	<path fill="none" stroke="#010101" stroke-miterlimit="10" d="M416.67,537.961l-6.093,13.897l-0.539,1.711
		c-1.533,5.42,2.56,13.656,2.56,13.656c0.129,2.114,8.401,25.011,8.401,25.011l-0.096,0.293c-0.447,2.353,0.671,8.44,0.671,8.44
		c-1.876,9.637,2.881,21.792,2.881,21.792c-0.914-8.13,2.56-20.981,2.56-20.981c-0.934,4.208,4.167,22.867,4.167,22.867l2.573,2.004
		l-1.715-5.131c-0.798-2.932-0.357-15.201-0.357-15.201s0.82,5.45,1.009,7.5c0.188,2.052,6.111,8.014,5.651,7.453
		c-0.459-0.563-2.748-7.071-3.272-8.184c-0.525-1.115,1.64-9.726,1.64-9.726l2.826,7.231l-0.912,2.756l4.494-4.097l-5.325-13.606
		l-7.543-7.94l-5.616-17.826l-4.265-11.931l1.003-2.048l9.65-12.504v-0.769l1.562,1.305l4.382,27.23l9.957,47.801l-6.029,24.758
		l-0.385,28.478l-11.546,3.078l-8.851,4.618l-0.836,7.18h-0.869v12.505h6.783v11h85.039v-11h5.744v-9.312l1.131-0.32l-1.054-5.671
		l-5.631-9.724l-14.919-8.186l1.253-8.438v0.229l0.711-29.446l-8.229-11.154l-11.888-12.654l-9.132-33.661l-0.985-23.888
		c-0.016-0.383,0.391-0.638,0.724-0.448c3.703,2.116,19.463,8.258,19.463,8.258c12.164,6.773,13.513-0.053,13.513-0.053
		c0.795-3.505,2.601-8.814,2.601-8.814c1.02-2.61,2.397-5.984,2.397-5.984c-0.098-1.21,1.062-2.251,1.062-2.251
		c2.721,0.214,3.362-1.545,3.362-1.545c1.411,0.062,3.783-1.603,3.783-1.603c0.475-0.071,1.989,0.265,1.989,0.265
		c0.405,0.224,2.574,0.013,2.574,0.013c0.272,0.202,1.479,2.793,1.479,2.793l0.478-1.896c-2.068-3.897-2.411-2.933-3.568-3.19
		c-0.062-0.013-0.135-0.026-0.214-0.035c-1.38-0.171-5.069,0.271-5.069,0.271l-5.181,0.053c0.927-0.109,2.525-2.883,2.525-2.883
		c1.1-0.159,3.096-0.812,3.096-0.812l3.596,1.451c2.129,0.849,5.326,0.856,5.326,0.856l-0.4-0.32
		c-1.489-0.348-5.689-3.713-5.689-3.713c-1.242-0.884-5.134-1.062-5.134-1.062c-0.824,0.696-5.108,1.826-5.108,1.826
		c-1.403,0.614-2.731,0.837-2.731,0.837c0.032-0.316,1.471-2.952,1.471-2.952c0.787-0.36,4.161-2.077,4.161-2.077
		c0.724-0.177,5.448,0.502,5.448,0.502c0.521,0.965,2.652,1.366,2.652,1.366l3.428,1.357c-0.423-1.921-4.977-4.312-4.977-4.312
		c-0.586-0.327-5.922-1.428-5.922-1.428c-1.678-0.017-5.88,2.452-5.88,2.452l-2.882,2.923l-1.962-1.605l2.982-3.773
		c1.196-1.609,3.515-0.391,3.515-0.391c-0.56-1.633-4.258-3.033-4.258-3.033c-3.865,1.665-5.366,8.318-5.366,8.318
		c-0.893,1.43,1.081,8.151,1.081,8.151c-0.119,0.734,0.921,4.479,0.921,4.479l-2.185,7.482c0,0-19.43-6.514-21.348-8.608
		l-0.134-0.198l0.37,0.381l-7.183-5.516l-1.643-10.471l-7.423-5.744l1.25-4l9.875,3.25l6.59-3.269l-2.993-1.475
		c0,0,0.161-2.321-0.782-3.271c0,0-0.62,1.414-1.893,2.549l-8.043-4.69c0,0,3.13-1.974,7.062-2.278
		c3.477-0.269,7.749,1.103,8.601,1.427l-0.724-4.85l3.521,0.57l0.518-2.018l-4.265-3.077c-0.771-1.758-2.094-1.612-2.094-1.612
		c-0.283-0.536-2.65-1.819-2.65-1.819c-0.056-0.604-0.486-2.81-0.486-2.81l-1.8-0.916c-0.915-0.784-2.694-0.858-2.694-0.858
		l-4.075-1.662c-2.642-0.955-5.56-0.336-5.56-0.336l-5.926,1.575c-5.716,2.07-6.805,6.55-6.805,6.55
		c-0.328,0.781,0.565,5.667,0.565,5.667l-1.758,0.771l0.159,4.297l1.79,3.935c-1.534,0.893-2.128,2.868-2.128,2.868
		c-8.667-1.43-11.986,2.28-11.986,2.28l-3.854,2.997l-1.134,2.458c-0.696,0.946-2.545,5.323-4.884,10.852L416.67,537.961z"/>
</g>
<g>
	<path fill="none" stroke="#000000" stroke-miterlimit="10" d="M408.125,28.199c0,0,2.052-5.114,6.67-7.386c0,0,2.951-0.378,4.49,0
		c0,0,3.042,0.947,5.305,6.439l-2.867,0.947l-1.002-3.103l-2.077,3.103h-5.809v-3.778l-2.273,3.778H408.125z"/>
	<polygon fill="none" stroke="#000000" stroke-miterlimit="10" points="444.12,152.033 440.761,169.978 440.693,169.939 
		432.42,183.572 426.973,196.452 457.144,209.214 418,209.214 414.387,190.277 411.537,163.338 418.072,145.501 420.469,140.014 
		427.779,136.32 444.2,151.606 	"/>
	<path fill="none" stroke="#000000" stroke-miterlimit="10" d="M384.688,90.169l3.48,18.82l6.365,7.979l3.626,14.154l-4.961,3.517
		l1.24-2.624l-1.922-7.52c0,0-3.2,8.28-2.813,9.451c0.385,1.169,1.862,7.908,2.25,8.522c0.387,0.614-4.765-6.027-4.701-8.086
		c0.063-2.058-0.085-7.567-0.085-7.567s-1.936,12.123-1.501,15.13l1.076,5.303l-2.31-2.303c0,0-2.786-19.143-1.345-23.205
		c0,0-5.017,12.331-5.101,20.512c0,0-3.239-12.644-0.2-21.981c0,0-0.368-6.179,0.362-8.457l0.132-0.28c0,0-5.416-23.736-5.286-25.85
		c0,0-2.521-9.576-0.338-14.768l-0.083,0.321l1.514-5.869c0,0,3.975-7.193,5.491-9.086c0,0,8.14-19.688,9.087-20.634l-0.072,0.089
		l3.902-3.034c0,0-0.529-3.71,8.138-2.28c0,0,0.593-1.976,2.128-2.868l-1.79-3.935l-0.16-4.297l1.758-0.771
		c0,0-0.893-4.886-0.564-5.666c0,0,1.089-4.481,6.805-6.551l5.925-1.574c0,0,2.897-0.565,7.246-0.263l1.832,0.29
		c5.716,2.07,6.518,6.443,6.518,6.443c0.327,0.78-0.566,5.666-0.566,5.666l1.758,0.771l-0.159,4.296l-1.79,3.936
		c1.534,0.892,2.128,2.868,2.128,2.868c5.678,0.013,5.148,7.949,5.148,7.949l1.037,2.932l-0.357,12.47l7.815,16.3l7.327,11.821
		l5.747-5.267c0,0,1.052-3.741,1.533-4.306c0,0,1.797-6.772,3.301-7.533c0,0,4.731-4.91,8.899-4.331c0,0,2.438,3.114,2.07,4.8
		c0,0-1.351-2.243-3.209-1.487l-4.505,1.68l0.844,2.391l3.979-1.006c0,0,4.875,0.067,6.3,0.951c0,0,3.993,3.706,4.325,4.289
		c0,0,2.656,4.405,2.021,6.268l-2.228-2.938c0,0-1.614-1.449-1.561-2.544c0,0-3.689-3.028-4.397-3.252c0,0-4.499,0.535-4.989,0.184
		c0,0-2.243,0.944-2.435,1.198c0,0,1.251,0.499,2.769,0.7c0,0,4.25,1.255,5.315,1.086c0,0,3.236,2.169,3.841,3.568
		c0,0,1.848,5.055,2.94,6.125l0.177,0.481c0,0-2.73-1.663-4.111-3.492l-2.323-3.106c0,0-2.045-0.477-3.065-0.911
		c0,0-2.808,1.544-3.656,1.156l4.459,2.642c0,0,3.383,1.534,4.475,2.396c0.063,0.048,0.118,0.097,0.165,0.14
		c0.856,0.821,1.649,0.174,1.397,4.578l-1.392,1.375c0,0,0.312-2.842,0.184-3.156c0,0-1.964-0.943-2.193-1.346
		c0,0-1.122-1.072-1.564-1.256c0,0-2.892,0.193-4.066-0.591c0,0-1.461,1.172-3.676-0.423c0,0-1.531,0.291-2.075,1.376
		c0,0-2.926,2.171-5.152,3.875c0,0-4.296,3.606-6.793,6.191c0,0-4.69,5.138-11.583-6.959c0,0-13.213-16.434-12.988-17.595
		l-0.003-0.107l1.026,24.391l10.132,31.662l19.116,25.807l-0.077,0.066l-7.459,29.413l-0.165-0.018l-2.819,6.998l12.812,11.197
		l3.411,10.707L465,209.213h8.425v12.505h-5.744v11h-85.039v-11h-6.784v-12.505h5.336l1.176-10.086l8.851-4.618l8.545-3.078
		l-2.003-28.479l7.417-29.758l-4.209-31.944l-6.129-38.085l-1.563-1.306l-1.315,1.117l-8.334,12.157l0.205-0.266L384.688,90.169z"/>
	<path fill="none" stroke="#000000" stroke-miterlimit="10" d="M330.751,505.593c0,0,2.052-5.114,6.67-7.386c0,0,2.951-0.379,4.49,0
		c0,0,3.042,0.946,5.305,6.438l-2.867,0.947l-1.002-3.103l-2.077,3.103h-5.809v-3.778l-2.273,3.778H330.751z"/>
	<polygon fill="none" stroke="#000000" stroke-miterlimit="10" points="366.747,629.427 363.387,647.371 363.32,647.333 
		355.046,660.966 349.599,673.846 379.77,686.608 340.627,686.608 337.013,667.671 334.165,640.732 340.699,622.896 
		343.095,617.408 350.406,613.714 366.827,629.001 	"/>
	<path fill="none" stroke="#000000" stroke-miterlimit="10" d="M307.315,567.563l3.48,18.82l6.365,7.978l3.626,14.154l-4.961,3.517
		l1.241-2.624l-1.922-7.52c0,0-3.2,8.279-2.814,9.451c0.385,1.169,1.863,7.907,2.25,8.521c0.387,0.614-4.764-6.027-4.701-8.086
		c0.064-2.058-0.085-7.567-0.085-7.567s-1.935,12.123-1.501,15.131l1.076,5.303l-2.309-2.303c0,0-2.786-19.144-1.345-23.205
		c0,0-5.017,12.331-5.101,20.512c0,0-3.239-12.645-0.2-21.981c0,0-0.368-6.179,0.363-8.457l0.131-0.279
		c0,0-5.416-23.736-5.286-25.851c0,0-2.521-9.575-0.338-14.768l-0.083,0.321l1.514-5.869c0,0,3.975-7.193,5.491-9.086
		c0,0,8.14-19.689,9.086-20.635l-0.071,0.09l3.902-3.034c0,0-0.529-3.71,8.138-2.28c0,0,0.593-1.976,2.128-2.868l-1.79-3.935
		l-0.16-4.297l1.758-0.771c0,0-0.893-4.886-0.565-5.666c0,0,1.089-4.48,6.805-6.551l5.925-1.574c0,0,2.897-0.564,7.246-0.263
		l1.832,0.29c5.716,2.07,6.517,6.442,6.517,6.442c0.327,0.78-0.566,5.666-0.566,5.666l1.758,0.771l-0.16,4.296l-1.79,3.936
		c1.535,0.893,2.128,2.868,2.128,2.868c5.678,0.014,5.149,7.949,5.149,7.949l1.037,2.932l-0.357,12.471l7.815,16.3l7.326,11.821
		l5.747-5.268c0,0,1.053-3.741,1.533-4.306c0,0,1.796-6.772,3.301-7.533c0,0,4.732-4.91,8.9-4.331c0,0,2.438,3.114,2.07,4.8
		c0,0-1.352-2.243-3.209-1.486l-4.505,1.68l0.844,2.391l3.979-1.006c0,0,4.875,0.067,6.3,0.951c0,0,3.993,3.706,4.325,4.289
		c0,0,2.656,4.405,2.021,6.268l-2.229-2.938c0,0-1.613-1.449-1.56-2.544c0,0-3.69-3.028-4.399-3.252c0,0-4.498,0.535-4.987,0.184
		c0,0-2.243,0.944-2.436,1.198c0,0,1.251,0.499,2.77,0.7c0,0,4.25,1.255,5.314,1.086c0,0,3.237,2.169,3.841,3.568
		c0,0,1.849,5.055,2.941,6.125l0.176,0.48c0,0-2.729-1.663-4.11-3.492l-2.323-3.105c0,0-2.045-0.478-3.066-0.911
		c0,0-2.807,1.544-3.656,1.156l4.459,2.642c0,0,3.384,1.534,4.475,2.396c0.063,0.049,0.119,0.098,0.166,0.141
		c0.855,0.82,1.648,0.174,1.396,4.578l-1.391,1.375c0,0,0.312-2.842,0.183-3.156c0,0-1.964-0.943-2.192-1.346
		c0,0-1.122-1.072-1.565-1.257c0,0-2.891,0.193-4.065-0.591c0,0-1.462,1.172-3.677-0.423c0,0-1.53,0.291-2.074,1.376
		c0,0-2.928,2.171-5.152,3.875c0,0-4.296,3.606-6.793,6.191c0,0-4.691,5.138-11.583-6.959c0,0-13.213-16.435-12.989-17.595
		l-0.003-0.107l1.027,24.391l10.131,31.662l19.117,25.808l-0.077,0.065l-7.459,29.413l-0.165-0.018l-2.82,6.998l12.813,11.196
		l3.411,10.707l-0.426,2.908h8.426v12.504h-5.744v11h-85.04v-11h-6.784v-12.504h5.336l1.175-10.086l8.851-4.619l8.545-3.078
		l-2.003-28.479l7.417-29.758l-4.209-31.944l-6.129-38.085l-1.563-1.307l-1.316,1.117l-8.335,12.157l0.206-0.266L307.315,567.563z"
		/>
</g>
<g>
	<path fill="none" stroke="#000000" stroke-miterlimit="10" d="M73.396,265.892c0,0,2.052-5.114,6.67-7.386c0,0,2.951-0.378,4.49,0
		c0,0,3.041,0.946,5.305,6.439l-2.868,0.947l-1.001-3.103l-2.078,3.103h-5.808v-3.778l-2.273,3.778H73.396z"/>
	<path fill="none" stroke="#010101" stroke-miterlimit="10" d="M145.214,328.691c-1.229-1.155-8.207-0.529-8.207-0.529
		c-0.695-0.259-4.57,0.031-4.57,0.031l-6.914-3.601l-7.891-6.627l-4.803-10.941l-6.505-15.716l0.31-10.811l-0.99-4.591
		c0,0-2.549-7.936-8.227-7.949c0,0-0.593-1.977-2.128-2.868l1.79-3.936l0.16-4.297l-1.758-0.77c0,0,0.893-4.886,0.565-5.667
		c0,0-0.47-4.064-6.186-6.134c-2.642-0.955-9.409-0.335-9.409-0.335l-5.925,1.573c-5.716,2.071-6.804,6.552-6.804,6.552
		c-0.328,0.78,0.565,5.666,0.565,5.666l-1.758,0.771l0.16,4.296l1.79,3.936c-1.535,0.892-1.358,2.868-1.358,2.868
		c-8.668-1.43-8.908,2.28-8.908,2.28l-0.824,3.034l-1.148,2.95c-1.095,1.589-5.558,18.365-5.558,18.365
		c-1.515,1.892-3.182,9.086-3.182,9.086l-3.957,27.81l-2.065,12.221l-9.25,5.863l-8.481,11.898l3.361,5.069l-0.212-2.896
		l4.501-6.323c0,0,0.002,8.878-0.779,9.831c-0.78,0.952-4.587,6.705-5.168,7.139c-0.583,0.433,6.615-3.906,7.297-5.849
		c0.682-1.944,2.805-7.029,2.805-7.029s-2.562,12.006-4.049,14.655l-2.914,4.56l2.983-1.317c0,0,9.495-16.855,9.613-21.163
		c0,0,0.239,13.311-2.629,20.972c0,0,6.531-10.836,7.06-20.641c0,0,5.527-10.466,5.666-12.855c0,0,7.092-16.125,6.961-18.239
		l1.681-6.955l3.687-19.49v-0.77l1.711,2.511l4.441,36.11l4.21,36.945l-11.417,24.758l7.003,28.478l-9.545,3.079l-8.852,4.618
		l-1.175,10.086H39.306v12.504h6.783v11h85.04v-11h5.744v-11.324l2.982,0.367l-0.805-6.047l-6.213-9.363l-15.391-7.259l0.796-7.502
		l0.164-0.028l-1.435-27.23l-8.262-27.196l-9.789-36.977l-0.405-16.575l1.197-3.822c3.4,4.922,11.521,15.024,11.521,15.024
		l4.878,6.475c3.284,1.463,8.14,4.269,8.14,4.269c2.362,1.508,5.402,3.518,5.402,3.518c1.205,0.139,2.002,1.479,2.002,1.479
		c-0.742,2.627,0.859,3.6,0.859,3.6c-0.336,1.372,0.834,4.022,0.834,4.022c-0.021,0.48-0.646,1.901-0.646,1.901
		c-0.301,0.352-0.515,2.521-0.515,2.521c-0.251,0.229-3.028,0.906-3.028,0.906l1.766,0.838c4.225-1.269,3.347-1.793,3.825-2.878
		c0.025-0.059,0.052-0.127,0.076-0.203c0.436-1.32,0.723-5.024,0.723-5.024l0.959-5.093c-0.074,0.931,2.335,3.04,2.335,3.04
		c-0.058,1.108,0.192,3.193,0.192,3.193l-2.125,3.244c-1.247,1.923-1.877,5.058-1.877,5.058l0.391-0.33
		c0.633-1.394,4.752-4.857,4.752-4.857c1.109-1.046,2.04-4.829,2.04-4.829c-0.522-0.943-0.795-5.366-0.795-5.366
		c-0.329-1.496-0.288-2.842-0.288-2.842c0.305,0.094,1.958,1.879,1.958,1.879c-0.163,0.581,1.877,4.625,1.877,4.625
		c0.032,0.744-1.553,5.246-1.553,5.246c-1.048,0.323-1.858,2.335-1.858,2.335l-2,3.098c1.968-0.04,5.2-4.041,5.2-4.041
		c0.435-0.511,2.554-5.531,2.554-5.531c0.344-1.641-1.259-6.245-1.259-6.245l-2.305-3.396l1.958-1.611l3.118,3.661
		c1.346,1.487-0.3,3.524-0.3,3.524c1.71-0.23,3.804-3.586,3.804-3.586C151.446,331.459,145.214,328.691,145.214,328.691z
		 M104.501,394.533l0.877,21.187l-0.076-0.018l-4.222,15.378l-1.711,13.88l27.934,3.443H86.795l-5.614-18.937l-1.848-26.939
		l8.702-17.932l3.228-7.392l5.311-0.693L104.501,394.533z"/>
	<polyline fill="none" stroke="#010101" points="116.895,392.587 116.888,392.587 116.888,392.588 	"/>
	<path fill="none" stroke="#000000" stroke-miterlimit="10" d="M236.503,265.73c0,0-2.052-5.114-6.67-7.386c0,0-2.951-0.378-4.49,0
		c0,0-3.041,0.947-5.305,6.439l2.868,0.947l1.001-3.102l2.078,3.102h5.808v-3.778l2.273,3.778H236.503z"/>
	<path fill="none" stroke="#010101" stroke-miterlimit="10" d="M157.572,335.413c0,0,2.093,3.356,3.803,3.586
		c0,0-1.646-2.036-0.3-3.524l3.119-3.66l1.957,1.611l-2.305,3.396c0,0-1.603,4.604-1.258,6.246c0,0,2.118,5.019,2.553,5.53
		c0,0,3.232,4.001,5.2,4.041l-2-3.097c0,0-0.81-2.012-1.858-2.336c0,0-1.585-4.502-1.552-5.245c0,0,2.039-4.045,1.876-4.625
		c0,0,1.654-1.786,1.958-1.88c0,0,0.041,1.347-0.288,2.842c0,0-0.273,4.423-0.795,5.366c0,0,0.932,3.784,2.04,4.829
		c0,0,4.12,3.464,4.752,4.857l0.392,0.33c0,0-0.63-3.134-1.877-5.057l-2.125-3.244c0,0,0.25-2.085,0.191-3.193
		c0,0,2.41-2.11,2.335-3.04l0.959,5.093c0,0,0.287,3.703,0.724,5.023c0.023,0.077,0.05,0.145,0.075,0.203
		c0.479,1.085-0.4,1.609,3.825,2.879l1.767-0.838c0,0-2.777-0.678-3.028-0.907c0,0-0.215-2.169-0.515-2.521
		c0,0-0.625-1.421-0.646-1.9c0,0,1.169-2.651,0.834-4.023c0,0,1.6-0.973,0.858-3.6c0,0,0.797-1.339,2.002-1.479
		c0,0,3.04-2.009,5.402-3.518c0,0,4.857-2.806,8.14-4.268l4.878-6.476c0,0,8.121-10.101,11.521-15.024l1.197,3.823l-0.405,16.574
		l-9.789,36.978l-8.262,27.196l-1.434,27.229l0.164,0.028l0.795,7.502l-15.391,7.259l-6.213,9.363l-0.805,6.047l2.983-0.367v11.324
		h5.744v11h85.039v-11h6.784v-12.504H259.91l-1.175-10.085l-8.851-4.619l-9.545-3.079l7.003-28.478l-11.417-24.758l4.209-36.944
		l4.442-36.111l1.71-2.51v0.77l3.687,19.49l1.681,6.954c-0.13,2.115,6.962,18.239,6.962,18.239
		c0.138,2.389,5.666,12.856,5.666,12.856c0.528,9.804,7.059,20.64,7.059,20.64c-2.868-7.661-2.629-20.971-2.629-20.971
		c0.118,4.308,9.613,21.162,9.613,21.162l2.983,1.317l-2.914-4.56c-1.487-2.649-4.049-14.655-4.049-14.655s2.123,5.086,2.805,7.029
		c0.682,1.943,7.88,6.283,7.298,5.85c-0.582-0.434-4.389-6.188-5.169-7.14c-0.781-0.953-0.779-9.831-0.779-9.831l4.502,6.324
		l-0.213,2.895l3.361-5.068l-8.48-11.898l-9.25-5.863l-2.065-12.222l-3.958-27.81c0,0-1.667-7.194-3.182-9.086
		c0,0-4.463-16.776-5.557-18.365l-1.149-2.95l-0.824-3.034c0,0-0.24-3.71-8.907-2.28c0,0,0.176-1.976-1.358-2.868l1.789-3.935
		l0.16-4.297l-1.758-0.771c0,0,0.894-4.886,0.566-5.666c0,0-1.089-4.481-6.805-6.551l-5.925-1.574c0,0-6.767-0.619-9.409,0.335
		c-5.716,2.07-6.186,6.135-6.186,6.135c-0.328,0.78,0.565,5.666,0.565,5.666l-1.757,0.771l0.16,4.296l1.789,3.936
		c-1.535,0.892-2.128,2.868-2.128,2.868c-5.678,0.013-8.227,7.949-8.227,7.949l-0.99,4.591l0.31,10.811l-6.504,15.717l-4.804,10.941
		l-7.891,6.626l-6.913,3.602c0,0-3.875-0.291-4.571-0.032c0,0-6.978-0.625-8.207,0.529
		C164.684,328.529,158.452,331.298,157.572,335.413z M213.324,376.348l5.312,0.694l3.227,7.392l8.703,17.932l-1.848,26.938
		l-5.615,18.937h-40.508l27.935-3.443l-1.711-13.88l-4.223-15.377l-0.075,0.018l0.876-21.188L213.324,376.348z"/>
	<polyline fill="none" stroke="#010101" points="193.004,392.425 193.011,392.425 193.011,392.426 	"/>
</g>
<g>
	<path fill="none" stroke="#010101" d="M333.8,305.741c0.225,1.161-13.965,17.118-13.965,17.118
		c-6.891,12.098-11.583,6.959-11.583,6.959c-2.496-2.586-6.793-6.192-6.793-6.192c-2.225-1.703-5.152-3.874-5.152-3.874
		c-0.544-1.085-2.075-1.376-2.075-1.376c-2.215,1.595-3.676,0.423-3.676,0.423c-1.175,0.784-4.066,0.591-4.066,0.591
		c-0.443,0.183-1.565,1.256-1.565,1.256c-0.229,0.403-2.193,1.346-2.193,1.346c-0.129,0.314,0.183,3.155,0.183,3.155l-1.391-1.374
		c-0.251-4.404,0.542-3.757,1.398-4.578c0.046-0.043,0.101-0.092,0.165-0.14c1.091-0.862,4.474-2.396,4.474-2.396l4.459-2.642
		c-0.849,0.388-3.656-1.156-3.656-1.156c-1.021,0.434-3.066,0.911-3.066,0.911l-2.323,3.106c-1.381,1.829-4.111,3.492-4.111,3.492
		l0.176-0.48c1.094-1.071,2.941-6.126,2.941-6.126c0.604-1.399,3.841-3.568,3.841-3.568c1.065,0.169,5.315-1.086,5.315-1.086
		c1.518-0.202,2.769-0.7,2.769-0.7c-0.192-0.254-2.435-1.198-2.435-1.198c-0.49,0.351-4.988-0.184-4.988-0.184
		c-0.709,0.224-4.4,3.252-4.4,3.252c0.055,1.095-1.559,2.544-1.559,2.544l-2.228,2.938c-0.635-1.863,2.021-6.268,2.021-6.268
		c0.332-0.583,4.325-4.289,4.325-4.289c1.425-0.884,6.3-0.951,6.3-0.951l3.979,1.006l0.844-2.391l-4.504-1.68
		c-1.859-0.756-3.21,1.487-3.21,1.487c-0.368-1.686,2.07-4.801,2.07-4.801c4.168-0.579,8.9,4.332,8.9,4.332
		c1.505,0.761,3.301,7.533,3.301,7.533c0.481,0.565,1.533,4.306,1.533,4.306l5.747,5.267l7.327-11.821l7.815-16.3l15.88-12.826
		l-0.875-5.125l-5.428,1.625l-4.668-4.127l2.994-1.476c0,0-0.163-2.32,0.782-3.269c0,0,0.62,1.414,1.892,2.549l4.194-4.692
		c0,0-0.05-1.974-3.982-2.278c-3.477-0.269-6.98,1.103-7.831,1.427l0.723-4.849l-3.52,0.569l-0.518-2.017l4.265-3.078
		c0.771-1.756,2.094-1.612,2.094-1.612c0.283-0.536,2.65-1.819,2.65-1.819c0.055-0.604,0.487-2.81,0.487-2.81l1.8-0.917
		c0.915-0.783,2.694-0.857,2.694-0.857l4.075-1.662c2.642-0.954,5.56-0.335,5.56-0.335l5.926,1.573
		c5.715,2.071,6.804,6.552,6.804,6.552c0.328,0.78-0.566,5.667-0.566,5.667l1.759,0.77l-0.16,4.297l-1.79,3.935
		c1.534,0.892,2.128,2.869,2.128,2.869l-0.474,0.221c8.667-1.431,8.138,2.279,8.138,2.279l3.732,2.902l0.099,0.043
		c0.018,0.017,0.042,0.053,0.064,0.083l0.007,0.006l-0.005-0.002c1.193,1.618,9.02,20.547,9.02,20.547
		c1.517,1.892,5.491,9.086,5.491,9.086l1.301,5.043l0.052-0.774c2.183,5.193-0.26,16.047-0.26,16.047
		c0.131,2.114-5.285,25.85-5.285,25.85l0.131,0.28c0.73,2.278,0.362,8.457,0.362,8.457c3.039,9.337-0.199,21.981-0.199,21.981
		c-0.084-8.181-5.102-20.512-5.102-20.512c1.441,4.062-1.345,23.205-1.345,23.205l-2.309,2.303l1.075-5.303
		c0.435-3.007-1.501-15.13-1.501-15.13s-0.148,5.509-0.085,7.567c0.063,2.059-5.088,8.7-4.701,8.086
		c0.388-0.614,1.865-7.353,2.251-8.522c0.386-1.17-2.814-9.451-2.814-9.451l-1.922,7.52l1.241,2.624l-4.961-3.517l3.626-14.154
		l6.517-8.801l3.399-18.379l0.683-14.917l0.308,0.263l-7.65-11.504l-2-1.77l-1.563,1.306l-6.129,38.085l-8.209,36.945l11.417,24.757
		l-3.003,28.478l9.545,3.079l8.851,4.619l1.19,10.214h2.08v12.505h-5.744v11h-85.039v-11h-6.783v-12.505h11.684l-0.444-3.036
		l3.411-10.707l12.813-11.198l-2.82-6.997l-0.165,0.019l-7.536-29.479l22.44-22.308l9.132-34.662v-23.807l-1.229,0.619
		 M350.736,402.411l-0.848,26.939l-5.653,19.066h-39.411l30.478-12.89l-5.448-12.881l-8.273-13.632l-0.068,0.038l-3.481-18.73
		l12.259-12.163l12.912,2.421L350.736,402.411z"/>
</g>
<g>
	<path fill="none" stroke="#010101" stroke-miterlimit="10" d="M438.612,292.809c-1.98,2.108-21.333,8.596-21.333,8.596
		l-2.185-7.483c0,0,1.04-3.744,0.921-4.477c0,0,1.975-6.722,1.082-8.153c0,0-1.501-6.652-5.366-8.318c0,0-3.699,1.4-4.258,3.032
		c0,0,2.317-1.217,3.515,0.392l2.981,3.773l-1.962,1.606l-2.881-2.923c0,0-4.204-2.469-5.88-2.451c0,0-5.336,1.099-5.923,1.425
		c0,0-4.554,2.391-4.977,4.313l3.428-1.357c0,0,2.132-0.403,2.653-1.368c0,0,4.725-0.676,5.447-0.5c0,0,3.569,2.789,4.17,2.743
		c0,0,1.43,1.969,1.462,2.286c0,0-1.328-0.222-2.73-0.837c0,0-4.285-1.13-5.108-1.825c0,0-3.893,0.176-5.135,1.06
		c0,0-4.199,3.365-5.689,3.714l-0.4,0.319c0,0,3.197-0.006,5.326-0.855l3.596-1.452c0,0,1.996,0.652,3.095,0.81
		c0,0,1.601,2.775,2.527,2.884l-5.182-0.052c0,0-3.689-0.442-5.069-0.271c-0.079,0.009-0.151,0.022-0.214,0.035
		c-1.157,0.259-1.499-0.706-3.568,3.191l0.478,1.896c0,0,1.206-2.592,1.479-2.794c0,0,2.169,0.212,2.574-0.013
		c0,0,1.515-0.337,1.99-0.264c0,0,2.371,1.664,3.782,1.603c0,0,0.643,1.759,3.363,1.544c0,0,1.158,1.043,1.061,2.252
		c0,0,1.379,3.374,2.397,5.984c0,0,1.806,5.311,2.601,8.816c0,0,1.349,6.826,13.513,0.053c0,0,14.729-6.233,20.228-8.688
		l-1.026,24.391l-6.132,35.662l-12.785,12.84l-10.331,9.341l1.712,29.448l0.252,8.21l-14.919,8.184l-5.631,9.725l-0.364,5.086
		h-0.823v12.504h6.784v11h85.039v-11h5.744v-8.757h1.099l-1.54-13.216l-8.851-4.617l-9.545-3.079l3.614-28.479l-12.028-24.758
		l8.209-36.944l6.129-38.085l1.562-1.306l1.819,1.558l7.831,11.716l-0.308-0.263l-2.954,14.24l-5.616,17.827l-7.542,7.941
		l-5.326,13.605l4.495,4.097l-0.912-2.757l2.825-7.23c0,0,2.166,8.61,1.64,9.725c-0.524,1.113-2.813,7.621-3.272,8.184
		c-0.46,0.562,5.464-5.401,5.651-7.452c0.188-2.051,1.009-7.501,1.009-7.501s0.44,12.269-0.356,15.201l-1.716,5.132l2.573-2.004
		c0,0,5.101-18.66,4.167-22.867c0,0,3.474,12.85,2.56,20.98c0,0,4.758-12.154,2.881-21.792c0,0,1.118-6.088,0.671-8.439
		l-0.095-0.293c0,0,8.271-22.898,8.4-25.012c0,0,3.748-10.475,2.215-15.895l-0.065,0.176l-1.385-5.369c0,0-3.976-7.194-5.491-9.086
		c0,0-7.827-18.931-9.02-20.548l0.005,0.003l-0.008-0.006c-0.022-0.03-0.048-0.066-0.064-0.083l-0.106-0.05l-3.724-2.895
		c0,0-2.846-5.602-11.513-4.172c0,0-0.95-1.832-2.623-2.424l1.029-4.199L467.625,253l-1.87-0.431c0,0-0.027-4.968-0.494-5.673
		c0,0-1.901-4.202-7.901-5.178l-6.114-0.448c0,0-2.982-0.067-5.403,1.36l-3.695,2.388c0,0-1.734,0.402-2.488,1.342l-1.599,1.234
		c0,0-0.016,2.247,0.042,2.852c0,0-2.088,1.699-2.268,2.278c0,0-1.327,0.104-1.759,1.973l-3.62,3.815l0.882,1.885l3.354-1.211
		l0.188,4.899c0.776-0.476,4.721-2.616,8.188-2.996c3.92-0.429,7.361,0.93,7.361,0.93l-7.034,6.101
		c-1.46-0.879-2.332-2.154-2.332-2.154c-0.752,1.108-0.162,3.357-0.162,3.357l-2.669,2.005l5.51,1.646l6.416-1.982l2.308,1.982
		l-4.646,4.446l-2.245,9.669L438.612,292.809"/>
	<polyline fill="none" stroke="#010101" stroke-miterlimit="10" points="456.369,381.398 462.48,398.682 461.48,425.62 
		456.05,443.941 400.507,443.941 435.231,437.487 432.677,423.738 428.523,408.647 429.154,386.378 445.088,372.291 
		452.399,373.984 456.369,381.398 	"/>
</g>
<g>
	<path fill="none" stroke="#000000" stroke-miterlimit="10" d="M95.986,504.703c0,0-2.052-5.113-6.67-7.386c0,0-2.951-0.378-4.49,0
		c0,0-3.041,0.946-5.305,6.438l2.867,0.947l1.002-3.102l2.078,3.102h5.808v-3.777l2.273,3.777H95.986z"/>
	<polygon fill="none" stroke="#010101" points="107.522,568.395 101.565,616.195 105.775,579.253 	"/>
	<polyline fill="none" stroke="#000000" stroke-miterlimit="10" points="123.27,553.381 123.118,553.135 113.466,540.631 
		113.466,539.861 111.904,541.166 107.523,568.395 	"/>
	<path fill="none" stroke="#000000" stroke-miterlimit="10" d="M101.565,616.195l10.417,24.759l-4.003,28.478l7.546,3.08
		l8.851,4.617l0.974,8.361h8.561v12.504h-5.744v11H43.128v-11h-6.784V685.49h5.149l-0.173-1.183l3.411-10.706l12.813-11.198
		l-2.821-6.997l-0.165,0.018l-7.458-29.413l-0.077-0.065l24.116-21.809l5.132-35.661l1.026-24.392l-0.003,0.107
		c0.225,1.162-12.989,17.596-12.989,17.596l-6.331,4.835c-3.44,1.038-8.613,3.209-8.613,3.209c-2.532,1.199-5.801,2.81-5.801,2.81
		c-1.214-0.014-2.173,1.216-2.173,1.216c0.405,2.698-1.305,3.462-1.305,3.462c0.16,1.404-1.334,3.887-1.334,3.887
		c-0.04,0.478,0.402,1.965,0.402,1.965c0.252,0.389,0.192,2.567,0.192,2.567c0.221,0.259,2.89,1.28,2.89,1.28l-1.858,0.608
		c-4.031-1.792-3.093-2.2-3.432-3.337c-0.017-0.061-0.035-0.133-0.049-0.211c-0.267-1.365-0.084-5.075-0.084-5.075l-0.31-5.173
		c-0.044,0.932-2.7,2.723-2.7,2.723c-0.081,1.105-0.592,3.143-0.592,3.143l1.699,3.486c0.995,2.064,1.225,5.253,1.225,5.253
		l-0.347-0.376c-0.451-1.463-4.102-5.417-4.102-5.417c-0.968-1.178-1.416-5.048-1.416-5.048c0.637-0.87,1.465-5.224,1.465-5.224
		c0.515-1.441,0.644-2.782,0.644-2.782c-0.314,0.055-2.179,1.617-2.179,1.617c0.088,0.597-2.445,4.352-2.445,4.352
		c-0.125,0.733,0.88,5.4,0.88,5.4c0.999,0.451,1.549,2.549,1.549,2.549l1.594,3.326c-1.948-0.287-4.65-4.663-4.65-4.663
		c-0.367-0.562-1.836-5.81-1.836-5.81c-0.135-1.671,2.036-6.037,2.036-6.037l2.714-3.078l-1.74-1.844l-3.554,3.237
		c-1.523,1.306-0.146,3.534-0.146,3.534c-1.668-0.443-3.322-4.036-3.322-4.036c1.392-3.972,7.923-5.934,7.923-5.934
		c1.365-0.991,8.208,0.51,8.208,0.51c0.723-0.169,4.531,0.606,4.531,0.606l14.929-8.215l4.533-9.146l7.815-15.838
		c-0.475-1.284,0-12.965,0-12.965v0.402l0.68-2.84c0,0-0.53-7.936,5.148-7.948c0,0,0.593-1.976,2.128-2.868l-1.79-3.936l-0.16-4.297
		l1.758-0.771c0,0-0.893-4.886-0.565-5.666c0,0,1.089-4.481,6.804-6.552l-0.618,0.416c0.607-1.329,9.098-0.392,9.409-0.334
		l5.925,1.573c5.716,2.071,6.805,6.552,6.805,6.552c0.328,0.779-0.566,5.666-0.566,5.666l1.758,0.771l-0.16,4.296l-1.789,3.937
		c1.534,0.891,2.128,2.866,2.128,2.866c8.667-1.429,8.137,2.28,8.137,2.28l3.855,2.998l-0.024-0.053
		c0.018,0.018,0.043,0.055,0.065,0.084l0.007,0.006l-0.004-0.002c0.695,0.943,3.637,7.751,5.977,13.281
		c1.676,3.963,3.042,7.266,3.042,7.266c0.185,0.23,0.407,0.543,0.653,0.908c1.774,2.635,4.837,8.178,4.837,8.178l1.514,5.869
		l8.812,22.65l8.337,7.102l6.729,12.969l-4.038,4.547l0.617-2.836l-3.571-6.892c0,0-1.246,8.79-0.607,9.843
		c0.64,1.053,3.602,7.281,4.118,7.793c0.516,0.51-6.003-4.795-6.406-6.814c-0.404-2.02-1.793-7.352-1.793-7.352
		s0.854,12.246,1.956,15.077l2.247,4.923l-2.771-1.722c0,0-7.038-18.018-6.551-22.301c0,0-2.102,13.146-0.336,21.133
		c0,0-6.012-11.585-5.161-21.366c0,0-1.754-5.938-1.557-8.322l0.064-0.301c-0.07-0.24-11.717-25.573-10.988-23.988"/>
	<polyline fill="none" stroke="#000000" stroke-miterlimit="10" points="61.566,629.85 78.5,611.763 85.812,614.457 88.208,619.943 
		97.742,641.78 93.894,668.719 88.791,685.932 53.214,685.932 79.308,674.895 73.859,662.015 65.586,648.381 65.519,648.42 
		62.038,629.69 	"/>
	<path fill="none" stroke="#000000" stroke-miterlimit="10" d="M219.633,510.163c0,0,2.052-5.113,6.67-7.387c0,0,2.951-0.378,4.49,0
		c0,0,3.041,0.947,5.305,6.439l-2.867,0.947l-1.002-3.103l-2.078,3.103h-5.808v-3.777l-2.273,3.777H219.633z"/>
	<polygon fill="none" stroke="#010101" points="208.097,573.854 214.054,621.655 209.844,584.711 	"/>
	<polyline fill="none" stroke="#000000" stroke-miterlimit="10" points="192.35,558.841 192.501,558.595 202.154,546.091 
		202.154,545.32 203.716,546.626 208.097,573.854 	"/>
	<path fill="none" stroke="#000000" stroke-miterlimit="10" d="M214.054,621.655l-10.417,24.759l4.003,28.477l-7.546,3.08
		l-8.851,4.618l-0.974,8.361h-8.561v12.504h5.744v11h85.039v-11h6.784V690.95h-5.149l0.173-1.184l-3.411-10.706l-12.813-11.197
		l2.821-6.997l0.165,0.017l7.458-29.413l0.077-0.064l-24.116-21.81l-5.132-35.661l-1.026-24.391l0.003,0.107
		c-0.225,1.162,12.989,17.596,12.989,17.596l6.331,4.835c3.44,1.038,8.613,3.209,8.613,3.209c2.532,1.199,5.801,2.809,5.801,2.809
		c1.214-0.013,2.173,1.217,2.173,1.217c-0.405,2.697,1.305,3.462,1.305,3.462c-0.16,1.403,1.334,3.887,1.334,3.887
		c0.04,0.477-0.401,1.965-0.401,1.965c-0.253,0.388-0.193,2.567-0.193,2.567c-0.221,0.259-2.89,1.279-2.89,1.279l1.858,0.609
		c4.031-1.792,3.093-2.201,3.432-3.337c0.017-0.061,0.035-0.133,0.049-0.211c0.267-1.365,0.084-5.075,0.084-5.075l0.31-5.173
		c0.044,0.931,2.7,2.722,2.7,2.722c0.081,1.106,0.592,3.144,0.592,3.144l-1.699,3.485c-0.995,2.065-1.225,5.253-1.225,5.253
		l0.347-0.376c0.451-1.463,4.102-5.417,4.102-5.417c0.968-1.177,1.416-5.048,1.416-5.048c-0.637-0.87-1.465-5.223-1.465-5.223
		c-0.515-1.442-0.644-2.782-0.644-2.782c0.314,0.054,2.179,1.617,2.179,1.617c-0.088,0.596,2.445,4.351,2.445,4.351
		c0.125,0.734-0.88,5.401-0.88,5.401c-0.999,0.451-1.549,2.549-1.549,2.549l-1.594,3.326c1.948-0.287,4.65-4.663,4.65-4.663
		c0.367-0.562,1.836-5.81,1.836-5.81c0.135-1.671-2.036-6.037-2.036-6.037l-2.714-3.078l1.74-1.844l3.554,3.236
		c1.523,1.307,0.146,3.535,0.146,3.535c1.668-0.443,3.322-4.037,3.322-4.037c-1.392-3.971-7.923-5.933-7.923-5.933
		c-1.365-0.991-8.208,0.51-8.208,0.51c-0.723-0.169-4.531,0.606-4.531,0.606l-14.929-8.215l-4.533-9.146l-7.815-15.838
		c0.475-1.284,0-12.965,0-12.965v0.401l-0.68-2.84c0,0,0.53-7.935-5.148-7.948c0,0-0.593-1.975-2.128-2.867l1.79-3.937l0.16-4.296
		l-1.758-0.771c0,0,0.893-4.887,0.565-5.666c0,0-1.089-4.481-6.804-6.553l0.618,0.416c-0.607-1.329-9.098-0.391-9.409-0.334
		l-5.925,1.574c-5.716,2.071-6.805,6.551-6.805,6.551c-0.327,0.78,0.566,5.666,0.566,5.666l-1.758,0.772l0.16,4.296l1.789,3.936
		c-1.534,0.892-2.128,2.867-2.128,2.867c-8.667-1.429-8.137,2.28-8.137,2.28l-3.855,2.998l0.024-0.053
		c-0.018,0.018-0.043,0.055-0.065,0.084l-0.007,0.006l0.004-0.002c-0.695,0.942-3.637,7.751-5.977,13.28
		c-1.676,3.964-3.042,7.267-3.042,7.267c-0.185,0.229-0.407,0.543-0.653,0.908c-1.774,2.635-4.837,8.178-4.837,8.178l-1.514,5.869
		l-8.812,22.649l-8.337,7.103l-6.729,12.969l4.038,4.547l-0.617-2.836l3.571-6.892c0,0,1.246,8.79,0.607,9.843
		c-0.64,1.052-3.602,7.281-4.118,7.793c-0.516,0.51,6.003-4.795,6.406-6.815c0.404-2.019,1.793-7.351,1.793-7.351
		s-0.854,12.246-1.956,15.077l-2.247,4.923l2.771-1.722c0,0,7.038-18.019,6.551-22.302c0,0,2.102,13.146,0.336,21.134
		c0,0,6.012-11.585,5.161-21.366c0,0,1.754-5.938,1.557-8.322l-0.064-0.301c0.07-0.24,11.717-25.573,10.988-23.988"/>
	<polyline fill="none" stroke="#000000" stroke-miterlimit="10" points="254.053,635.31 237.12,617.223 229.808,619.916 
		227.412,625.403 217.878,647.24 221.726,674.179 226.829,691.392 262.406,691.392 236.312,680.354 241.76,667.475 250.033,653.84 
		250.101,653.879 253.582,635.15 	"/>
</g>
</svg>
