<?xml version="1.0" encoding="utf-8"?>
<!-- Generator: Adobe Illustrator 15.0.0, SVG Export Plug-In . SVG Version: 6.00 Build 0)  -->
<!DOCTYPE svg PUBLIC "-//W3C//DTD SVG 1.1//EN" "http://www.w3.org/Graphics/SVG/1.1/DTD/svg11.dtd">
<svg version="1.1" xmlns="http://www.w3.org/2000/svg" xmlns:xlink="http://www.w3.org/1999/xlink" x="0px" y="0px"
	 width="595.28px" height="841.89px" viewBox="0 0 595.28 841.89" enable-background="new 0 0 595.28 841.89" xml:space="preserve">
<g id="_x31_">
	<g>
		<path fill="none" stroke="#010101" d="M151.338,359.491c-0.421-5.727-5.741-35.486-5.741-35.486l1.604-48.772
			c-1.386-12.131-3.901-23.037-6.421-27.165c-2.256-3.701-16.74-16.513-16.74-16.513c0.628-0.384,2.517-3.713,2.517-3.713
			c2.14-1.92,3.902-8.959,3.902-8.959c-1.385,2.176-3.147,1.278-3.147,1.278c0.126-1.536-0.503-7.681-0.503-7.681
			c-5.036-15.359-20.393-7.167-20.393-7.167c-4.028,1.28-5.412,11.521-5.412,11.521c-2.644,0.896-6.295-1.665-6.295-1.665
			c-0.756,3.072,4.028,8.449,4.028,8.449s0.503,8.448-12.337,11.264c0,0-7.553,2.049-9.566,2.305c0,0-5.539,3.841-5.287,11.776
			c0,0,0.234,17.152-0.009,20.993l3.331,55.676l-1.297,33.859H63.58v8.505h5.5v8.505h85.039v-8.505h5.203v-8.505H151.338z"/>
	</g>
</g>
<g id="_x32_">
	<g>
		<path fill="none" stroke="#000000" stroke-miterlimit="10" d="M249.045,319.246"/>
		<path fill="none" stroke="#000000" stroke-miterlimit="10" d="M263.302,310.222c0,0-1.889-0.96-2.645,0.479"/>
		<path fill="none" stroke="#000000" stroke-miterlimit="10" d="M217.89,215.274h8.308c0,0-0.66,2.208-1.228,2.688
			c0,0-1.227,5.281-4.248,6.241c0,0-2.136-4.032-2.266-6.049L217.89,215.274z"/>
		<path fill="none" stroke="#000000" stroke-miterlimit="10" d="M205.441,214.909h8.308c0,0-0.659,2.209-1.227,2.688
			c0,0-1.228,5.28-4.249,6.241c0,0-2.135-4.033-2.266-6.049L205.441,214.909z"/>
		<path fill="none" stroke="#000000" stroke-miterlimit="10" d="M206.75,233.131c0,0,2.808-5.417,6.999-5.473
			c4.801-0.062,5.368,3.073,7.257,6.337L206.75,233.131z"/>
		<path fill="none" stroke="#010101" d="M252.365,359.619c0.284-2.496-5.758-36.289-5.758-36.289
			c-0.379-5.184-18.128-52.417-18.033-53.568c0.094-1.153,1.699-0.864,1.699-0.864c0.136,1.097,4.705,13.257,9.253,22.271
			c4.997,9.912,6.231,16.705,6.231,16.705s0.793,4.453,2.051,5.731l1.063,1.281c0,0-0.577-5.47,0.377-7.407
			c3.436-6.985,1.707,17.136,1.707,17.136c1.008-2.816,3.159-15.138,3.159-15.138c1.019,3.936,0.114,19.105,0.114,19.105
			c1.133-1.536,4.908-18.622,4.908-18.622c1.89,5.314-1.383,16.446-1.383,16.446c3.776-2.049,6.419-16.77,5.916-19.201
			c-0.505-2.432-6.898-9.124-6.898-9.124c-4.279-4.608-8.561-23.523-8.561-23.523c-1.385-12.133-3.902-23.039-6.421-27.167
			c-2.257-3.701-16.74-16.512-16.74-16.512c0.629-0.384,2.517-3.713,2.517-3.713c2.14-1.92,3.902-8.96,3.902-8.96
			c-1.385,2.177-3.147,1.28-3.147,1.28c0.126-1.537-0.504-7.682-0.504-7.682c-5.034-15.359-20.392-7.167-20.392-7.167
			c-4.027,1.28-5.413,11.52-5.413,11.52c-2.643,0.897-6.295-1.663-6.295-1.663c-0.755,3.072,4.028,8.448,4.028,8.448
			s0.505,8.447-12.336,11.265c0,0-7.554,2.048-9.566,2.304c0,0-5.54,3.839-5.287,11.775c0,0,0.234,17.153-0.009,20.994
			c0,0-0.244,22.271-1.502,27.392c0,0-1.762,17.408-2.77,21.505c0,0-4.115,12.197-3.172,17.957
			c0.944,5.76,3.966,12.097,3.966,12.097l1.321,1.536c0,0-1.32-15.92-0.943-18.625l2.454-6.527l1.322,14.784l2.076,8.063
			l1.38-11.513l-0.812-14.376l1.321-1.376l2.644,8.256l1.699-4.031c0,0,1.119-10.182-1.936-12.103c0,0,2.526-8.861,4.037-14.43
			c0,0,5.854-28.002,5.664-29.154c0,0,3.777-2.335,4.344,2.272c0,0-7.364,37.825-8.12,39.745l-0.88,7.102
			c0,1.725-5.035,22.596-5.918,25.667c-0.436,1.523-2.393,9.244-4.254,16.644h-10.705v8.505h5.5v8.505h85.039v-8.505h5.203v-8.505
			h-7.101C252.381,359.82,252.365,359.619,252.365,359.619z"/>
	</g>
	<g>
		<path fill="none" stroke="#000000" stroke-miterlimit="10" d="M514.971,691.085"/>
		<path fill="none" stroke="#000000" stroke-miterlimit="10" d="M529.228,682.061c0,0-1.889-0.96-2.645,0.479"/>
		<path fill="none" stroke="#000000" stroke-miterlimit="10" d="M483.815,587.113h8.308c0,0-0.66,2.208-1.228,2.688
			c0,0-1.227,5.281-4.248,6.241c0,0-2.136-4.032-2.266-6.049L483.815,587.113z"/>
		<path fill="none" stroke="#000000" stroke-miterlimit="10" d="M471.367,586.748h8.308c0,0-0.659,2.209-1.227,2.688
			c0,0-1.228,5.28-4.249,6.241c0,0-2.135-4.033-2.266-6.049L471.367,586.748z"/>
		<path fill="none" stroke="#000000" stroke-miterlimit="10" d="M472.676,604.97c0,0,2.808-5.417,6.999-5.473
			c4.801-0.062,5.368,3.073,7.257,6.337L472.676,604.97z"/>
		<path fill="none" stroke="#010101" d="M518.291,731.458c0.284-2.496-5.758-36.289-5.758-36.289
			c-0.379-5.184-18.128-52.417-18.033-53.568c0.094-1.153,1.699-0.864,1.699-0.864c0.136,1.097,4.705,13.257,9.253,22.271
			c4.997,9.912,6.231,16.705,6.231,16.705s0.793,4.453,2.051,5.731l1.063,1.281c0,0-0.577-5.47,0.377-7.407
			c3.436-6.985,1.707,17.136,1.707,17.136c1.008-2.816,3.159-15.138,3.159-15.138c1.019,3.936,0.114,19.105,0.114,19.105
			c1.133-1.536,4.908-18.622,4.908-18.622c1.89,5.314-1.383,16.446-1.383,16.446c3.776-2.049,6.419-16.77,5.916-19.201
			c-0.505-2.432-6.898-9.124-6.898-9.124c-4.279-4.608-8.561-23.523-8.561-23.523c-1.385-12.133-3.902-23.039-6.421-27.167
			c-2.257-3.701-16.74-16.512-16.74-16.512c0.629-0.384,2.517-3.713,2.517-3.713c2.14-1.92,3.902-8.96,3.902-8.96
			c-1.385,2.177-3.147,1.28-3.147,1.28c0.126-1.537-0.504-7.682-0.504-7.682c-5.034-15.359-20.392-7.167-20.392-7.167
			c-4.027,1.28-5.413,11.52-5.413,11.52c-2.643,0.897-6.295-1.663-6.295-1.663c-0.755,3.072,4.028,8.448,4.028,8.448
			s0.505,8.447-12.336,11.265c0,0-7.554,2.048-9.566,2.304c0,0-5.54,3.839-5.287,11.775c0,0,0.234,17.153-0.009,20.994
			c0,0-0.244,22.271-1.502,27.392c0,0-1.762,17.408-2.77,21.505c0,0-4.115,12.197-3.172,17.957
			c0.944,5.76,3.966,12.097,3.966,12.097l1.321,1.536c0,0-1.32-15.92-0.943-18.625l2.454-6.527l1.322,14.784l2.076,8.063
			l1.38-11.513l-0.812-14.376l1.321-1.376l2.644,8.256l1.699-4.031c0,0,1.119-10.182-1.936-12.103c0,0,2.526-8.861,4.037-14.43
			c0,0,5.854-28.002,5.664-29.154c0,0,3.777-2.335,4.344,2.272c0,0-7.364,37.825-8.12,39.745l-0.88,7.102
			c0,1.725-5.035,22.596-5.918,25.667c-0.436,1.523-2.393,9.244-4.254,16.644h-10.705v8.505h5.5v8.505h85.039v-8.505h5.203v-8.505
			h-7.101C518.307,731.659,518.291,731.458,518.291,731.458z"/>
	</g>
</g>
<g id="_x33_">
	<g>
		<path fill="none" stroke="#000000" stroke-miterlimit="10" d="M285.248,377.546"/>
		<path fill="none" stroke="#000000" stroke-miterlimit="10" d="M283.832,321.164"/>
		<path fill="none" stroke="#000000" stroke-miterlimit="10" d="M323.483,214.917h8.308c0,0-0.66,2.207-1.228,2.688
			c0,0-1.227,5.279-4.248,6.241c0,0-2.136-4.033-2.266-6.049L323.483,214.917z"/>
		<path fill="none" stroke="#000000" stroke-miterlimit="10" d="M311.035,214.552h8.308c0,0-0.659,2.208-1.227,2.688
			c0,0-1.228,5.28-4.249,6.239c0,0-2.135-4.031-2.266-6.048L311.035,214.552z"/>
		<path fill="none" stroke="#000000" stroke-miterlimit="10" d="M312.344,232.773c0,0,2.808-5.417,6.999-5.472
			c4.801-0.063,5.368,3.072,7.257,6.337L312.344,232.773z"/>
		<path fill="none" stroke="#010101" d="M376.92,303.432c-0.943-3.265-7.364-6.145-7.364-6.145c-1.227-0.96-5.508,0.385-5.508,0.385
			c-4.278-4.609-10.069-23.525-10.069-23.525c-1.385-12.132-3.902-23.037-6.421-27.165c-2.257-3.7-16.74-16.513-16.74-16.513
			c0.629-0.384,2.517-3.713,2.517-3.713c2.14-1.92,3.902-8.959,3.902-8.959c-1.385,2.176-3.147,1.278-3.147,1.278
			c0.126-1.534-0.504-7.679-0.504-7.679c-5.034-15.361-20.392-7.169-20.392-7.169c-4.027,1.281-5.413,11.521-5.413,11.521
			c-2.644,0.896-6.294-1.664-6.294-1.664c-0.756,3.072,4.027,8.448,4.027,8.448s0.505,8.448-12.336,11.265
			c0,0-7.553,2.048-9.566,2.304c0,0-5.539,3.84-5.287,11.776c0,0,0.234,17.153-0.008,20.994c0,0-0.244,22.271-1.503,27.393
			c0,0-4.783,17.407-5.79,21.503c0,0-3.431,4.77-4.375,7.554c0,0-0.472,5.952,0.662,8.257c1.132,2.304,1.51,9.216,4.342,12.671
			c0,0-3.021-9.407-1.133-16.319l0.377-2.881c0,0,0.567,8.063,13.407,8.642c0,0-10.763-6.146-9.819-11.905
			c0,0,6.42,6.24,10.984,6.815c1.058,0.134-3.221-2.928-4.848-5.376c-1.795-2.703-2.875-6.849-2.36-7.104
			c1.024-0.51,2.9-0.344,3.871-0.288c0,0,4.06,2.496,4.06,4.607c0,0-0.794-8.61-3.848-10.529c0,0,5.547-8.863,7.059-14.432
			c0,0,5.853-28.001,5.664-29.152c0,0,3.776-2.336,4.343,2.271c0,0-7.364,37.826-8.12,39.746l-0.881,7.101
			c0,1.726-5.034,22.597-5.916,25.668c-0.453,1.58-2.54,9.824-4.461,17.464h-10.499v8.505h5.5v8.505h85.039v-8.505h5.203v-8.505
			h-7.226c0.052-0.851,0.083-1.367,0.083-1.367c0.284-2.496-5.758-36.289-5.758-36.289c-0.379-5.184-18.128-52.417-18.033-53.57
			c0.094-1.151,1.699-0.863,1.699-0.863c0.136,1.098,4.705,13.258,9.253,22.272c4.997,9.912,10.007,16.705,10.007,16.705
			c2.171,2.304,8.309,1.535,8.309,1.535c0,2.209-3.305,6.241-3.305,6.241c-2.077,2.784-5.665,3.646-5.665,3.646
			c1.416,1.153,4.154,0.865,4.154,0.865c3.304-0.672,7.458-9.408,7.458-9.408c0.756-1.44,2.645-0.48,2.645-0.48
			c-0.944,5.185-11.425,16.033-11.425,16.033l3.399-0.576c5.664-2.784,11.141-14.4,11.801-15.073
			c0.661-0.671,1.604-0.096,1.604-0.096c0.096,6.433-9.062,14.497-9.062,14.497l2.644-0.48c4.154-1.344,8.309-8.063,8.309-8.063
			C379.187,312.072,376.92,303.432,376.92,303.432z"/>
	</g>
	<g>
		<path fill="none" stroke="#000000" stroke-miterlimit="10" d="M329.732,749.385"/>
		<path fill="none" stroke="#000000" stroke-miterlimit="10" d="M328.316,693.002"/>
		<path fill="none" stroke="#000000" stroke-miterlimit="10" d="M367.968,586.756h8.308c0,0-0.66,2.207-1.228,2.688
			c0,0-1.227,5.279-4.248,6.24c0,0-2.136-4.033-2.266-6.049L367.968,586.756z"/>
		<path fill="none" stroke="#000000" stroke-miterlimit="10" d="M355.52,586.391h8.308c0,0-0.659,2.207-1.227,2.688
			c0,0-1.228,5.281-4.249,6.24c0,0-2.135-4.031-2.266-6.049L355.52,586.391z"/>
		<path fill="none" stroke="#000000" stroke-miterlimit="10" d="M356.828,604.611c0,0,2.808-5.418,6.999-5.473
			c4.801-0.062,5.368,3.072,7.257,6.338L356.828,604.611z"/>
		<path fill="none" stroke="#010101" d="M421.404,675.27c-0.943-3.264-7.364-6.145-7.364-6.145
			c-1.227-0.959-5.508,0.385-5.508,0.385c-4.278-4.609-10.069-23.525-10.069-23.525c-1.385-12.131-3.902-23.037-6.421-27.164
			c-2.257-3.701-16.74-16.514-16.74-16.514c0.629-0.383,2.517-3.713,2.517-3.713c2.14-1.92,3.902-8.959,3.902-8.959
			c-1.385,2.176-3.147,1.279-3.147,1.279c0.126-1.535-0.504-7.68-0.504-7.68c-5.034-15.361-20.392-7.168-20.392-7.168
			c-4.027,1.281-5.413,11.52-5.413,11.52c-2.644,0.896-6.294-1.664-6.294-1.664c-0.756,3.072,4.027,8.449,4.027,8.449
			s0.505,8.447-12.336,11.264c0,0-7.553,2.049-9.566,2.305c0,0-5.539,3.84-5.287,11.775c0,0,0.234,17.154-0.008,20.994
			c0,0-0.244,22.271-1.503,27.393c0,0-4.783,17.408-5.79,21.504c0,0-3.431,4.77-4.375,7.553c0,0-0.472,5.953,0.662,8.258
			c1.132,2.303,1.51,9.215,4.342,12.67c0,0-3.021-9.406-1.133-16.318l0.377-2.881c0,0,0.567,8.062,13.407,8.641
			c0,0-10.763-6.145-9.819-11.904c0,0,6.42,6.24,10.984,6.814c1.058,0.135-3.221-2.928-4.848-5.375
			c-1.795-2.703-2.875-6.85-2.36-7.104c1.024-0.51,2.9-0.344,3.871-0.289c0,0,4.06,2.496,4.06,4.607c0,0-0.794-8.609-3.848-10.529
			c0,0,5.547-8.863,7.059-14.432c0,0,5.853-28,5.664-29.152c0,0,3.776-2.336,4.343,2.271c0,0-7.364,37.826-8.12,39.746l-0.881,7.102
			c0,1.725-5.034,22.596-5.916,25.668c-0.453,1.58-2.54,9.824-4.461,17.463h-10.499v8.506h5.5v8.504h85.039v-8.504h5.203v-8.506
			h-7.226c0.052-0.85,0.083-1.367,0.083-1.367c0.284-2.496-5.758-36.289-5.758-36.289c-0.379-5.184-18.128-52.416-18.033-53.57
			c0.094-1.15,1.699-0.863,1.699-0.863c0.136,1.098,4.705,13.258,9.253,22.273c4.997,9.912,10.007,16.705,10.007,16.705
			c2.171,2.303,8.309,1.535,8.309,1.535c0,2.209-3.305,6.24-3.305,6.24c-2.077,2.785-5.665,3.646-5.665,3.646
			c1.416,1.154,4.154,0.865,4.154,0.865c3.304-0.672,7.458-9.408,7.458-9.408c0.756-1.439,2.645-0.48,2.645-0.48
			c-0.944,5.186-11.425,16.033-11.425,16.033l3.399-0.576c5.664-2.783,11.141-14.4,11.801-15.072
			c0.661-0.672,1.604-0.096,1.604-0.096c0.096,6.432-9.062,14.496-9.062,14.496l2.644-0.48c4.154-1.344,8.309-8.062,8.309-8.062
			C423.671,683.91,421.404,675.27,421.404,675.27z"/>
	</g>
</g>
<g id="_x34_">
	<g>
		<path fill="none" stroke="#000000" stroke-miterlimit="10" d="M399.391,311.622"/>
		<path fill="none" stroke="#000000" stroke-miterlimit="10" d="M444.967,207.338h8.308c0,0-0.66,2.207-1.228,2.688
			c0,0-1.227,5.28-4.248,6.241c0,0-2.136-4.032-2.266-6.049L444.967,207.338z"/>
		<path fill="none" stroke="#000000" stroke-miterlimit="10" d="M432.519,206.974h8.308c0,0-0.659,2.208-1.227,2.688
			c0,0-1.228,5.28-4.249,6.24c0,0-2.135-4.032-2.266-6.048L432.519,206.974z"/>
		<path fill="none" stroke="#000000" stroke-miterlimit="10" d="M433.827,225.193c0,0,2.808-5.417,6.999-5.471
			c4.801-0.063,5.368,3.072,7.257,6.336L433.827,225.193z"/>
		<g>
			<path fill="none" stroke="#010101" d="M406.799,313.514c0.546,0.828,0.877,1.348,0.877,1.348
				C407.676,314.477,407.341,314.013,406.799,313.514z"/>
			<path fill="none" stroke="#010101" d="M497.971,286.674c-1.146-2.945-4.471-4.865-7.592-7.425
				c-0.605-0.496-4.771-2.009-5.878-2.944c-4.608-3.89-10.448-13.308-10.448-13.308c-1.385-12.132-6.576-24.134-9.096-28.262
				c-2.257-3.701-12.656-11.846-12.656-11.846c0.629-0.384,2.517-3.712,2.517-3.712c2.14-1.921,3.902-8.96,3.902-8.96
				c-1.385,2.176-3.147,1.279-3.147,1.279c0.126-1.535-0.504-7.68-0.504-7.68c-5.034-15.361-20.392-7.168-20.392-7.168
				c-4.027,1.28-5.413,11.52-5.413,11.52c-2.643,0.897-6.294-1.664-6.294-1.664c-0.755,3.073,4.027,8.448,4.027,8.448
				s0.505,8.448-12.335,11.266c0,0-7.554,2.048-9.567,2.304c0,0-5.539,3.839-5.287,11.775c0,0-0.175,14.63-0.417,18.47
				c0,0-3.888,20.992-5.146,26.113c0,0-6.655,19.248-7.662,23.345c0,0-3.432,4.769-4.375,7.553c0,0-0.473,5.951,0.661,8.256
				c1.133,2.305,1.511,9.217,4.343,12.672c0,0-3.021-9.407-1.133-16.319l0.377-2.88c0,0,0.567,8.064,13.407,8.64
				c0,0-10.763-6.144-9.819-11.904c0,0,12.345,8.203,16.909,8.779c1.058,0.134-9.146-4.892-10.772-7.339
				c-1.795-2.703-2.875-6.849-2.36-7.105c1.023-0.51,2.9-0.343,3.871-0.286c0,0,6.675,2.98,9.108,5.223
				c-1.92-2.912-6.52-9.65-8.896-11.146c0,0,7.923-11.92,9.434-17.487c0,0,9.402-22.981,9.214-24.134c0,0,3.776-2.336,4.343,2.272
				c0,0-7.363,37.825-8.119,39.746l-0.881,7.101c0,1.726-5.035,22.596-5.917,25.667c-0.589,2.053-4.825,15.35-7.576,23.958h-7.599
				v8.505h5.5v8.505h85.039v-8.505h5.203v-8.505h-7.984h-2.271c0.021-4.327-0.166-10.353-0.166-10.353
				c0.283-2.496-3.831-33.28-3.831-33.28c-0.378-5.185-16.562-52.935-16.467-54.087c0.094-1.152,1.699-0.864,1.699-0.864
				c0.136,1.097,5.625,5.998,10.172,15.012l10.764,8.066l0.378,7.103l4.913,5.722l0.272-6.718l2.084-3.419l2.422,0.001l-0.794,7.613
				l-3.022,7.173l7.217-6.979l0.755-6.528l2.391,7.296l-6.018,8.474l9.347-7.869C499.219,293.201,498.802,288.81,497.971,286.674z"
				/>
		</g>
	</g>
	<g>
		<path fill="none" stroke="#000000" stroke-miterlimit="10" d="M207.959,694.853"/>
		<path fill="none" stroke="#000000" stroke-miterlimit="10" d="M253.535,590.568h8.308c0,0-0.66,2.207-1.228,2.688
			c0,0-1.227,5.28-4.248,6.241c0,0-2.136-4.032-2.266-6.049L253.535,590.568z"/>
		<path fill="none" stroke="#000000" stroke-miterlimit="10" d="M241.087,590.204h8.308c0,0-0.659,2.208-1.227,2.688
			c0,0-1.228,5.28-4.249,6.24c0,0-2.135-4.032-2.266-6.048L241.087,590.204z"/>
		<path fill="none" stroke="#000000" stroke-miterlimit="10" d="M242.396,608.424c0,0,2.808-5.417,6.999-5.471
			c4.801-0.063,5.368,3.072,7.257,6.336L242.396,608.424z"/>
		<g>
			<path fill="none" stroke="#010101" d="M215.367,696.744c0.546,0.828,0.877,1.348,0.877,1.348
				C216.244,697.707,215.909,697.243,215.367,696.744z"/>
			<path fill="none" stroke="#010101" d="M306.539,669.904c-1.146-2.945-4.471-4.865-7.592-7.425
				c-0.605-0.496-4.771-2.009-5.878-2.944c-4.608-3.89-10.448-13.308-10.448-13.308c-1.385-12.132-6.576-24.134-9.096-28.262
				c-2.257-3.701-12.656-11.846-12.656-11.846c0.629-0.384,2.517-3.712,2.517-3.712c2.14-1.921,3.902-8.96,3.902-8.96
				c-1.385,2.176-3.147,1.279-3.147,1.279c0.126-1.535-0.504-7.68-0.504-7.68c-5.034-15.361-20.392-7.168-20.392-7.168
				c-4.027,1.28-5.413,11.52-5.413,11.52c-2.643,0.897-6.294-1.664-6.294-1.664c-0.755,3.073,4.027,8.448,4.027,8.448
				s0.505,8.448-12.335,11.266c0,0-7.554,2.048-9.567,2.304c0,0-5.539,3.839-5.287,11.775c0,0-0.175,14.63-0.417,18.47
				c0,0-3.888,20.992-5.146,26.113c0,0-6.655,19.248-7.662,23.345c0,0-3.432,4.769-4.375,7.553c0,0-0.473,5.951,0.661,8.256
				c1.133,2.305,1.511,9.217,4.343,12.672c0,0-3.021-9.407-1.133-16.319l0.377-2.88c0,0,0.567,8.064,13.407,8.64
				c0,0-10.763-6.144-9.819-11.904c0,0,12.345,8.203,16.909,8.779c1.058,0.134-9.146-4.892-10.772-7.339
				c-1.795-2.703-2.875-6.849-2.36-7.105c1.023-0.51,2.9-0.343,3.871-0.286c0,0,6.675,2.98,9.108,5.223
				c-1.92-2.912-6.52-9.65-8.896-11.146c0,0,7.923-11.92,9.434-17.487c0,0,9.402-22.981,9.214-24.134c0,0,3.776-2.336,4.343,2.272
				c0,0-7.363,37.825-8.119,39.746l-0.881,7.101c0,1.726-5.035,22.596-5.917,25.667c-0.589,2.053-4.825,15.35-7.576,23.958h-7.599
				v8.505h5.5v8.505h85.039v-8.505h5.203v-8.505h-7.984h-2.271c0.021-4.327-0.166-10.353-0.166-10.353
				c0.283-2.496-3.831-33.28-3.831-33.28c-0.378-5.185-16.562-52.935-16.467-54.087c0.094-1.152,1.699-0.864,1.699-0.864
				c0.136,1.097,5.625,5.998,10.172,15.012l10.764,8.066l0.378,7.103l4.913,5.722l0.272-6.718l2.084-3.419l2.422,0.001l-0.794,7.613
				l-3.022,7.173l7.217-6.979l0.755-6.528l2.391,7.296l-6.018,8.474l9.347-7.869C307.787,676.432,307.37,672.04,306.539,669.904z"/>
		</g>
	</g>
</g>
<g id="_x35_">
	<g>
		<path fill="none" stroke="#000000" stroke-miterlimit="10" d="M118.025,394.455h8.308c0,0-0.66,2.209-1.228,2.688
			c0,0-1.228,5.28-4.248,6.24c0,0-2.136-4.032-2.267-6.049L118.025,394.455z"/>
		<path fill="none" stroke="#000000" stroke-miterlimit="10" d="M105.577,394.091h8.309c0,0-0.662,2.208-1.228,2.688
			c0,0-1.228,5.28-4.249,6.24c0,0-2.135-4.031-2.266-6.048L105.577,394.091z"/>
		<path fill="none" stroke="#000000" stroke-miterlimit="10" d="M106.886,412.312c0,0,2.807-5.417,7-5.473
			c4.8-0.062,5.367,3.072,7.255,6.337L106.886,412.312z"/>
		<path fill="none" stroke="#000000" stroke-miterlimit="10" d="M79.345,479.542c-4.656,3.31-19.53,7.351-19.53,7.351
			c1.147,3.46-0.309,15.961-0.309,15.961c1.325-1.627-3.569-11.536-3.569-11.536c-0.712-0.672-2.053-2.018-3.162-2.289
			c-0.556-0.137-2.325,3.756-2.638,7.003c-0.283,2.939,4.425,13.428,3.693,12.64c-3.154-3.404-7.517-17.729-7.517-17.729
			c-4.34,3.824,0.095,15.537,0.095,15.537c-9.527-8.772-4.906-15.351-4.906-15.351l-2.098,1.975
			c-5.79,4.099-9.364,13.304-9.364,13.304c-0.014-4.497,4.031-10.067,4.604-12.577c0.572-2.508,4.669-6.786,4.669-6.786
			c2.473-1.533,8.106-2.98,8.106-2.98c3.345-2.502,20.544-13.012,20.544-13.012"/>
		<path fill="none" stroke="#000000" stroke-miterlimit="10" d="M55.157,494.986"/>
		<path fill="none" stroke="#000000" stroke-miterlimit="10" d="M142.097,461.57l11.501,4.66l3.088,6.383l6.727,3.303l-2.341-6.287
			l0.597-3.979l2.23-0.965l2.207,7.319l-0.013,7.804l3.944-9.298l-1.824-6.307l5.014,5.758l-2.265,10.193l5.56-10.967
			c-0.272-2.765-2.351-6.637-3.939-8.271c-2.189-2.251-5.987-2.691-9.848-3.8c-0.749-0.215-5.164,0.057-6.543-0.361
			c-5.739-1.741-8.133-9.483-8.133-9.483s-10.464-23.082-10.043-25.419c0.771-4.284-12.657-11.847-12.657-11.847
			c0.63-0.384,2.518-3.713,2.518-3.713c2.139-1.92,3.902-8.96,3.902-8.96c-1.386,2.176-3.146,1.28-3.146,1.28
			c0.126-1.536-0.505-7.681-0.505-7.681c-5.034-15.36-20.392-7.168-20.392-7.168c-4.029,1.28-5.413,11.521-5.413,11.521
			c-2.644,0.896-6.294-1.665-6.294-1.665c-0.755,3.073,4.028,8.449,4.028,8.449s0.503,8.448-12.336,11.264
			c0,0-7.553,2.049-9.566,2.305c0,0-5.539,3.839-5.287,11.775c0,0-0.175,14.63-0.418,18.47c0,0-3.223,20.047-4.481,25.166"/>
		<g>
			<path fill="none" stroke="#010101" d="M90.025,476.479c2.342-11.553,5.222-26.343,5.222-26.343
				c-0.566-4.608-4.343-2.272-4.343-2.272c0.189,1.151-11.559,31.678-11.559,31.678"/>
			<path fill="none" stroke="#010101" d="M142.264,461.501c-4.546-9.015-11.546-12.378-11.682-13.477c0,0-1.605-0.287-1.7,0.865
				c-0.033,0.413,2.025,6.817,4.698,15.102"/>
			<path fill="none" stroke="#010101" d="M90.025,476.479c-1.404,6.923-2.614,12.683-2.897,13.402l-0.881,7.102
				c0,1.726-5.035,22.596-5.917,25.668c-0.505,1.759-3.692,11.785-6.324,20.036H62.952v8.505h5.5v8.505h85.039v-8.505h5.203v-8.505
				h-7.984h-1.387c-0.047-3.343-0.143-6.431-0.143-6.431c0.283-2.496-3.832-33.281-3.832-33.281
				c-0.242-3.325-6.987-24.164-11.769-38.984"/>
		</g>
	</g>
	<g>
		<path fill="none" stroke="#000000" stroke-miterlimit="10" d="M135.884,592.118h8.308c0,0-0.66,2.209-1.228,2.688
			c0,0-1.228,5.28-4.248,6.24c0,0-2.136-4.032-2.267-6.049L135.884,592.118z"/>
		<path fill="none" stroke="#000000" stroke-miterlimit="10" d="M123.436,591.754h8.309c0,0-0.662,2.208-1.228,2.688
			c0,0-1.228,5.28-4.249,6.24c0,0-2.135-4.031-2.266-6.048L123.436,591.754z"/>
		<path fill="none" stroke="#000000" stroke-miterlimit="10" d="M124.744,609.975c0,0,2.807-5.417,7-5.473
			c4.8-0.062,5.367,3.072,7.255,6.337L124.744,609.975z"/>
		<path fill="none" stroke="#000000" stroke-miterlimit="10" d="M97.204,677.205c-4.656,3.31-19.53,7.351-19.53,7.351
			c1.147,3.46-0.309,15.961-0.309,15.961c1.325-1.627-3.569-11.536-3.569-11.536c-0.712-0.672-2.053-2.018-3.162-2.289
			c-0.556-0.137-2.325,3.756-2.638,7.003c-0.283,2.939,4.425,13.428,3.693,12.64c-3.154-3.404-7.517-17.729-7.517-17.729
			c-4.34,3.824,0.095,15.537,0.095,15.537c-9.527-8.772-4.906-15.351-4.906-15.351l-2.098,1.975
			c-5.79,4.099-9.364,13.304-9.364,13.304c-0.014-4.497,4.031-10.067,4.604-12.577c0.572-2.508,4.669-6.786,4.669-6.786
			c2.473-1.533,8.106-2.98,8.106-2.98c3.345-2.502,20.544-13.012,20.544-13.012"/>
		<path fill="none" stroke="#000000" stroke-miterlimit="10" d="M73.016,692.649"/>
		<path fill="none" stroke="#000000" stroke-miterlimit="10" d="M159.955,659.233l11.501,4.66l3.088,6.383l6.727,3.303l-2.341-6.287
			l0.597-3.979l2.23-0.965l2.207,7.319l-0.013,7.804l3.944-9.298l-1.824-6.307l5.014,5.758l-2.265,10.193l5.56-10.967
			c-0.272-2.765-2.351-6.637-3.939-8.271c-2.189-2.251-5.987-2.691-9.848-3.8c-0.749-0.215-5.164,0.057-6.543-0.361
			c-5.739-1.741-8.133-9.483-8.133-9.483s-10.464-23.082-10.043-25.419c0.771-4.284-12.657-11.847-12.657-11.847
			c0.63-0.384,2.518-3.713,2.518-3.713c2.139-1.92,3.902-8.96,3.902-8.96c-1.386,2.176-3.146,1.28-3.146,1.28
			c0.126-1.536-0.505-7.681-0.505-7.681c-5.034-15.36-20.392-7.168-20.392-7.168c-4.029,1.28-5.413,11.521-5.413,11.521
			c-2.644,0.896-6.295-1.665-6.295-1.665c-0.755,3.073,4.028,8.449,4.028,8.449s0.503,8.448-12.336,11.264
			c0,0-7.553,2.049-9.566,2.305c0,0-5.539,3.839-5.287,11.775c0,0-0.175,14.63-0.418,18.47c0,0-3.223,20.047-4.481,25.166"/>
		<g>
			<path fill="none" stroke="#010101" d="M107.884,674.143c2.342-11.553,5.221-26.343,5.221-26.343
				c-0.566-4.608-4.342-2.272-4.342-2.272c0.188,1.151-11.559,31.678-11.559,31.678"/>
			<path fill="none" stroke="#010101" d="M160.122,659.164c-4.546-9.015-11.546-12.378-11.682-13.477c0,0-1.605-0.287-1.7,0.865
				c-0.033,0.413,2.025,6.817,4.698,15.102"/>
			<path fill="none" stroke="#010101" d="M107.884,674.143c-1.404,6.923-2.615,12.683-2.897,13.402l-0.882,7.102
				c0,1.726-5.035,22.596-5.916,25.668c-0.505,1.759-3.691,11.785-6.324,20.036H80.811v8.505h5.5v8.505h85.039v-8.505h5.203v-8.505
				h-7.984h-1.387c-0.047-3.343-0.143-6.431-0.143-6.431c0.283-2.496-3.832-33.281-3.832-33.281
				c-0.242-3.325-6.987-24.164-11.769-38.984"/>
		</g>
	</g>
</g>
<g id="_x36_">
	<g>
		<path fill="none" stroke="#000000" stroke-miterlimit="10" d="M220.803,546.999h-8.308c0,0,0.66-2.207,1.228-2.688
			c0,0,1.228-5.278,4.248-6.239c0,0,2.136,4.032,2.267,6.048L220.803,546.999z"/>
		<path fill="none" stroke="#000000" stroke-miterlimit="10" d="M233.251,547.364h-8.309c0,0,0.662-2.208,1.228-2.688
			c0,0,1.228-5.281,4.249-6.241c0,0,2.135,4.032,2.266,6.049L233.251,547.364z"/>
		<path fill="none" stroke="#000000" stroke-miterlimit="10" d="M231.943,529.143c0,0-2.807,5.418-7,5.473
			c-4.8,0.063-5.367-3.071-7.255-6.337L231.943,529.143z"/>
		<path fill="none" stroke="#000000" stroke-miterlimit="10" d="M298,470.282"/>
		<path fill="none" stroke="#000000" stroke-miterlimit="10" d="M271.203,470.446"/>
		<path fill="none" stroke="#000000" stroke-miterlimit="10" d="M247.372,478.622"/>
		<g>
			<path fill="none" stroke="#010101" d="M301.217,463.228c0.895-0.389,1.455-0.62,1.455-0.62
				C302.303,462.536,301.795,462.785,301.217,463.228z"/>
			<path fill="none" stroke="#010101" d="M271.203,470.446c0,0,17.361,10.232,21.133,12.001c0,0,3.969,4.314,6.482,5.775
				c0,0,5.664,1.579,8.1,0.877c2.438-0.704,9.188,0.205,13.055-1.981c0,0-9.654,1.268-15.98-1.905l-2.713-0.912
				c0,0,7.896,0.934,10.842-11.788c0,0-7.939,9.611-13.328,7.595c0,0,10.223-10.808,11.629-15.261
				c0.326-1.031-6.428,8.228-9.096,9.398c-2.945,1.29-7.152,1.598-7.305,1.036c-0.301-1.117,0.209-2.961,0.443-3.921
				c0,0,4.133-6.128,6.752-8.133c-3.166,1.374-10.547,4.719-12.436,6.818c0,0-10.291-9.673-15.143-12.68
				c-1.734-1.074-7.053,1.413-10.281,3.116"/>
			<path fill="none" stroke="#010101" d="M263.357,460.482c-1.52,0.802-2.578,1.43-2.578,1.43s-2.729,7.091-5.535,14.565
				l-7.32,18.871c0,0-2.662,3.396-4.343-0.129l3.612-15.7c2.229-11.275,5.327-26.737,5.803-27.946l0.455-3.67"/>
			<path fill="none" stroke="#010101" d="M193.301,499.888c0,0,7.933,17.376,7.512,19.714c-0.771,4.283,12.657,11.846,12.657,11.846
				c-0.63,0.384-2.518,3.713-2.518,3.713c-2.139,1.919-3.902,8.959-3.902,8.959c1.386-2.176,3.146-1.279,3.146-1.279
				c-0.126,1.536,0.505,7.681,0.505,7.681c5.034,15.36,20.392,7.168,20.392,7.168c4.029-1.28,5.413-11.521,5.413-11.521
				c2.644-0.896,6.294,1.665,6.294,1.665c0.756-3.072-4.027-8.449-4.027-8.449s-0.503-8.448,12.336-11.265
				c0,0,7.553-2.048,9.567-2.304c0,0,5.539-3.84,5.287-11.776c0,0,0.174-14.628,0.418-18.47l4.822-25.123"/>
			<path fill="none" stroke="#010101" d="M195.013,485.176c0.404,0.038,0.78,0.097,1.1,0.191c9.565,2.833,11.998,6.965,12.134,8.063
				c0,0,1.605,0.287,1.7-0.864c0.061-0.744-6.667-20.923-11.543-36.521"/>
			<path fill="none" stroke="#010101" d="M195.013,485.176c-3.305-0.315-8.966,1.045-8.966,1.045l-10.764,6.221l-6.832-1.536
				l-6.736,3.278l8.843,1.937l1.763,2.943l-2.286,2.522l-6.999-2.819l-5.984-4.887l4.676,8.94l5.982,2.492l-7.555,0.385
				l-6.412-8.168l4.947,11.267c2.294,1.511,6.565,2.278,8.812,2.039c3.098-0.332,5.808-3.073,9.07-5.445
				c0.632-0.46,3.183-4.136,4.365-4.97c4.922-3.47,12.363-0.532,12.363-0.532"/>
			<path fill="none" stroke="#010101" d="M253.452,447.903l0.426-3.432c0-1.725,5.035-22.596,5.917-25.668
				c0.469-1.634,3.252-10.402,5.756-18.253h10.326v-8.504h-5.5v-8.505h-85.04v8.505h-5.203v8.504h7.984h1.416
				c0.049,2.581,0.113,4.647,0.113,4.647c-0.283,2.496,3.832,33.281,3.832,33.281c0.134,1.836,2.25,9.014,4.924,17.566"/>
		</g>
	</g>
	<g>
		<path fill="none" stroke="#000000" stroke-miterlimit="10" d="M482.789,548.485h-8.307c0,0,0.66-2.207,1.227-2.688
			c0,0,1.229-5.278,4.248-6.239c0,0,2.137,4.032,2.268,6.048L482.789,548.485z"/>
		<path fill="none" stroke="#000000" stroke-miterlimit="10" d="M495.238,548.851h-8.309c0,0,0.662-2.208,1.227-2.688
			c0,0,1.229-5.281,4.25-6.241c0,0,2.135,4.032,2.266,6.049L495.238,548.851z"/>
		<path fill="none" stroke="#000000" stroke-miterlimit="10" d="M493.93,530.629c0,0-2.807,5.418-7,5.473
			c-4.801,0.063-5.367-3.071-7.256-6.337L493.93,530.629z"/>
		<path fill="none" stroke="#000000" stroke-miterlimit="10" d="M559.986,471.769"/>
		<path fill="none" stroke="#000000" stroke-miterlimit="10" d="M533.189,471.933"/>
		<path fill="none" stroke="#000000" stroke-miterlimit="10" d="M509.357,480.108"/>
		<g>
			<path fill="none" stroke="#010101" d="M563.203,464.714c0.895-0.389,1.455-0.62,1.455-0.62
				C564.289,464.022,563.781,464.271,563.203,464.714z"/>
			<path fill="none" stroke="#010101" d="M533.189,471.933c0,0,17.361,10.232,21.133,12.001c0,0,3.969,4.314,6.482,5.775
				c0,0,5.664,1.579,8.1,0.877c2.438-0.704,9.188,0.205,13.055-1.981c0,0-9.654,1.268-15.98-1.905l-2.713-0.912
				c0,0,7.896,0.934,10.842-11.788c0,0-7.939,9.611-13.328,7.595c0,0,10.223-10.808,11.629-15.261
				c0.326-1.031-6.428,8.228-9.096,9.398c-2.945,1.29-7.152,1.598-7.305,1.036c-0.301-1.117,0.209-2.961,0.443-3.921
				c0,0,4.133-6.128,6.752-8.133c-3.166,1.374-10.547,4.719-12.436,6.818c0,0-10.291-9.673-15.143-12.68
				c-1.734-1.074-7.053,1.413-10.281,3.116"/>
			<path fill="none" stroke="#010101" d="M525.344,461.969c-1.52,0.802-2.578,1.43-2.578,1.43s-2.729,7.091-5.535,14.565
				l-7.32,18.871c0,0-2.662,3.396-4.342-0.129l3.611-15.7c2.229-11.275,5.328-26.737,5.803-27.946l0.455-3.67"/>
			<path fill="none" stroke="#010101" d="M455.287,501.374c0,0,7.934,17.376,7.512,19.714c-0.77,4.283,12.658,11.846,12.658,11.846
				c-0.631,0.384-2.518,3.713-2.518,3.713c-2.139,1.919-3.902,8.959-3.902,8.959c1.385-2.176,3.146-1.279,3.146-1.279
				c-0.127,1.536,0.504,7.681,0.504,7.681c5.035,15.36,20.393,7.168,20.393,7.168c4.029-1.28,5.412-11.521,5.412-11.521
				c2.645-0.896,6.295,1.665,6.295,1.665c0.756-3.072-4.027-8.449-4.027-8.449s-0.504-8.448,12.336-11.265
				c0,0,7.553-2.048,9.566-2.304c0,0,5.539-3.84,5.287-11.776c0,0,0.174-14.628,0.418-18.47l4.822-25.123"/>
			<path fill="none" stroke="#010101" d="M457,486.662c0.404,0.038,0.779,0.097,1.1,0.191c9.564,2.833,11.998,6.965,12.133,8.063
				c0,0,1.605,0.287,1.701-0.864c0.061-0.744-6.668-20.923-11.543-36.521"/>
			<path fill="none" stroke="#010101" d="M457,486.662c-3.305-0.315-8.967,1.045-8.967,1.045l-10.764,6.221l-6.832-1.536
				l-6.736,3.278l8.844,1.937l1.762,2.943l-2.285,2.522l-7-2.819l-5.984-4.887l4.676,8.94l5.982,2.492l-7.555,0.385l-6.412-8.168
				l4.947,11.267c2.295,1.511,6.566,2.278,8.812,2.039c3.098-0.332,5.809-3.073,9.07-5.445c0.633-0.46,3.184-4.136,4.365-4.97
				c4.922-3.47,12.363-0.532,12.363-0.532"/>
			<path fill="none" stroke="#010101" d="M515.438,449.39l0.426-3.432c0-1.725,5.035-22.596,5.918-25.668
				c0.469-1.634,3.252-10.402,5.756-18.253h10.326v-8.504h-5.5v-8.505h-85.039v8.505h-5.203v8.504h7.984h1.416
				c0.049,2.581,0.113,4.647,0.113,4.647c-0.283,2.496,3.832,33.281,3.832,33.281c0.133,1.836,2.25,9.014,4.924,17.566"/>
		</g>
	</g>
</g>
<g id="_x37_">
	<g>
		<path fill="none" stroke="#000000" stroke-miterlimit="10" d="M383.533,393.345h8.308c0,0-0.66,2.208-1.228,2.688
			c0,0-1.228,5.28-4.248,6.24c0,0-2.136-4.031-2.267-6.048L383.533,393.345z"/>
		<path fill="none" stroke="#000000" stroke-miterlimit="10" d="M371.085,392.98h8.309c0,0-0.662,2.208-1.228,2.688
			c0,0-1.228,5.281-4.249,6.24c0,0-2.135-4.031-2.266-6.048L371.085,392.98z"/>
		<path fill="none" stroke="#000000" stroke-miterlimit="10" d="M372.394,411.202c0,0,2.807-5.418,7-5.473
			c4.8-0.063,5.367,3.072,7.255,6.336L372.394,411.202z"/>
		<path fill="none" stroke="#000000" stroke-miterlimit="10" d="M411.035,440.457c0,0-7.933-17.376-7.512-19.715
			c0.771-4.282-12.657-11.845-12.657-11.845c0.63-0.385,2.518-3.713,2.518-3.713c2.139-1.92,3.902-8.96,3.902-8.96
			c-1.386,2.176-3.146,1.279-3.146,1.279c0.126-1.535-0.505-7.68-0.505-7.68c-5.034-15.36-20.392-7.168-20.392-7.168
			c-4.029,1.28-5.413,11.521-5.413,11.521c-2.644,0.895-6.294-1.666-6.294-1.666c-0.756,3.072,4.027,8.448,4.027,8.448
			s0.503,8.449-12.336,11.266c0,0-7.553,2.048-9.566,2.304c0,0-5.539,3.839-5.287,11.776c0,0-0.174,14.629-0.418,18.47"/>
		<path fill="none" stroke="#000000" stroke-miterlimit="10" d="M411.035,440.457"/>
		<path fill="none" stroke="#000000" stroke-miterlimit="10" d="M356.966,461.723"/>
		<path fill="none" stroke="#000000" stroke-miterlimit="10" d="M411.035,440.923c0,0,7.325-3.224,8.432-9.209
			c0.266-1.438-0.458-5.875-0.325-6.653c0.684-4.02,0.72-7.907,2.694-10.355c1.435-1.776,5.005-4.281,7.681-4.843l11.304,4.483
			l-10.206-1.232l-5.11,5.67l5.979-2.5l9.503,3.024l-7.634,0.797l-6.93,2.992l0.114,3.429l3.288,0.837l7.632-4.939l-2.531,7.145
			l-5.924,3.786l-3.363,12.117c0,0-3.894,6.323-6.574,7.795"/>
		<path fill="none" stroke="#000000" stroke-miterlimit="10" d="M339.81,538.964c0.883-3.072,10.648-41.366,10.648-43.091
			l0.881-7.101c0.756-1.921,8.119-39.746,8.119-39.746c-0.566-4.608-4.342-2.273-4.342-2.273
			c0.188,1.153-11.559,31.679-11.559,31.679"/>
		<path fill="none" stroke="#000000" stroke-miterlimit="10" d="M304.696,463.255"/>
		<path fill="none" stroke="#000000" stroke-miterlimit="10" d="M283.831,446.157"/>
		<path fill="none" stroke="#000000" stroke-miterlimit="10" d="M304.696,463.255"/>
		<path fill="none" stroke="#000000" stroke-miterlimit="10" d="M343.558,478.432c0,0-13.896,6.903-14.891,4.04
			c-1.891-5.447-8.99-23.713-8.99-23.713c-3.552,0.528-15.386-3.166-15.386-3.166c1.337,1.616,11.8-1.505,11.8-1.505
			c0.777-0.595,2.32-1.694,2.781-2.755c0.232-0.532-3.219-2.999-6.305-3.893c-2.793-0.81-13.783,2.023-12.89,1.435
			c3.858-2.548,18.499-4.349,18.499-4.349c-2.924-5.026-15.049-2.685-15.049-2.685c10.191-7.964,15.729-2.162,15.729-2.162
			l-1.534-2.451c-2.931-6.525-11.197-11.749-11.197-11.749c4.355,0.791,9.019,5.834,11.345,6.856
			c2.326,1.021,5.731,5.886,5.731,5.886c1.04,2.748,1.433,8.645,1.433,8.645c1.822,3.795,9.964,21.973,9.964,21.973"/>
		<line fill="none" stroke="#000000" stroke-miterlimit="10" x1="337.995" y1="444.055" x2="334.598" y2="468.839"/>
		<g>
			<path fill="none" stroke="#000000" stroke-miterlimit="10" d="M339.81,538.964h-11.35v8.505h5.5v8.505h85.039v-8.505h5.203
				v-8.505h-7.984h-1.433c-0.046-2.18-0.097-3.819-0.097-3.819c0.283-2.495-3.832-33.279-3.832-33.279
				c-0.189-2.604-4.368-15.952-8.468-28.737"/>
			<path fill="none" stroke="#000000" stroke-miterlimit="10" d="M419.72,452.83c0,0-8.749,2.771-11.496,2.146
				c-9.724-2.209-11.998-6.965-12.134-8.062c0,0-1.605-0.288-1.7,0.864c-0.047,0.573,3.938,12.686,7.999,25.35"/>
		</g>
	</g>
</g>
</svg>
