<?xml version="1.0" encoding="utf-8"?>
<!-- Generator: Adobe Illustrator 15.0.0, SVG Export Plug-In . SVG Version: 6.00 Build 0)  -->
<!DOCTYPE svg PUBLIC "-//W3C//DTD SVG 1.1//EN" "http://www.w3.org/Graphics/SVG/1.1/DTD/svg11.dtd">
<svg version="1.1" xmlns="http://www.w3.org/2000/svg" xmlns:xlink="http://www.w3.org/1999/xlink" x="0px" y="0px"
	 width="734.426px" height="926px" viewBox="0 0 734.426 926" enable-background="new 0 0 734.426 926" xml:space="preserve">
<g id="_x31_">
	<g>
		<path fill="none" stroke="#000000" stroke-miterlimit="10" d="M40.344,34.836"/>
		<path fill="none" stroke="#000000" stroke-miterlimit="10" d="M92.078,76.033L87.12,56.649l-7.184-5.517l2.083-2.309l8.692,5.901
			l-0.128-3.335c0,0,2.117-0.962,2.501-2.245c0,0-1.539,0.128-3.143-0.449l1.026-7.954c0,0,5.26,11.032,5.517,12.957l5.879-3.893
			l1.178,3.366l2.019-0.506l0.674-5.215c1.177-1.515,0.419-2.609,0.419-2.609c0.337-0.505,0.337-3.197,0.337-3.197
			c0.506-0.337,2.239-1.768,2.239-1.768l-0.052-2.019c0.253-1.178-0.53-2.776-0.53-2.776l-0.48-4.375
			c-0.42-2.777-2.354-5.049-2.354-5.049l-4.207-4.459c-4.544-4.039-9.002-2.861-9.002-2.861c-0.842,0.083-4.712,3.197-4.712,3.197
			l-1.516-1.178l-3.701,2.188l-2.607,3.448c-1.515-0.924-3.536-0.504-3.536-0.504c-1.345,0.252-4.291-0.42-4.291-0.42
			c-2.777-0.842-6.48,0-6.48,0l-2.438,1.639L60.21,26.92c-8.667-1.43-16.07,4.797-16.07,4.797l-3.825,2.974l-0.006-0.029
			c-0.017,0.017-0.042,0.054-0.064,0.083l-0.008,0.006l0.002,0.001c-1.203,1.645-9.017,20.543-9.017,20.543
			c-1.515,1.893-5.491,9.086-5.491,9.086l-1.514,5.869c-1.515,5.867,1.892,14.576,1.892,14.576
			c0.19,2.271,9.655,26.692,9.655,26.692c-1.514,2.083-3.218,8.52-3.218,8.52c-6.247,8.518-7.193,22.526-7.193,22.526
			c2.84-8.33,12.116-19.24,12.116-19.24c-2.84,3.665-6.436,24.162-6.436,24.162l1.584,3.131l0.685-5.781
			c0.569-3.218,6.626-14.955,6.626-14.955s-1.702,5.68-2.46,7.762s2.271,10.601,2.082,9.843c-0.188-0.757,0.569-8.14,0.569-9.464
			c0-1.326,6.056-8.71,6.056-8.71l-0.567,8.332l-2.152,2.263l6.254-1.924L50.77,122.3l-2.213-10.776L39.12,87.384l-3.531-15.242
			l7.064-14.128l2.975,3.235"/>
		<path fill="none" stroke="#000000" stroke-miterlimit="10" d="M57.822,132.209l-5.029,29.758l-0.385,28.479l-9.545,3.079
			l-8.852,4.618l-1.431,12.283h-2.299v12.504h6.784v11h85.039v-11h5.744v-11.572h8.531l-1.54-5.903l-7.312-8.533l-16.164-5.322
			l0.77-6.927l-0.77-27.708l-20.116-32.813l-9.131-34.662l-0.489-6.643 M65.029,189.291l1-26.939l8.082-24.324l7.312-2.694
			l14.933,25.094l1.54,21.166l-2.309,15.778v13.053H70.295L65.029,189.291z"/>
		<polyline fill="none" stroke="#000000" stroke-miterlimit="10" points="83.184,78.778 81.219,77.302 81.627,82.846 		"/>
		<polyline fill="none" stroke="#000000" stroke-miterlimit="10" points="49.239,79.305 52.612,100.265 57.822,132.209 		"/>
		<polyline fill="none" stroke="#000000" stroke-miterlimit="10" points="49.239,79.305 46.483,62.18 45.627,61.249 		"/>
		<path fill="none" stroke="#000000" stroke-miterlimit="10" d="M83.184,78.778c-0.602,1.018,4.861,19.146,4.861,19.146
			c2.424,13.71,8.57,10.448,8.57,10.448c3.22-1.595,8.479-3.548,8.479-3.548c2.668-0.856,6.155-1.917,6.155-1.917
			c0.876-0.839,2.416-0.598,2.416-0.598c1.551,2.246,3.321,1.634,3.321,1.634c0.842,1.134,3.63,1.923,3.63,1.923
			c0.356,0.322,1.052,1.709,1.052,1.709c0.081,0.456,1.614,2.005,1.614,2.005c0.016,0.339-1.234,2.91-1.234,2.91l1.772-0.827
			c1.716-4.063,0.752-3.721,0.222-4.781c-0.029-0.057-0.065-0.121-0.108-0.188c-0.739-1.178-3.409-3.76-3.409-3.76l-3.311-3.987
			c0.669,0.651,3.831,0.14,3.831,0.14c0.816,0.752,2.582,1.889,2.582,1.889l1.144,3.706c0.686,2.187,2.698,4.671,2.698,4.671
			l-0.004-0.512c-0.67-1.376-0.711-6.757-0.711-6.757c-0.099-1.521-2.418-4.652-2.418-4.652c-1.06-0.199-4.641-2.81-4.641-2.81
			c-1.361-0.7-2.373-1.589-2.373-1.589c0.267-0.176,2.696-0.31,2.696-0.31c0.344,0.495,4.76,1.503,4.76,1.503
			c0.592,0.45,3.05,4.542,3.05,4.542c-0.42,1.013,0.614,2.92,0.614,2.92l1.11,3.516c1.225-1.542,0.204-6.583,0.204-6.583
			c-0.117-0.661-2.632-5.494-2.632-5.494c-1.044-1.312-5.613-3.013-5.613-3.013l-4.085-0.39l0.008-2.535l4.808-0.068
			c2.004-0.088,2.522,2.479,2.522,2.479c0.914-1.464-0.336-5.217-0.336-5.217c-3.731-1.947-9.838,1.088-9.838,1.088
			c-1.673,0.21-5.641,5.984-5.641,5.984c-0.644,0.371-2.892,3.541-2.892,3.541l-7.183,3.029c0,0-7.212-19.182-6.796-21.992"/>
	</g>
</g>
<g id="_x32_">
	<g>
		<g>
			<polyline fill="none" stroke="#000000" stroke-miterlimit="10" points="224.026,180.924 224.738,151.477 214.164,138.01 			"/>
			<path fill="none" stroke="#000000" stroke-miterlimit="10" d="M153.615,39.268c-1.195,1.623-9.019,20.546-9.019,20.546
				c-1.516,1.893-5.491,9.086-5.491,9.086l-1.312,5.088c-2.528,5.48-0.893,14.532-0.893,14.532
				c-0.25,2.266,4.338,28.052,4.338,28.052l-0.154,0.293c-0.904,2.41-0.83,9.069-0.83,9.069c-3.75,9.875-0.925,23.629-0.925,23.629
				c0.516-8.785,6.545-21.775,6.545-21.775c-1.759,4.29,0.241,25.004,0.241,25.004l2.362,2.595l-0.882-5.754
				c-0.31-3.254,2.398-16.18,2.398-16.18s-0.125,5.928-0.301,8.136s5.017,9.611,4.631,8.932c-0.383-0.68-1.622-7.998-1.976-9.274
				c-0.354-1.278,3.514-10.01,3.514-10.01l1.676,8.181l-1.471,2.755l5.514-3.522l-3.162-15.396l-6.546-9.795l-2.699-19.925
				l-0.532-15.637l9.651-12.504l0.758,0.633"/>
			<path fill="none" stroke="#000000" stroke-miterlimit="10" d="M173.583,31.438c-8.667-1.431-16.07,4.797-16.07,4.797
				l-3.825,2.974l-0.006-0.029c-0.018,0.018-0.042,0.054-0.064,0.084"/>
			<polyline fill="none" stroke="#000000" stroke-miterlimit="10" points="211.268,176.106 209.729,154.94 193.796,138.853 
				186.484,141.546 183.548,149.473 			"/>
			<polyline fill="none" stroke="#000000" stroke-miterlimit="10" points="198.12,85.734 194.592,81.82 195.49,94.007 
				204.621,127.668 214.164,138.01 			"/>
			<path fill="none" stroke="#000000" stroke-miterlimit="10" d="M205.258,80.183"/>
			<path fill="none" stroke="#000000" stroke-miterlimit="10" d="M198.233,86.148c1.175,2.693,11.208,15.774,11.208,15.774
				c7.118,11.965,11.713,6.739,11.713,6.739c2.447-2.631,6.675-6.318,6.675-6.318c2.192-1.745,5.078-3.971,5.078-3.971
				c0.523-1.095,2.048-1.415,2.048-1.415c2.245,1.553,3.684,0.354,3.684,0.354c1.189,0.762,4.076,0.514,4.076,0.514
				c0.447,0.175,1.588,1.227,1.588,1.227c0.237,0.398,2.219,1.304,2.219,1.304c0.135,0.312-0.124,3.159-0.124,3.159l1.365-1.4
				c0.168-4.408-0.613-3.746-1.483-4.551c-0.047-0.043-0.104-0.09-0.168-0.138c-1.107-0.841-4.519-2.311-4.519-2.311l-4.507-2.558
				c0.856,0.372,3.633-1.225,3.633-1.225c1.03,0.414,3.083,0.853,3.083,0.853l2.381,3.062c1.416,1.803,4.177,3.415,4.177,3.415
				l-0.186-0.478c-1.113-1.05-3.055-6.069-3.055-6.069c-0.631-1.388-3.908-3.495-3.908-3.495c-1.062,0.188-5.334-0.986-5.334-0.986
				c-1.521-0.173-2.782-0.647-2.782-0.647c0.188-0.258,2.413-1.244,2.413-1.244c0.497,0.341,4.984-0.278,4.984-0.278
				c0.713,0.211,4.459,3.169,4.459,3.169c-0.034,1.096,1.607,2.514,1.607,2.514l2.282,2.896c0.6-1.875-2.138-6.229-2.138-6.229
				c-0.343-0.577-4.406-4.208-4.406-4.208c-1.441-0.857-6.316-0.832-6.316-0.832l-3.959,1.081l-0.89-2.374l4.473-1.765
				c1.844-0.791,3.237,1.426,3.237,1.426c0.336-1.693-2.16-4.761-2.16-4.761c-4.179-0.5-8.817,4.499-8.817,4.499
				c-1.49,0.789-3.159,7.593-3.159,7.593c-0.471,0.574-1.452,4.334-1.452,4.334l-5.647,5.374c0,0-13.532-15.39-14.138-18.164
				l-0.127,0.099l-4.848-18.952l-7.184-5.517l1.298-3.966l1.206-2.867l10.152,2.705l-1.222-3.106c0,0,1.681-1.606,1.622-2.944
				c0,0-1.411,0.629-3.115,0.613l-1.654-7.847c0,0,10.143,7.141,11.02,8.873l2.728-4.074l2.222,2.79l1.739-1.143l-1.083-5.146
				c0.612-1.818-0.464-2.602-0.464-2.602c0.151-0.588-0.736-3.129-0.736-3.129c0.366-0.485,1.531-2.407,1.531-2.407l-0.715-1.889
				c-0.15-1.195-1.416-2.446-1.416-2.446l-1.896-3.972c-1.312-2.483-3.888-3.99-3.888-3.99l-5.442-2.823
				c-5.622-2.314-9.442,0.268-9.442,0.268c-0.767,0.356-3.395,4.572-3.395,4.572l-1.819-0.613l-2.773,3.286l-1.324,4.116
				c-1.735-0.373-3.504,0.689-3.504,0.689"/>
			<line fill="none" stroke="#000000" stroke-miterlimit="10" x1="173.195" y1="138.728" x2="162.613" y2="83.824"/>
			<polyline fill="none" stroke="#000000" stroke-miterlimit="10" points="162.613,83.824 159.856,66.697 159.052,66.025 			"/>
			<polyline fill="none" stroke="#000000" stroke-miterlimit="10" points="173.195,138.728 166.166,166.485 167.781,194.963 
				156.236,198.042 147.385,202.661 146.488,210.358 142.875,210.358 142.875,222.863 149.658,222.863 149.658,233.863 
				234.697,233.863 234.697,222.863 240.441,222.863 240.441,211.742 243.758,212.358 243.323,206.273 237.693,196.548 
				222.774,188.364 224.026,180.924 			"/>
			<polyline fill="none" stroke="#000000" stroke-miterlimit="10" points="211.359,176.065 206.206,191.157 203.652,204.906 
				232.995,210.358 182.309,210.358 179.402,193.809 180.402,166.87 183.548,149.473 			"/>
		</g>
		<path fill="none" stroke="#000000" stroke-miterlimit="10" d="M183.367,28.378c0,0-8.88,1.443-10.128,3.01"/>
	</g>
</g>
<g id="_x33_">
	<g>
		<line fill="none" stroke="#000000" stroke-miterlimit="10" x1="263.16" y1="74.037" x2="272.811" y2="61.533"/>
		<path fill="none" stroke="#000000" stroke-miterlimit="10" d="M252.365,69.993"/>
		<path fill="none" stroke="#000000" stroke-miterlimit="10" d="M306.184,40.553l-7.423-5.745l1.25-4l9.875,3.25l6.59-3.268
			l-2.994-1.476c0,0,0.163-2.32-0.782-3.27c0,0-0.621,1.414-1.892,2.549l-8.043-4.691c0,0,3.13-1.973,7.061-2.277
			c3.477-0.27,7.749,1.102,8.601,1.427l-0.724-4.85l3.521,0.569l0.517-2.017l-4.264-3.077c-0.771-1.758-2.094-1.613-2.094-1.613
			c-0.284-0.536-2.651-1.818-2.651-1.818c-0.055-0.605-0.487-2.811-0.487-2.811l-1.8-0.916c-0.915-0.784-2.694-0.857-2.694-0.857
			L303.677,4c-2.642-0.955-5.561-0.336-5.561-0.336l-5.925,1.574c-5.716,2.07-6.805,6.551-6.805,6.551
			c-0.328,0.78,0.565,5.667,0.565,5.667l-1.758,0.771l0.16,4.297l1.79,3.936c-1.535,0.892-2.128,2.868-2.128,2.868"/>
		<path fill="none" stroke="#000000" stroke-miterlimit="10" d="M314.639,56.158"/>
		<path fill="none" stroke="#000000" stroke-miterlimit="10" d="M311.289,64.986"/>
		<path fill="none" stroke="#000000" stroke-miterlimit="10" d="M336.303,44.852c-0.893,1.43,1.081,8.152,1.081,8.152
			c-0.119,0.733,0.921,4.478,0.921,4.478l-2.185,7.483c0,0-19.43-6.514-21.347-8.609"/>
		<path fill="none" stroke="#000000" stroke-miterlimit="10" d="M308.979,64.986c0.41,1.109,20.228,8.314,20.228,8.314
			c12.164,6.773,13.513-0.053,13.513-0.053c0.795-3.505,2.6-8.815,2.6-8.815c1.02-2.61,2.398-5.983,2.398-5.983
			c-0.098-1.211,1.061-2.252,1.061-2.252c2.721,0.215,3.363-1.545,3.363-1.545c1.411,0.062,3.783-1.602,3.783-1.602
			c0.475-0.072,1.989,0.264,1.989,0.264c0.405,0.225,2.574,0.014,2.574,0.014c0.273,0.201,1.479,2.793,1.479,2.793l0.477-1.896
			c-2.068-3.896-2.411-2.932-3.568-3.189c-0.062-0.014-0.135-0.026-0.214-0.035c-1.38-0.171-5.069,0.27-5.069,0.27l-5.182,0.053
			c0.927-0.108,2.527-2.883,2.527-2.883c1.098-0.159,3.094-0.811,3.094-0.811l3.596,1.451c2.129,0.849,5.326,0.855,5.326,0.855
			l-0.4-0.319c-1.49-0.349-5.69-3.714-5.69-3.714c-1.242-0.884-5.134-1.061-5.134-1.061c-0.824,0.696-5.108,1.826-5.108,1.826
			c-1.402,0.614-2.73,0.837-2.73,0.837c0.032-0.317,1.461-2.286,1.461-2.286c0.601,0.045,4.17-2.744,4.17-2.744
			c0.723-0.176,5.448,0.502,5.448,0.502c0.521,0.965,2.652,1.367,2.652,1.367l3.428,1.357c-0.422-1.922-4.977-4.312-4.977-4.312
			c-0.586-0.327-5.922-1.427-5.922-1.427c-1.677-0.018-5.88,2.452-5.88,2.452l-2.881,2.923l-1.961-1.606l2.981-3.772
			c1.197-1.61,3.515-0.392,3.515-0.392c-0.56-1.633-4.258-3.033-4.258-3.033c-3.865,1.666-5.366,8.318-5.366,8.318"/>
		<line fill="none" stroke="#000000" stroke-miterlimit="10" x1="266.422" y1="88.015" x2="263.468" y2="73.775"/>
		<line fill="none" stroke="#000000" stroke-miterlimit="10" x1="272.038" y1="105.842" x2="266.422" y2="88.015"/>
		<path fill="none" stroke="#000000" stroke-miterlimit="10" d="M252.171,69.465c-1.534,5.42,2.215,15.895,2.215,15.895
			c0.128,2.114,8.4,25.012,8.4,25.012"/>
		<path fill="none" stroke="#000000" stroke-miterlimit="10" d="M262.691,110.664c-0.448,2.352,0.671,8.439,0.671,8.439
			c-1.876,9.638,2.881,21.792,2.881,21.792c-0.914-8.13,2.56-20.98,2.56-20.98c-0.935,4.208,4.167,22.867,4.167,22.867l2.573,2.004
			l-1.715-5.132c-0.797-2.932-0.356-15.2-0.356-15.2s0.82,5.449,1.008,7.5c0.188,2.052,6.112,8.014,5.652,7.452
			c-0.459-0.562-2.748-7.07-3.273-8.184c-0.525-1.115,1.64-9.725,1.64-9.725l2.826,7.23l-0.912,2.756l4.495-4.097l-5.326-13.605
			l-7.542-7.94"/>
		<g>
			<polyline fill="none" stroke="#010101" points="308.979,64.986 310.006,89.379 319.138,123.04 331.025,135.693 			"/>
			<polyline fill="none" stroke="#010101" points="338.543,176.295 339.254,146.848 331.025,135.693 			"/>
			<polyline fill="none" stroke="#010101" points="306.184,40.553 307.826,51.022 315.009,56.539 			"/>
			<path fill="none" stroke="#010101" d="M284.016,29.327c-8.667-1.431-11.987,2.279-11.987,2.279l-3.854,2.997l0.024-0.053
				c-0.018,0.018-0.042,0.055-0.064,0.084l-0.007,0.006l0.003-0.001c-0.696,0.946-3.635,7.746-5.974,13.274l6.007-13.285"/>
			<polyline fill="none" stroke="#010101" points="325.785,171.479 324.246,150.312 309.312,136.225 302,138.918 299.064,146.845 
							"/>
			<polyline fill="none" stroke="#010101" points="278.755,89.3 274.373,62.068 272.811,60.764 			"/>
			<line fill="none" stroke="#010101" x1="288.712" y1="137.1" x2="278.755" y2="89.3"/>
			<path fill="none" stroke="#010101" d="M262.157,47.914l-3.699,8.182c0.247-0.367,0.469-0.68,0.654-0.91
				C259.112,55.186,260.479,51.881,262.157,47.914z"/>
			<line fill="none" stroke="#010101" x1="252.107" y1="70.141" x2="258.458" y2="56.096"/>
			<polyline fill="none" stroke="#010101" points="325.876,171.207 320.723,187.299 318.168,201.047 340.58,205.212 
				296.671,205.212 293.919,189.181 295.919,162.242 299.064,146.845 			"/>
			<polyline fill="none" stroke="#010101" points="288.712,137.1 282.683,161.857 282.298,190.336 270.752,193.414 261.901,198.032 
				261.065,205.212 260.196,205.212 260.196,217.717 266.98,217.717 266.98,228.717 352.019,228.717 352.019,217.717 
				357.763,217.717 357.763,208.404 358.275,208.5 357.84,202.414 352.209,192.689 337.291,184.505 338.543,176.065 			"/>
		</g>
	</g>
</g>
<g id="_x34_">
	<g>
		<path fill="none" stroke="#000000" stroke-miterlimit="10" d="M408.125,28.199c0,0,2.052-5.114,6.67-7.386c0,0,2.951-0.378,4.49,0
			c0,0,3.042,0.947,5.305,6.439l-2.867,0.947l-1.002-3.103l-2.077,3.103h-5.808v-3.778l-2.273,3.778H408.125z"/>
		<path fill="none" stroke="#000000" stroke-miterlimit="10" d="M401.081,31.919c0,0,0.593-1.976,2.128-2.868l-1.79-3.936
			l-0.16-4.297l1.758-0.771c0,0-0.893-4.886-0.565-5.666c0,0,1.089-4.481,6.805-6.552l5.925-1.574c0,0,2.897-0.564,7.247-0.263
			l1.832,0.291c5.716,2.07,6.517,6.442,6.517,6.442c0.328,0.78-0.565,5.667-0.565,5.667l1.758,0.771l-0.16,4.297l-1.79,3.936
			c1.535,0.892,2.128,2.868,2.128,2.868c5.678,0.013,5.148,7.949,5.148,7.949l1.038,2.933l-0.357,12.47l7.815,16.3l7.328,11.821
			l5.747-5.267c0,0,1.051-3.741,1.532-4.306c0,0,1.797-6.772,3.301-7.532c0,0,4.732-4.911,8.9-4.332c0,0,2.438,3.114,2.07,4.8
			c0,0-1.351-2.243-3.209-1.487l-4.505,1.681l0.845,2.39l3.979-1.006c0,0,4.875,0.067,6.3,0.951c0,0,3.994,3.706,4.326,4.289
			c0,0,2.656,4.405,2.021,6.268l-2.228-2.938c0,0-1.614-1.449-1.56-2.544c0,0-3.69-3.028-4.399-3.252c0,0-4.498,0.535-4.988,0.184
			c0,0-2.243,0.943-2.435,1.198c0,0,1.251,0.499,2.769,0.7c0,0,4.25,1.255,5.315,1.086c0,0,3.237,2.168,3.841,3.568
			c0,0,1.847,5.054,2.941,6.125l0.176,0.48c0,0-2.73-1.663-4.111-3.492l-2.323-3.105c0,0-2.045-0.478-3.066-0.911
			c0,0-2.807,1.544-3.656,1.156l4.458,2.642c0,0,3.383,1.534,4.475,2.396c0.063,0.048,0.119,0.097,0.165,0.14
			c0.856,0.821,1.649,0.174,1.398,4.578l-1.391,1.375c0,0,0.312-2.841,0.183-3.156c0,0-1.964-0.943-2.194-1.346
			c0,0-1.122-1.073-1.565-1.256c0,0-2.891,0.193-4.065-0.591c0,0-1.461,1.171-3.676-0.423c0,0-1.531,0.291-2.075,1.376
			c0,0-2.927,2.17-5.152,3.875c0,0-4.296,3.606-6.792,6.191c0,0-4.692,5.139-11.583-6.958c0,0-13.213-16.434-12.989-17.595
			l-0.003-0.108"/>
		<path fill="none" stroke="#000000" stroke-miterlimit="10" d="M373.021,72.732l1.514-5.869c0,0,3.976-7.193,5.491-9.086
			c0,0,8.141-19.688,9.087-20.634"/>
		<path fill="none" stroke="#000000" stroke-miterlimit="10" d="M385.063,91.284l3.399,18.378l6.517,8.802l3.625,14.154
			l-4.961,3.517l1.241-2.624l-1.922-7.521c0,0-3.2,8.281-2.814,9.452c0.386,1.169,1.864,7.907,2.25,8.522
			c0.387,0.614-4.764-6.028-4.701-8.086c0.063-2.059-0.085-7.567-0.085-7.567s-1.935,12.123-1.501,15.13l1.076,5.303l-2.309-2.303
			c0,0-2.786-19.143-1.345-23.205c0,0-5.017,12.331-5.102,20.511c0,0-3.239-12.644-0.2-21.98c0,0-0.367-6.179,0.364-8.458
			l0.13-0.279c0,0-5.416-23.736-5.286-25.85c0,0-2.521-9.576-0.338-14.768"/>
		<polyline fill="none" stroke="#000000" stroke-miterlimit="10" points="405.625,134.691 401.415,102.746 395.286,64.661 
			393.724,63.355 392.407,64.473 384.073,76.629 		"/>
		<g>
			<path fill="none" stroke="#010101" d="M401.081,31.919c-8.667-1.43-8.138,2.28-8.138,2.28l-3.902,3.034"/>
			<polyline fill="none" stroke="#010101" points="429.893,67.579 430.919,91.971 441.051,123.632 460.167,149.44 			"/>
			<polyline fill="none" stroke="#010101" points="444.956,152.688 428.225,137.816 420.914,141.51 418.518,146.998 			"/>
			<polyline fill="none" stroke="#010101" points="405.625,134.691 398.208,164.449 400.21,192.927 391.666,196.006 
				382.814,200.624 381.639,210.71 376.303,210.71 376.303,223.214 383.087,223.214 383.087,234.214 468.126,234.214 
				468.126,223.214 473.87,223.214 473.87,210.71 465.445,210.71 465.87,207.803 462.459,197.096 449.646,185.898 452.467,178.901 
				452.632,178.919 460.09,149.505 			"/>
			<polyline fill="none" stroke="#010101" points="444.714,152.739 444.688,152.744 441.206,171.474 441.139,171.435 
				432.865,185.068 427.417,197.948 457.589,210.71 418.446,210.71 414.832,191.773 411.983,164.834 418.518,146.998 			"/>
		</g>
		<line fill="none" stroke="#000000" stroke-miterlimit="10" x1="384.278" y1="76.363" x2="385.134" y2="91.666"/>
	</g>
</g>
<g id="_x35_">
	<g>
		<path fill="none" stroke="#000000" stroke-miterlimit="10" d="M73.477,265.413c0,0,2.052-5.114,6.67-7.386c0,0,2.95-0.378,4.49,0
			c0,0,3.041,0.947,5.305,6.439l-2.868,0.947l-1.001-3.103l-2.077,3.103h-5.808v-3.778l-2.273,3.778H73.477z"/>
		<g>
			<polyline fill="none" stroke="#010101" points="104.583,394.054 96.656,376.03 91.344,376.724 88.117,384.116 			"/>
			<polyline fill="none" stroke="#010101" points="74.055,376.905 62.638,401.663 69.641,430.141 60.096,433.22 51.245,437.838 
				50.07,447.924 39.387,447.924 39.387,460.428 46.171,460.428 46.171,471.428 131.21,471.428 131.21,460.428 136.954,460.428 
				136.954,449.104 139.937,449.471 139.131,443.424 132.918,434.061 117.527,426.802 118.323,419.299 118.487,419.271 
				116.969,392.108 			"/>
			<polyline fill="none" stroke="#010101" points="104.583,394.054 105.459,415.241 105.383,415.223 101.161,430.601 99.45,444.48 
				127.384,447.924 86.877,447.924 81.262,428.986 79.414,402.048 88.117,384.116 			"/>
			<polygon fill="none" stroke="#010101" points="113.698,306.039 113.699,306.04 114.221,307.128 			"/>
			<path fill="none" stroke="#010101" d="M98.597,311.294l1.197-3.822c3.4,4.922,11.521,15.024,11.521,15.024l4.878,6.476
				c3.283,1.462,8.14,4.268,8.14,4.268c2.362,1.509,5.402,3.518,5.402,3.518c1.206,0.14,2.002,1.479,2.002,1.479
				c-0.742,2.626,0.859,3.6,0.859,3.6c-0.335,1.372,0.834,4.022,0.834,4.022c-0.021,0.479-0.646,1.9-0.646,1.9
				c-0.3,0.353-0.515,2.521-0.515,2.521c-0.251,0.229-3.028,0.906-3.028,0.906l1.767,0.838c4.225-1.27,3.346-1.793,3.825-2.878
				c0.025-0.059,0.052-0.126,0.076-0.203c0.437-1.32,0.723-5.024,0.723-5.024l0.959-5.093c-0.074,0.93,2.335,3.04,2.335,3.04
				c-0.059,1.108,0.191,3.193,0.191,3.193l-2.125,3.244c-1.247,1.923-1.877,5.057-1.877,5.057l0.392-0.33
				c0.632-1.394,4.751-4.857,4.751-4.857c1.109-1.046,2.041-4.83,2.041-4.83c-0.522-0.943-0.795-5.366-0.795-5.366
				c-0.33-1.496-0.289-2.842-0.289-2.842c0.305,0.094,1.958,1.879,1.958,1.879c-0.163,0.581,1.877,4.625,1.877,4.625
				c0.032,0.743-1.553,5.246-1.553,5.246c-1.048,0.323-1.858,2.335-1.858,2.335l-2,3.097c1.968-0.04,5.2-4.041,5.2-4.041
				c0.435-0.511,2.553-5.531,2.553-5.531c0.344-1.641-1.259-6.246-1.259-6.246l-2.305-3.396l1.958-1.611l3.119,3.66
				c1.346,1.488-0.3,3.524-0.3,3.524c1.71-0.23,3.804-3.585,3.804-3.585c-0.88-4.116-7.113-6.884-7.113-6.884
				c-1.229-1.154-8.207-0.529-8.207-0.529c-0.696-0.259-4.571,0.031-4.571,0.031l-6.914-3.602l-7.102-7.131l-4.804-10.941
				l-7.293-15.211l0.357-12.47l-1.038-2.933c0,0-2.549-7.936-8.227-7.949c0,0-0.593-1.977-2.128-2.868l1.79-3.936l0.16-4.297
				l-1.758-0.771c0,0,0.893-4.886,0.565-5.667c0,0-1.089-4.481-6.805-6.551l0.619,0.417c-2.642-0.954-9.409-0.335-9.409-0.335
				l-5.925,1.574c-5.716,2.07-6.804,6.552-6.804,6.552c-0.328,0.78,0.565,5.666,0.565,5.666l-1.758,0.771l0.16,4.297l1.79,3.936
				c-1.534,0.892-1.358,2.868-1.358,2.868c-8.667-1.43-8.908,2.28-8.908,2.28l-0.824,3.034l0.014-0.008
				c-1.095,1.589-6.72,21.323-6.72,21.323c-1.515,1.893-3.182,9.086-3.182,9.086l-3.958,27.811l-2.629,12.221h0.564l-9.25,5.863
				l-8.48,11.898l3.361,5.068l-0.212-2.896l4.501-6.323c0,0,0.002,8.878-0.779,9.831c-0.78,0.952-4.587,6.705-5.168,7.139
				c-0.583,0.433,6.615-3.907,7.297-5.85c0.682-1.943,2.805-7.029,2.805-7.029s-2.562,12.006-4.049,14.655l-2.914,4.56l2.983-1.317
				c0,0,9.495-16.854,9.613-21.163c0,0,0.239,13.311-2.629,20.972c0,0,7.576-10.628,8.104-20.433c0,0,3.849-9.22,3.988-11.609
				c0,0,7.725-17.579,7.595-19.693l1.681-6.955l3.687-19.49v-0.77l1.562,1.306l4.59,37.315l4.209,36.945"/>
			<polyline fill="none" stroke="#010101" points="98.597,311.294 99.35,329.185 108.791,364.846 117.053,392.042 			"/>
			<polygon fill="none" stroke="#010101" points="116.969,392.107 116.969,392.108 116.976,392.107 			"/>
		</g>
	</g>
</g>
<g id="_x36_">
	<g>
		<path fill="none" stroke="#000000" stroke-miterlimit="10" d="M231.062,267.167c0,0-2.052-5.113-6.67-7.386
			c0,0-2.951-0.378-4.49,0c0,0-3.042,0.946-5.305,6.439l2.868,0.947l1.001-3.102l2.077,3.102h5.809v-3.777l2.273,3.777H231.062z"/>
		<g>
			<path fill="none" stroke="#010101" d="M259.847,319.652c-0.849-1.931-1.424-3.349-1.501-3.808l-0.153-0.247l-0.225-0.291
				l-0.083,0.028"/>
			<line fill="none" stroke="#010101" x1="245.463" y1="313.052" x2="241.833" y2="335.614"/>
			<path fill="none" stroke="#010101" d="M182.175,388.474l7.458,29.414l0.165-0.018l2.821,6.997l-12.813,11.198l-3.411,10.707
				l0.404,2.764h-7.289v12.505h6.784v11h85.039v-11h5.744v-12.505h-6.468l-1.158-9.943l-8.852-4.617l-8.545-3.079l5.003-28.479
				l-10.417-24.758l4.209-36.945l0.982-6.1 M233.282,403.802l-3.848,26.938l-5.572,18.795h-38.848l29.834-12.619l-5.448-12.88
				l-8.273-13.633l-0.067,0.039l-3.481-18.73l22.172-8.743L233.282,403.802z"/>
			<path fill="none" stroke="#010101" d="M259.847,319.652c3.013,6.853,9.488,20.18,9.488,20.18l-0.064,0.302
				c-0.197,2.384,1.556,8.321,1.556,8.321c-0.851,9.782,5.161,21.367,5.161,21.367c-1.766-7.988,0.336-21.133,0.336-21.133
				c-0.486,4.282,6.552,22.301,6.552,22.301l2.77,1.722l-2.247-4.923c-1.102-2.832-1.956-15.078-1.956-15.078
				s1.389,5.333,1.792,7.352c0.403,2.02,6.922,7.325,6.406,6.815c-0.516-0.512-3.478-6.742-4.117-7.793
				c-0.64-1.054,0.606-9.843,0.606-9.843l3.571,6.892l-0.617,2.837l4.038-4.547l-6.729-12.969l-8.337-7.102l-8.812-22.651
				l-1.514-5.869c0,0-3.976-7.194-5.491-9.086c0,0-7.827-18.929-9.02-20.547l0.005,0.002l-0.008-0.006
				c-0.022-0.029-0.047-0.066-0.064-0.083l-0.099-0.043l-3.732-2.902c0,0,0.529-3.709-8.138-2.279c0,0-0.593-1.977-2.128-2.868
				l1.79-3.936l0.16-4.297l-1.758-0.771c0,0,0.893-4.886,0.565-5.666c0,0-1.089-4.481-6.805-6.552l-5.925-1.574
				c0,0-6.767-0.619-9.409,0.335l0.619-0.417c-5.716,2.07-6.805,6.552-6.805,6.552c-0.328,0.78,0.565,5.667,0.565,5.667
				l-1.758,0.771l0.16,4.296l1.79,3.936c-1.535,0.892-2.128,2.869-2.128,2.869c-5.678,0.013-5.148,7.948-5.148,7.948l-1.038,2.933
				l0.358,12.47l-7.815,16.3v-0.462l-4.533,9.146l-14.929,8.215c0,0-3.808-0.776-4.53-0.607c0,0-6.844-1.5-8.208-0.51
				c0,0-6.532,1.962-7.923,5.934c0,0,1.654,3.592,3.322,4.037c0,0-1.376-2.228,0.146-3.535l3.555-3.237l1.739,1.845l-2.714,3.078
				c0,0-2.17,4.366-2.036,6.038c0,0,1.469,5.247,1.836,5.809c0,0,2.703,4.376,4.65,4.663l-1.594-3.324c0,0-0.55-2.098-1.549-2.55
				c0,0-1.005-4.667-0.88-5.399c0,0,2.533-3.756,2.445-4.352c0,0,1.864-1.563,2.179-1.618c0,0-0.129,1.341-0.644,2.783
				c0,0-0.828,4.354-1.465,5.223c0,0,0.448,3.871,1.416,5.048c0,0,3.65,3.955,4.102,5.417l0.347,0.376c0,0-0.23-3.188-1.225-5.253
				l-1.7-3.486c0,0,0.511-2.036,0.593-3.143c0,0,2.656-1.79,2.7-2.723l0.31,5.173c0,0-0.183,3.71,0.084,5.076
				c0.015,0.079,0.032,0.149,0.049,0.21c0.339,1.136-0.599,1.545,3.432,3.337l1.858-0.608c0,0-2.669-1.021-2.89-1.28
				c0,0,0.06-2.179-0.193-2.567c0,0-0.441-1.487-0.402-1.966c0,0,1.494-2.482,1.334-3.886c0,0,1.71-0.764,1.305-3.462
				c0,0,0.958-1.229,2.173-1.215c0,0,3.268-1.611,5.801-2.81c0,0,5.172-2.171,8.612-3.209l6.332-4.835
				c0,0,10.591-13.174,12.643-16.76"/>
			<path fill="none" stroke="#010101" d="M268.987,311.553"/>
			<polyline fill="none" stroke="#010101" points="245.463,313.052 246.979,303.629 248.542,302.324 248.542,303.093 
				257.968,315.307 			"/>
			<polyline fill="none" stroke="#010101" points="182.099,388.408 206.215,366.601 211.347,330.938 212.355,306.968 			"/>
		</g>
	</g>
</g>
<g id="_x37_">
	<path fill="none" stroke="#010101" d="M332.895,306.859 M334.124,306.24v23.807l-9.131,34.662l-22.44,22.308l7.535,29.479
		l0.165-0.018l2.821,6.997l-12.813,11.198l-3.411,10.707l0.444,3.036h-11.685v12.505h6.784v11h85.039v-11h5.744v-12.505h-2.08
		l-1.19-10.215l-8.852-4.618l-9.545-3.079l3.003-28.478l-11.417-24.758l8.209-36.945l6.129-38.085l1.562-1.306l2,1.77l7.651,11.504
		l-0.308-0.263l-0.683,14.917l-3.399,18.378l-6.517,8.802l-3.625,14.154l4.961,3.517l-1.241-2.625l1.922-7.52
		c0,0,3.2,8.281,2.814,9.452c-0.386,1.168-1.864,7.907-2.25,8.521c-0.387,0.614,4.764-6.027,4.701-8.085
		c-0.063-2.059,0.085-7.567,0.085-7.567s1.935,12.123,1.501,15.13l-1.076,5.303l2.309-2.303c0,0,2.786-19.143,1.345-23.205
		c0,0,5.017,12.331,5.102,20.511c0,0,3.239-12.644,0.2-21.98c0,0,0.367-6.179-0.364-8.458l-0.13-0.279c0,0,5.416-23.736,5.286-25.85
		c0,0,2.442-10.854,0.259-16.047l-0.051,0.773l-1.301-5.042c0,0-3.976-7.194-5.491-9.086c0,0-7.827-18.929-9.02-20.547l0.005,0.002
		l-0.008-0.006c-0.022-0.029-0.047-0.066-0.064-0.083l-0.098-0.043l-3.732-2.902c0,0,0.529-3.709-8.138-2.279l0.474-0.221
		c0,0-0.594-1.977-2.128-2.869l1.79-3.936l0.16-4.297l-1.758-0.77c0,0,0.894-4.887,0.566-5.667c0,0-1.089-4.481-6.805-6.552
		l-5.925-1.574c0,0-2.918-0.619-5.561,0.335l-4.075,1.663c0,0-1.778,0.073-2.693,0.857l-1.8,0.917c0,0-0.432,2.205-0.487,2.811
		c0,0-2.367,1.283-2.65,1.819c0,0-1.323-0.145-2.094,1.612l-4.265,3.078l0.518,2.017l3.521-0.569L327.702,263
		c0.852-0.324,4.354-1.696,7.831-1.427c3.932,0.304,3.982,2.278,3.982,2.278l-4.194,4.692c-1.272-1.135-1.892-2.549-1.892-2.549
		c-0.945,0.95-0.782,3.269-0.782,3.269l-2.994,1.476l4.668,4.127l5.428-1.625l0.875,5.125l-15.879,12.826l-7.815,16.3l-7.328,11.821
		l-5.747-5.267c0,0-1.051-3.741-1.532-4.306c0,0-1.797-6.772-3.301-7.532c0,0-4.732-4.911-8.9-4.332c0,0-2.438,3.114-2.07,4.8
		c0,0,1.351-2.243,3.209-1.487l4.505,1.681l-0.845,2.39l-3.979-1.006c0,0-4.875,0.067-6.3,0.951c0,0-3.993,3.706-4.325,4.289
		c0,0-2.656,4.405-2.021,6.268l2.228-2.938c0,0,1.614-1.449,1.56-2.544c0,0,3.69-3.028,4.399-3.252c0,0,4.498,0.535,4.988,0.184
		c0,0,2.243,0.943,2.435,1.198c0,0-1.251,0.498-2.769,0.7c0,0-4.25,1.255-5.315,1.086c0,0-3.237,2.168-3.841,3.568
		c0,0-1.847,5.055-2.941,6.125l-0.176,0.48c0,0,2.73-1.663,4.111-3.492l2.323-3.105c0,0,2.045-0.478,3.066-0.911
		c0,0,2.807,1.544,3.656,1.156l-4.458,2.642c0,0-3.383,1.535-4.475,2.396c-0.063,0.048-0.119,0.097-0.165,0.14
		c-0.856,0.821-1.649,0.174-1.398,4.578l1.391,1.374c0,0-0.312-2.841-0.183-3.155c0,0,1.965-0.943,2.194-1.346
		c0,0,1.122-1.073,1.565-1.256c0,0,2.891,0.193,4.065-0.591c0,0,1.461,1.171,3.676-0.423c0,0,1.531,0.291,2.075,1.376
		c0,0,2.927,2.17,5.152,3.874c0,0,4.296,3.606,6.792,6.191c0,0,4.692,5.139,11.583-6.958c0,0,14.189-15.958,13.965-17.119
		 M350.736,402.411l-0.848,26.939l-5.653,19.066h-39.411l30.478-12.891l-5.448-12.881l-8.273-13.632l-0.067,0.039l-3.481-18.73
		l12.259-12.164l12.913,2.421L350.736,402.411z"/>
</g>
<g id="_x38_">
	<g>
		<path fill="none" stroke="#010101" d="M438.391,294.291l0.222-0.17c-1.98,2.108-21.333,8.596-21.333,8.596l-2.185-7.483
			c0,0,1.04-3.744,0.921-4.477c0,0,1.975-6.722,1.082-8.153c0,0-1.501-6.652-5.366-8.317c0,0-3.699,1.399-4.258,3.032
			c0,0,2.318-1.217,3.515,0.392l2.981,3.772l-1.962,1.606l-2.88-2.923c0,0-4.204-2.47-5.88-2.452c0,0-5.336,1.099-5.923,1.426
			c0,0-4.554,2.391-4.977,4.313l3.428-1.358c0,0,2.132-0.402,2.653-1.367c0,0,4.725-0.677,5.448-0.501c0,0,3.569,2.789,4.17,2.743
			c0,0,1.43,1.97,1.462,2.287c0,0-1.328-0.222-2.731-0.837c0,0-4.285-1.13-5.108-1.826c0,0-3.893,0.177-5.135,1.06
			c0,0-4.199,3.365-5.69,3.714l-0.4,0.32c0,0,3.197-0.007,5.326-0.855l3.596-1.452c0,0,1.996,0.652,3.094,0.811
			c0,0,1.6,2.775,2.527,2.883l-5.182-0.052c0,0-3.688-0.441-5.069-0.271c-0.079,0.009-0.151,0.021-0.214,0.035
			c-1.157,0.259-1.5-0.706-3.568,3.19l0.478,1.896c0,0,1.206-2.592,1.479-2.793c0,0,2.169,0.211,2.574-0.014
			c0,0,1.515-0.336,1.99-0.264c0,0,2.372,1.664,3.783,1.602c0,0,0.643,1.759,3.363,1.544c0,0,1.159,1.042,1.061,2.252
			c0,0,1.378,3.374,2.398,5.984c0,0,1.805,5.311,2.6,8.816c0,0,1.349,6.826,13.513,0.053c0,0,14.73-6.233,20.228-8.688
			 M415.857,414.047l0.252,8.209l-14.919,8.185l-5.63,9.725l-0.364,5.086h-0.823v12.504h6.784v11h85.039v-11h5.744v-8.757h1.099
			l-1.54-13.216l-8.852-4.617l-9.545-3.079l3.615-28.479l-12.029-24.758l8.209-36.945l6.129-38.085l1.562-1.306l1.82,1.558
			l7.831,11.716l-0.308-0.263l-2.954,14.24l-5.616,17.827l-7.542,7.941l-5.326,13.605l4.495,4.097l-0.912-2.756l2.825-7.23
			c0,0,2.166,8.61,1.64,9.725c-0.525,1.113-2.814,7.621-3.273,8.184c-0.459,0.562,5.464-5.401,5.652-7.452
			c0.188-2.051,1.009-7.5,1.009-7.5s0.44,12.269-0.356,15.2l-1.716,5.132l2.573-2.004c0,0,5.101-18.66,4.167-22.867
			c0,0,3.475,12.851,2.561,20.98c0,0,4.757-12.154,2.88-21.792c0,0,1.119-6.088,0.671-8.438l-0.095-0.293
			c0,0,8.271-22.897,8.4-25.012c0,0,3.748-10.476,2.214-15.896l-0.065,0.177l-1.385-5.369c0,0-3.976-7.194-5.491-9.086
			c0,0-7.828-18.931-9.02-20.547l0.005,0.002l-0.008-0.006c-0.022-0.029-0.047-0.066-0.064-0.083l-0.107-0.05l-3.724-2.895
			c0,0-2.846-5.602-11.513-4.171c0,0-0.95-1.832-2.623-2.424l1.029-4.199l-0.639-4.252l-1.87-0.431c0,0-0.028-4.967-0.495-5.673
			c0,0-1.901-4.202-7.901-5.178l-6.114-0.448c0,0-2.983-0.067-5.402,1.36l-3.696,2.389c0,0-1.734,0.402-2.488,1.342l-1.599,1.234
			c0,0-0.016,2.247,0.042,2.852c0,0-2.088,1.699-2.268,2.278c0,0-1.327,0.104-1.758,1.973l-3.621,3.815l0.882,1.885l3.354-1.211
			l0.188,4.899c0.777-0.477,4.721-2.616,8.188-2.996c3.92-0.429,7.361,0.93,7.361,0.93l-7.034,6.101
			c-1.46-0.879-2.332-2.154-2.332-2.154c-0.752,1.108-0.163,3.357-0.163,3.357l-2.668,2.005l5.51,1.646l6.416-1.983l2.308,1.983
			l-4.646,4.445l-2.244,9.669l-6.961,5.72 M444.42,302.365l-1.026,24.392l-6.132,35.662l-12.785,12.839l-10.331,9.342l1.711,29.448
			 M456.369,382.709l6.112,17.284l-1,26.938l-5.432,18.32h-55.543l34.725-6.453l-2.555-13.749l-4.153-15.092"/>
		<polyline fill="none" stroke="#010101" points="428.524,409.958 429.154,387.69 445.087,373.602 452.399,375.296 456.369,382.709 
					"/>
	</g>
</g>
<g id="_x39_">
	<g>
		<line fill="none" stroke="#000000" stroke-miterlimit="10" x1="123.118" y1="553.135" x2="113.466" y2="540.631"/>
		<path fill="none" stroke="#000000" stroke-miterlimit="10" d="M133.912,549.09"/>
		<path fill="none" stroke="#000000" stroke-miterlimit="10" d="M106.11,508.424c0,0-0.594-1.977-2.128-2.867l1.79-3.937l0.16-4.296
			l-1.758-0.771c0,0,0.894-4.887,0.566-5.666c0,0-1.089-4.48-6.805-6.552l-5.925-1.573c0,0-6.767-0.619-9.409,0.334"/>
		<path fill="none" stroke="#000000" stroke-miterlimit="10" d="M83.219,482.68c-5.716,2.07-6.805,6.552-6.805,6.552
			c-0.328,0.78,0.565,5.666,0.565,5.666l-1.758,0.771l0.16,4.297l1.79,3.936c-1.535,0.893-2.128,2.868-2.128,2.868
			c-5.678,0.013-5.148,7.948-5.148,7.948l-0.68,2.84"/>
		<path fill="none" stroke="#000000" stroke-miterlimit="10" d="M74.989,544.084"/>
		<path fill="none" stroke="#000000" stroke-miterlimit="10" d="M77.298,544.084"/>
		<path fill="none" stroke="#000000" stroke-miterlimit="10" d="M122.809,552.872"/>
		<path fill="none" stroke="#000000" stroke-miterlimit="10" d="M95.986,504.703c0,0-2.052-5.113-6.67-7.386c0,0-2.951-0.378-4.49,0
			c0,0-3.041,0.946-5.305,6.438l2.867,0.947l1.002-3.102l2.077,3.102h5.808v-3.777l2.273,3.777H95.986z"/>
		<line fill="none" stroke="#000000" stroke-miterlimit="10" x1="47.1" y1="626.011" x2="54.558" y2="655.424"/>
		<line fill="none" stroke="#000000" stroke-miterlimit="10" x1="65.984" y1="647.979" x2="62.502" y2="629.249"/>
		<g>
			<path fill="none" stroke="#000000" stroke-miterlimit="10" d="M61.4,545.957l-4.533,9.146l-14.929,8.215
				c0,0-3.808-0.775-4.53-0.606c0,0-6.843-1.501-8.208-0.51"/>
			<path fill="none" stroke="#000000" stroke-miterlimit="10" d="M29.199,562.202c0,0-6.531,1.962-7.923,5.934
				c0,0,1.654,3.593,3.322,4.036c0,0-1.377-2.229,0.146-3.534l3.555-3.237l1.74,1.844l-2.714,3.078c0,0-2.17,4.366-2.036,6.037
				c0,0,1.469,5.248,1.835,5.81c0,0,2.703,4.376,4.65,4.663l-1.594-3.325c0,0-0.55-2.099-1.549-2.55c0,0-1.005-4.667-0.88-5.4
				c0,0,2.533-3.755,2.445-4.352c0,0,1.865-1.562,2.179-1.617c0,0-0.129,1.341-0.644,2.782c0,0-0.828,4.354-1.465,5.224
				c0,0,0.448,3.87,1.416,5.048c0,0,3.65,3.954,4.102,5.417l0.348,0.376c0,0-0.23-3.188-1.226-5.253l-1.699-3.486
				c0,0,0.511-2.037,0.592-3.143c0,0,2.656-1.791,2.7-2.723l0.31,5.173c0,0-0.183,3.71,0.084,5.075
				c0.014,0.078,0.032,0.15,0.049,0.211c0.339,1.137-0.599,1.545,3.432,3.337l1.858-0.608c0,0-2.669-1.021-2.89-1.28
				c0,0,0.06-2.179-0.193-2.567c0,0-0.441-1.487-0.402-1.965c0,0,1.494-2.482,1.334-3.887c0,0,1.71-0.764,1.305-3.462
				c0,0,0.959-1.229,2.173-1.216c0,0,3.269-1.61,5.801-2.81c0,0,5.172-2.171,8.613-3.209l6.331-4.835
				c0,0,13.214-16.434,12.989-17.596"/>
		</g>
		<g>
			<line fill="none" stroke="#000000" stroke-miterlimit="10" x1="142.981" y1="571.889" x2="134.169" y2="549.238"/>
			<path fill="none" stroke="#000000" stroke-miterlimit="10" d="M123.27,553.381c0.35,2.09,10.989,23.988,10.989,23.988"/>
			<path fill="none" stroke="#000000" stroke-miterlimit="10" d="M134.195,577.67c-0.197,2.385,1.556,8.322,1.556,8.322
				c-0.851,9.781,5.161,21.366,5.161,21.366c-1.766-7.987,0.336-21.133,0.336-21.133c-0.487,4.282,6.552,22.301,6.552,22.301
				l2.771,1.722l-2.247-4.923c-1.102-2.831-1.956-15.077-1.956-15.077s1.389,5.332,1.792,7.352s6.922,7.325,6.406,6.814
				c-0.516-0.512-3.478-6.741-4.118-7.793c-0.64-1.053,0.606-9.843,0.606-9.843l3.571,6.892l-0.617,2.837l4.038-4.548l-6.729-12.969
				l-8.337-7.102"/>
		</g>
		<g>
			<polyline fill="none" stroke="#010101" points="54.723,655.406 57.544,662.403 44.731,673.602 41.32,684.308 41.493,685.49 
				36.345,685.49 36.345,697.994 43.128,697.994 43.128,708.994 128.167,708.994 128.167,697.994 133.912,697.994 133.912,685.49 
				125.35,685.49 124.376,677.129 115.525,672.512 107.979,669.432 111.982,640.954 101.565,616.195 			"/>
			<polyline fill="none" stroke="#010101" points="88.673,619.502 98.207,641.339 94.358,668.277 89.255,685.49 53.679,685.49 
				79.773,674.453 74.325,661.573 66.052,647.939 			"/>
			<polyline fill="none" stroke="#010101" points="88.673,619.502 86.277,614.016 78.965,611.321 62.032,629.408 			"/>
			<polyline fill="none" stroke="#010101" points="47.023,625.945 71.14,604.137 76.271,568.476 77.298,544.084 			"/>
			<polyline fill="none" stroke="#010101" points="113.466,539.86 111.904,541.166 107.522,568.395 			"/>
			<polygon fill="none" stroke="#010101" points="107.522,568.395 101.565,616.195 105.775,579.252 			"/>
			<path fill="none" stroke="#010101" d="M134.169,549.238l-1.514-5.869c0,0-3.063-5.543-4.837-8.178"/>
			<path fill="none" stroke="#010101" d="M124.123,527.018c-2.339-5.53-5.282-12.338-5.977-13.281l0.004,0.002l-0.007-0.006
				c-0.022-0.029-0.047-0.066-0.064-0.084l0.023,0.053l-3.854-2.998c0,0,0.529-3.709-8.138-2.279"/>
			<path fill="none" stroke="#010101" d="M118.111,513.721"/>
			<path fill="none" stroke="#010101" d="M124.123,527.018c1.677,3.963,3.042,7.266,3.042,7.266c0.185,0.23,0.407,0.543,0.654,0.908
				"/>
		</g>
		<path fill="none" stroke="#000000" stroke-miterlimit="10" d="M69.215,517.154c0,0-0.475,11.681,0,12.965L61.4,545.957"/>
	</g>
</g>
<g id="_x31_0">
	<g>
		<g>
			<polyline fill="none" stroke="#000000" stroke-miterlimit="10" points="201.809,539.226 203.275,540.639 205.228,578.184 
				208.818,612.615 			"/>
			<path fill="none" stroke="#000000" stroke-miterlimit="10" d="M197.57,511.879c-1.011,0.876-8.267,20.873-8.267,20.873
				c-1.645,1.781-3.813,8.84-3.813,8.84l-5.905,27.463"/>
		</g>
		<path fill="none" stroke="#000000" stroke-miterlimit="10" d="M232.039,483.682c-2.568-1.139-9.362-0.996-9.362-0.996
			l-6.021,1.152c-5.847,1.664-7.249,6.057-7.249,6.057c-0.382,0.756,0.166,5.692,0.166,5.692l-1.808,0.646l-0.143,4.297l1.509,4.052
			c-1.594,0.781-1.557,2.765-1.557,2.765"/>
		<path fill="none" stroke="#000000" stroke-miterlimit="10" d="M231.451,483.223c5.556,2.467,6.327,7.014,6.327,7.014
			c0.272,0.801-0.963,5.612-0.963,5.612l1.7,0.892l-0.462,4.275l-2.062,3.8c1.468,0.997,1.921,3.011,1.921,3.011
			c5.663,0.412,7.647,8.508,7.647,8.508l0.829,2.998l-1.234,12.414l6.649,16.809"/>
		<path fill="none" stroke="#000000" stroke-miterlimit="10" d="M238.413,545.27"/>
		<path fill="none" stroke="#000000" stroke-miterlimit="10" d="M236.109,545.107"/>
		<path fill="none" stroke="#000000" stroke-miterlimit="10" d="M214.094,504.076c0,0,2.407-4.956,7.174-6.898
			c0,0,2.97-0.169,4.479,0.316c0,0,2.967,1.158,4.838,6.796l-2.927,0.743l-0.781-3.165l-2.29,2.948l-5.794-0.408l0.266-3.769
			l-2.533,3.608L214.094,504.076z"/>
		<path fill="none" stroke="#000000" stroke-miterlimit="10" d="M250.573,633.518"/>
		<g>
			<path fill="none" stroke="#000000" stroke-miterlimit="10" d="M281.318,571.772c-1.145-1.238-8.149-1.104-8.149-1.104
				c-0.676-0.308-4.562-0.291-4.562-0.291l-6.643-4.078l-6.583-7.613l-4.023-11.254"/>
			<path fill="none" stroke="#000000" stroke-miterlimit="10" d="M236.104,545.215c-0.306,1.143,11.718,18.465,11.718,18.465
				l4.411,6.803c3.172,1.689,7.819,4.83,7.819,4.83c2.25,1.672,5.141,3.89,5.141,3.89c1.192,0.224,1.893,1.617,1.893,1.617
				c-0.924,2.567,0.604,3.651,0.604,3.651c-0.432,1.344,0.549,4.07,0.549,4.07c-0.055,0.477-0.778,1.85-0.778,1.85
				c-0.324,0.332-0.691,2.48-0.691,2.48c-0.266,0.209-3.084,0.69-3.084,0.69l1.704,0.96c4.303-0.969,3.464-1.554,4.018-2.602
				c0.029-0.057,0.06-0.123,0.089-0.197c0.529-1.287,1.075-4.961,1.075-4.961l1.315-5.013c-0.14,0.923,2.115,3.196,2.115,3.196
				c-0.136,1.102-0.033,3.199-0.033,3.199l-2.349,3.087c-1.379,1.83-2.228,4.912-2.228,4.912l0.414-0.301
				c0.729-1.347,5.081-4.511,5.081-4.511c1.18-0.965,2.375-4.674,2.375-4.674c-0.455-0.979-0.416-5.409-0.416-5.409
				c-0.224-1.515-0.088-2.854-0.088-2.854c0.297,0.115,1.821,2.012,1.821,2.012c-0.203,0.568,1.547,4.746,1.547,4.746
				c-0.02,0.743-1.917,5.123-1.917,5.123c-1.068,0.249-2.018,2.199-2.018,2.199l-2.213,2.949c1.966,0.1,5.472-3.665,5.472-3.665
				c0.47-0.479,2.936-5.338,2.936-5.338c0.459-1.612-0.816-6.318-0.816-6.318l-2.06-3.549l2.066-1.47l2.854,3.871
				c1.238,1.578-0.547,3.494-0.547,3.494c1.722-0.109,4.046-3.309,4.046-3.309c-0.589-4.168-6.61-7.368-6.61-7.368"/>
		</g>
		<g>
			<line fill="none" stroke="#000000" stroke-miterlimit="10" x1="179.586" y1="569.055" x2="176.104" y2="581.061"/>
			<path fill="none" stroke="#000000" stroke-miterlimit="10" d="M185.578,585.105c0,0,8.942-16.992,8.961-19.109l2.167-6.819
				l5.049-19.183"/>
			<path fill="none" stroke="#000000" stroke-miterlimit="10" d="M176.104,581.061"/>
		</g>
		<path fill="none" stroke="#000000" stroke-miterlimit="10" d="M176.667,581.101l-9.64,5.198l-9.296,11.271l2.996,5.293
			l-0.008-2.903l4.935-5.991c0,0-0.623,8.856-1.468,9.752c-0.846,0.895-5.047,6.365-5.658,6.758
			c-0.611,0.391,6.874-3.432,7.691-5.322c0.817-1.89,3.293-6.813,3.293-6.813s-3.4,11.796-5.071,14.334l-3.228,4.343l3.069-1.103
			c0,0,10.656-16.146,11.078-20.435c0,0-0.698,13.294-4.098,20.734c0,0,8.304-10.068,9.521-19.812c0,0,4.488-8.927,4.794-11.3"/>
		<g>
			<line fill="none" stroke="#000000" stroke-miterlimit="10" x1="248.169" y1="660.721" x2="250.566" y2="633.518"/>
			<line fill="none" stroke="#000000" stroke-miterlimit="10" x1="236.073" y1="634.588" x2="235.458" y2="655.784"/>
		</g>
		<g>
			<path fill="none" stroke="#010101" d="M207.574,507.346c-8.545-2.035-9.046,1.648-9.046,1.648l-1.035,2.968"/>
			<polyline fill="none" stroke="#010101" points="236.109,545.107 235.417,569.511 241.331,605.607 250.654,633.457 			"/>
			<polyline fill="none" stroke="#010101" points="236.073,634.588 229.716,613.061 222.232,615.233 219.46,621.193 			"/>
			<polyline fill="none" stroke="#010101" points="235.383,655.76 230.089,670.803 227.407,684.528 242.426,687.465 
				214.957,687.465 212.354,667.793 210.41,640.65 219.46,621.193 			"/>
			<polyline fill="none" stroke="#010101" points="208.818,612.615 197.688,639.508 200.675,668.268 188.942,670.527 
				179.788,674.511 177.346,687.465 175.312,687.465 175.312,699.969 182.096,699.969 182.096,710.969 267.135,710.969 
				267.135,699.969 272.879,699.969 272.879,687.465 267.138,687.465 267.063,686.266 261.525,676.488 246.682,668.165 
				248.004,660.736 			"/>
		</g>
	</g>
</g>
<g id="Layer_11">
	<g>
		<g>
			<polyline fill="none" stroke="#000000" stroke-miterlimit="10" points="314.572,535.226 316.135,536.532 322.264,574.616 
				325.474,611.562 			"/>
			<path fill="none" stroke="#000000" stroke-miterlimit="10" d="M309.96,509.015c-0.946,0.945-9.087,20.633-9.087,20.633
				c-1.515,1.893-5.491,9.087-5.491,9.087l-1.514,5.868"/>
		</g>
		<line fill="none" stroke="#000000" stroke-miterlimit="10" x1="304.921" y1="548.5" x2="314.572" y2="535.995"/>
		<path fill="none" stroke="#000000" stroke-miterlimit="10" d="M294.127,544.456"/>
		<path fill="none" stroke="#000000" stroke-miterlimit="10" d="M345.439,478.462c-2.642-0.954-9.409-0.336-9.409-0.336
			l-5.925,1.574c-5.716,2.07-6.805,6.553-6.805,6.553c-0.328,0.779,0.565,5.666,0.565,5.666l-1.758,0.77l0.16,4.297l1.79,3.936
			c-1.535,0.893-2.128,2.869-2.128,2.869"/>
		<path fill="none" stroke="#000000" stroke-miterlimit="10" d="M344.82,478.045c5.716,2.071,6.805,6.552,6.805,6.552
			c0.328,0.779-0.566,5.666-0.566,5.666l1.758,0.771l-0.16,4.296l-1.79,3.937c1.534,0.891,2.128,2.867,2.128,2.867
			c5.678,0.014,5.148,7.949,5.148,7.949l1.038,2.932l-0.358,12.471l7.815,16.299l7.328,11.822l5.747-5.268
			c0,0,1.052-3.74,1.533-4.307c0,0,1.796-6.771,3.301-7.531"/>
		<path fill="none" stroke="#000000" stroke-miterlimit="10" d="M353.05,539.45"/>
		<path fill="none" stroke="#000000" stroke-miterlimit="10" d="M350.741,539.45"/>
		<line fill="none" stroke="#000000" stroke-miterlimit="10" x1="305.912" y1="563.154" x2="305.229" y2="548.237"/>
		<line fill="none" stroke="#000000" stroke-miterlimit="10" x1="309.311" y1="581.532" x2="305.912" y2="563.154"/>
		<path fill="none" stroke="#000000" stroke-miterlimit="10" d="M294.031,543.003c-2.184,5.193,0.259,16.047,0.259,16.047
			c-0.13,2.114,5.286,25.851,5.286,25.851"/>
		<path fill="none" stroke="#000000" stroke-miterlimit="10" d="M299.445,585.18c-0.731,2.278-0.364,8.458-0.364,8.458
			c-3.039,9.336,0.2,21.98,0.2,21.98c0.084-8.181,5.102-20.512,5.102-20.512c-1.441,4.062,1.345,23.205,1.345,23.205l2.309,2.303
			l-1.076-5.303c-0.433-3.008,1.501-15.131,1.501-15.131s0.149,5.51,0.086,7.568c-0.064,2.058,5.088,8.699,4.7,8.085
			c-0.387-0.614-1.865-7.353-2.25-8.521c-0.385-1.171,2.814-9.452,2.814-9.452l1.922,7.521l-1.242,2.624l4.961-3.517l-3.625-14.153
			l-6.517-8.803"/>
		<path fill="none" stroke="#000000" stroke-miterlimit="10" d="M328.974,500.069c0,0,2.052-5.113,6.67-7.387
			c0,0,2.951-0.378,4.49,0c0,0,3.041,0.947,5.305,6.439l-2.868,0.947l-1.001-3.103l-2.077,3.103h-5.809v-3.777l-2.273,3.777H328.974
			z"/>
		<path fill="none" stroke="#000000" stroke-miterlimit="10" d="M350.744,539.558c-0.225,1.16,12.989,17.595,12.989,17.595
			c6.892,12.097,11.583,6.958,11.583,6.958c2.497-2.584,6.793-6.191,6.793-6.191c2.225-1.703,5.152-3.873,5.152-3.873
			c0.543-1.086,2.075-1.377,2.075-1.377c2.215,1.595,3.677,0.424,3.677,0.424c1.174,0.783,4.065,0.59,4.065,0.59
			c0.444,0.184,1.565,1.257,1.565,1.257c0.229,0.402,2.194,1.346,2.194,1.346c0.129,0.314-0.184,3.155-0.184,3.155l1.391-1.374
			c0.251-4.404-0.542-3.757-1.398-4.578c-0.046-0.044-0.102-0.092-0.165-0.14c-1.091-0.862-4.474-2.396-4.474-2.396l-4.458-2.643
			c0.849,0.389,3.656-1.155,3.656-1.155c1.021,0.434,3.066,0.911,3.066,0.911l2.323,3.105c1.381,1.829,4.111,3.492,4.111,3.492
			l-0.176-0.48c-1.094-1.07-2.941-6.125-2.941-6.125c-0.604-1.4-3.841-3.568-3.841-3.568c-1.065,0.168-5.315-1.086-5.315-1.086
			c-1.518-0.202-2.769-0.7-2.769-0.7c0.192-0.255,2.435-1.198,2.435-1.198c0.49,0.352,4.988-0.184,4.988-0.184
			c0.709,0.224,4.399,3.252,4.399,3.252c-0.055,1.096,1.56,2.544,1.56,2.544l2.228,2.938c0.635-1.863-2.02-6.269-2.02-6.269
			c-0.333-0.583-4.326-4.289-4.326-4.289c-1.425-0.884-6.3-0.951-6.3-0.951l-3.978,1.006l-0.845-2.39l4.505-1.682
			c1.858-0.756,3.209,1.487,3.209,1.487c0.368-1.687-2.07-4.8-2.07-4.8c-4.168-0.58-8.9,4.332-8.9,4.332"/>
		<line fill="none" stroke="#000000" stroke-miterlimit="10" x1="373.481" y1="650.79" x2="380.939" y2="621.376"/>
		<line fill="none" stroke="#000000" stroke-miterlimit="10" x1="365.536" y1="624.614" x2="362.055" y2="643.345"/>
		<g>
			<path fill="none" stroke="#010101" d="M321.929,503.79c-8.667-1.431-8.138,2.279-8.138,2.279l-3.902,3.033"/>
			<polyline fill="none" stroke="#010101" points="350.741,539.45 351.768,563.841 356.899,599.503 381.016,621.311 			"/>
			<polyline fill="none" stroke="#010101" points="366.007,624.774 349.074,610.687 341.762,613.38 339.366,618.868 			"/>
			<polyline fill="none" stroke="#010101" points="361.987,643.306 353.714,656.938 348.266,669.819 379.801,683.157 
				341.466,683.157 335.68,663.644 332.832,636.704 339.366,618.868 			"/>
			<polyline fill="none" stroke="#010101" points="325.474,611.562 319.057,636.319 322.06,664.798 312.514,667.876 
				303.663,672.495 302.421,683.157 298.297,683.157 298.297,695.661 305.081,695.661 305.081,706.661 390.12,706.661 
				390.12,695.661 395.864,695.661 395.864,683.157 386.209,683.157 386.719,679.673 383.308,668.966 370.495,657.769 
				373.316,650.771 			"/>
		</g>
	</g>
</g>
<g id="Layer_12">
	<g>
		<g>
			<polyline fill="none" stroke="#000000" stroke-miterlimit="10" points="432.302,537.368 433.864,538.674 439.993,576.759 
				448.203,613.703 			"/>
			<path fill="none" stroke="#000000" stroke-miterlimit="10" d="M427.69,511.156c-0.946,0.945-9.087,20.634-9.087,20.634
				c-1.515,1.893-5.491,9.087-5.491,9.087l-1.514,5.868"/>
		</g>
		<line fill="none" stroke="#000000" stroke-miterlimit="10" x1="422.651" y1="550.643" x2="432.302" y2="538.138"/>
		<path fill="none" stroke="#000000" stroke-miterlimit="10" d="M411.856,546.598"/>
		<path fill="none" stroke="#000000" stroke-miterlimit="10" d="M474.13,532.763"/>
		<path fill="none" stroke="#000000" stroke-miterlimit="10" d="M470.78,541.592"/>
		<path fill="none" stroke="#000000" stroke-miterlimit="10" d="M495.793,521.456c-0.893,1.431,1.082,8.153,1.082,8.153
			c-0.119,0.732,0.921,4.477,0.921,4.477l-2.185,7.482c0,0-19.43-6.513-21.347-8.607"/>
		<path fill="none" stroke="#000000" stroke-miterlimit="10" d="M468.471,541.592c0.41,1.109,20.228,8.314,20.228,8.314
			c12.164,6.773,13.513-0.053,13.513-0.053c0.795-3.506,2.6-8.816,2.6-8.816c1.02-2.61,2.398-5.984,2.398-5.984
			c-0.098-1.209,1.061-2.251,1.061-2.251c2.72,0.216,3.363-1.544,3.363-1.544c1.411,0.062,3.782-1.602,3.782-1.602
			c0.475-0.074,1.99,0.263,1.99,0.263c0.405,0.226,2.574,0.014,2.574,0.014c0.273,0.202,1.479,2.794,1.479,2.794l0.478-1.896
			c-2.068-3.896-2.411-2.932-3.568-3.191c-0.062-0.013-0.135-0.025-0.214-0.034c-1.38-0.171-5.069,0.271-5.069,0.271l-5.182,0.052
			c0.927-0.108,2.527-2.884,2.527-2.884c1.098-0.158,3.094-0.811,3.094-0.811l3.596,1.453c2.129,0.848,5.326,0.855,5.326,0.855
			l-0.4-0.32c-1.491-0.349-5.69-3.714-5.69-3.714c-1.242-0.884-5.134-1.06-5.134-1.06c-0.824,0.695-5.108,1.825-5.108,1.825
			c-1.402,0.614-2.73,0.837-2.73,0.837c0.032-0.316,1.461-2.286,1.461-2.286c0.601,0.046,4.17-2.743,4.17-2.743
			c0.723-0.176,5.448,0.501,5.448,0.501c0.521,0.964,2.653,1.366,2.653,1.366l3.428,1.359c-0.422-1.924-4.977-4.314-4.977-4.314
			c-0.586-0.326-5.922-1.426-5.922-1.426c-1.677-0.018-5.881,2.452-5.881,2.452l-2.88,2.923l-1.961-1.606l2.981-3.772
			c1.197-1.609,3.515-0.393,3.515-0.393c-0.56-1.632-4.258-3.031-4.258-3.031c-3.865,1.666-5.366,8.317-5.366,8.317"/>
		<line fill="none" stroke="#000000" stroke-miterlimit="10" x1="425.914" y1="564.619" x2="422.959" y2="550.379"/>
		<line fill="none" stroke="#000000" stroke-miterlimit="10" x1="431.529" y1="582.446" x2="425.914" y2="564.619"/>
		<path fill="none" stroke="#000000" stroke-miterlimit="10" d="M411.663,546.069c-1.534,5.419,2.215,15.896,2.215,15.896
			c0.128,2.113,8.4,25.012,8.4,25.012"/>
		<path fill="none" stroke="#000000" stroke-miterlimit="10" d="M422.183,587.27c-0.448,2.351,0.671,8.438,0.671,8.438
			c-1.876,9.638,2.88,21.792,2.88,21.792c-0.914-8.129,2.561-20.98,2.561-20.98c-0.935,4.207,4.167,22.867,4.167,22.867l2.573,2.004
			l-1.716-5.132c-0.797-2.932-0.356-15.2-0.356-15.2s0.82,5.449,1.008,7.5c0.188,2.051,6.111,8.014,5.652,7.452
			c-0.459-0.562-2.748-7.07-3.273-8.184c-0.525-1.114,1.64-9.724,1.64-9.724l2.826,7.229l-0.912,2.757l4.495-4.097l-5.326-13.605
			l-7.542-7.94"/>
		<g>
			<polyline fill="none" stroke="#010101" points="468.471,541.592 469.498,565.983 474.629,601.645 487.516,613.298 			"/>
			<polyline fill="none" stroke="#010101" points="498.034,652.9 498.746,623.453 487.516,613.298 			"/>
			<path fill="none" stroke="#010101" d="M443.507,505.932c0,0-0.734-2.382,0.437-3.715l-2.95-3.161l-1.52-4.022l1.421-1.29
				c0,0-2.402-4.349-2.339-5.191c0,0-0.395-4.595,4.364-8.377l5.116-3.379c0,0,2.57-1.515,5.378-1.452l4.392,0.278
				c0,0,1.709-0.496,2.827-0.045l1.998,0.296c0,0,1.112,1.953,1.357,2.51c0,0,2.651,0.462,3.092,0.881c0,0,1.208-0.558,2.498,0.861
				l5.022,1.561l0.151,2.075l-3.518,0.582l2.229,4.367c-0.91-0.036-5.396,0.023-8.607,1.385c-3.63,1.54-5.969,4.408-5.969,4.408
				l9.118,1.887c0.844-1.48,0.982-3.019,0.982-3.019c1.197,0.6,1.781,2.849,1.781,2.849l3.308,0.447l-6.068,5.477l-7.906,1.6
				l-0.744,3.282l-0.642,5.504l5.625,4l2.975,11.098l7.184,5.517"/>
			<path fill="none" stroke="#010101" d="M443.507,505.932"/>
			<polyline fill="none" stroke="#010101" points="485.276,648.082 483.737,626.916 469.804,613.828 461.492,615.522 
				456.556,621.449 			"/>
			<path fill="none" stroke="#010101" d="M443.507,505.932c-8.667-1.43-11.987,2.279-11.987,2.279l-3.902,3.034"/>
			<polyline fill="none" stroke="#010101" points="485.46,647.544 480.307,662.635 477.66,677.652 507.002,683.104 456.544,683.104 
				453.41,665.785 450.41,638.847 456.556,621.449 			"/>
			<polyline fill="none" stroke="#010101" points="448.203,613.703 438.174,638.461 441.789,666.939 430.244,670.019 
				421.392,674.637 420.406,683.104 419.808,683.104 419.808,695.609 426.592,695.609 426.592,706.609 511.631,706.609 
				511.631,695.609 517.375,695.609 517.375,685.031 517.766,685.104 517.331,679.02 511.701,669.295 496.782,661.109 
				498.034,652.9 			"/>
		</g>
	</g>
</g>
</svg>
