<?xml version="1.0" encoding="utf-8"?>
<!-- Generator: Adobe Illustrator 15.0.0, SVG Export Plug-In . SVG Version: 6.00 Build 0)  -->
<!DOCTYPE svg PUBLIC "-//W3C//DTD SVG 1.1//EN" "http://www.w3.org/Graphics/SVG/1.1/DTD/svg11.dtd">
<svg version="1.1" xmlns="http://www.w3.org/2000/svg" xmlns:xlink="http://www.w3.org/1999/xlink" x="0px" y="0px"
	 width="1241.752px" height="1195.271px" viewBox="841.342 0 1241.752 1195.271"
	 enable-background="new 841.342 0 1241.752 1195.271" xml:space="preserve">
<g id="Layer_3">
	<rect x="890.479" y="13" fill="none" stroke="#000000" width="1133.858" height="1133.858"/>
</g>
<g id="Layer_2">
	<g>
		<polygon fill="none" stroke="#000000" points="1633.723,1138.665 1495.587,1058.914 1415.836,920.778 1415.836,761.276 
			1495.587,623.141 1633.723,543.39 1793.225,543.39 1931.361,623.141 2011.112,761.276 2011.112,920.778 1931.361,1058.914 
			1793.225,1138.665 		"/>
		<rect x="1649.695" y="552.579" fill="none" stroke="#000000" width="127.559" height="8.504"/>
		<rect x="1649.695" y="1121.557" fill="none" stroke="#000000" width="127.559" height="8.504"/>
		<rect x="1993.643" y="777.248" fill="none" stroke="#000000" width="8.504" height="127.559"/>
		<rect x="1424.427" y="777.248" fill="none" stroke="#000000" width="8.504" height="127.559"/>
		
			<rect x="1404.724" y="975.41" transform="matrix(-0.5 -0.866 0.866 -0.5 1354.3444 2741.2534)" fill="none" stroke="#000000" width="127.558" height="8.504"/>
		
			<rect x="1894.805" y="693.362" transform="matrix(-0.5 -0.866 0.866 -0.5 2333.7324 2742.604)" fill="none" stroke="#000000" width="127.559" height="8.504"/>
		
			<rect x="1404.724" y="693.363" transform="matrix(0.5 -0.866 0.866 0.5 130.0985 1620.5671)" fill="none" stroke="#000000" width="127.558" height="8.504"/>
		
			<rect x="1896.543" y="975.087" transform="matrix(0.5 -0.866 0.866 0.5 132.0314 2187.3633)" fill="none" stroke="#000000" width="127.558" height="8.504"/>
		
			<rect x="1786.885" y="588.151" transform="matrix(0.866 0.5 -0.5 0.866 544.1448 -845.9663)" fill="none" stroke="#000000" width="127.558" height="8.504"/>
		
			<rect x="1509.656" y="590.06" transform="matrix(-0.866 0.5 -0.5 -0.866 3233.2251 322.2827)" fill="none" stroke="#000000" width="127.558" height="8.504"/>
		
			<rect x="1792.588" y="1082.49" transform="matrix(0.866 -0.5 0.5 0.866 -294.6653 1073.7815)" fill="none" stroke="#000000" width="127.558" height="8.504"/>
		
			<rect x="1506.838" y="1082.49" transform="matrix(0.866 0.5 -0.5 0.866 753.7955 -639.7134)" fill="none" stroke="#000000" width="127.558" height="8.504"/>
		<polygon fill="none" stroke="#000000" points="1641.761,1108.667 1517.548,1036.954 1445.835,912.74 1445.835,769.314 
			1517.548,645.102 1641.761,573.388 1785.187,573.388 1909.4,645.102 1981.113,769.314 1981.113,912.74 1909.4,1036.954 
			1785.187,1108.667 		"/>
	</g>
	<g>
		<polygon fill="none" stroke="#000000" points="1779.28,314.015 1765.912,314.015 1765.912,441.574 1779.28,441.574 
			1779.28,445.827 2006.051,445.827 2006.051,441.574 2018.471,441.574 2018.471,314.015 2006.051,314.015 2006.051,309.763 
			1779.28,309.763 		"/>
		<polygon fill="none" stroke="#000000" points="1779.511,174.268 1766.143,174.268 1766.143,301.827 1779.511,301.827 
			1779.511,306.079 2006.283,306.079 2006.283,301.827 2018.701,301.827 2018.701,174.268 2006.283,174.268 2006.283,170.015 
			1779.511,170.015 		"/>
		<polygon fill="none" stroke="#000000" points="1779.396,32.5 1766.028,32.5 1766.028,160.06 1779.396,160.06 1779.396,164.312 
			2006.168,164.312 2006.168,160.06 2018.586,160.06 2018.586,32.5 2006.168,32.5 2006.168,28.249 1779.396,28.249 		"/>
	</g>
	<g>
		<polygon fill="none" stroke="#000000" points="1523.443,314.024 1510.074,314.024 1510.074,441.583 1523.443,441.583 
			1523.443,445.836 1750.214,445.836 1750.214,441.583 1762.634,441.583 1762.634,314.024 1750.214,314.024 1750.214,309.772 
			1523.443,309.772 		"/>
		<polygon fill="none" stroke="#000000" points="1523.674,174.277 1510.306,174.277 1510.306,301.836 1523.674,301.836 
			1523.674,306.088 1750.446,306.088 1750.446,301.836 1762.864,301.836 1762.864,174.277 1750.446,174.277 1750.446,170.024 
			1523.674,170.024 		"/>
		<polygon fill="none" stroke="#000000" points="1523.558,32.51 1510.19,32.51 1510.19,160.068 1523.558,160.068 1523.558,164.321 
			1750.331,164.321 1750.331,160.068 1762.749,160.068 1762.749,32.51 1750.331,32.51 1750.331,28.258 1523.558,28.258 		"/>
	</g>
	<g>
		<polygon fill="none" stroke="#000000" points="1169.563,935.995 1156.195,935.995 1156.195,1063.553 1169.563,1063.553 
			1169.563,1067.806 1396.334,1067.806 1396.334,1063.553 1408.754,1063.553 1408.754,935.995 1396.334,935.995 1396.334,931.743 
			1169.563,931.743 		"/>
		<polygon fill="none" stroke="#000000" points="1169.795,796.248 1156.427,796.248 1156.427,923.806 1169.795,923.806 
			1169.795,928.058 1396.567,928.058 1396.567,923.806 1408.985,923.806 1408.985,796.248 1396.567,796.248 1396.567,791.995 
			1169.795,791.995 		"/>
		<polygon fill="none" stroke="#000000" points="1169.679,654.48 1156.311,654.48 1156.311,782.039 1169.679,782.039 
			1169.679,786.292 1396.451,786.292 1396.451,782.039 1408.869,782.039 1408.869,654.48 1396.451,654.48 1396.451,650.228 
			1169.679,650.228 		"/>
	</g>
	<g>
		<polygon fill="none" stroke="#000000" points="913.726,936.004 900.358,936.004 900.358,1063.562 913.726,1063.562 
			913.726,1067.815 1140.497,1067.815 1140.497,1063.562 1152.917,1063.562 1152.917,936.004 1140.497,936.004 1140.497,931.752 
			913.726,931.752 		"/>
		<polygon fill="none" stroke="#000000" points="913.957,796.257 900.589,796.257 900.589,923.815 913.957,923.815 913.957,928.067 
			1140.729,928.067 1140.729,923.815 1153.147,923.815 1153.147,796.257 1140.729,796.257 1140.729,792.004 913.957,792.004 		"/>
		<polygon fill="none" stroke="#000000" points="913.842,654.489 900.473,654.489 900.473,782.048 913.842,782.048 913.842,786.301 
			1140.614,786.301 1140.614,782.048 1153.032,782.048 1153.032,654.489 1140.614,654.489 1140.614,650.237 913.842,650.237 		"/>
	</g>
	<g>
		<g>
			<polygon fill="none" stroke="#000000" points="1117.44,620.223 979.304,540.472 899.553,402.336 899.553,242.834 
				979.304,104.698 1117.44,24.947 1276.942,24.947 1415.077,104.698 1494.828,242.834 1494.828,402.336 1415.077,540.472 
				1276.942,620.223 			"/>
			<rect x="1133.411" y="34.137" fill="none" stroke="#000000" width="127.559" height="8.504"/>
			<rect x="1133.411" y="603.115" fill="none" stroke="#000000" width="127.559" height="8.504"/>
			<rect x="1477.36" y="258.806" fill="none" stroke="#000000" width="8.504" height="127.559"/>
			<rect x="908.144" y="258.806" fill="none" stroke="#000000" width="8.504" height="127.559"/>
			
				<rect x="888.441" y="456.967" transform="matrix(-0.5 -0.866 0.866 -0.5 1028.9031 1516.4752)" fill="none" stroke="#000000" width="127.558" height="8.504"/>
			
				<rect x="1378.522" y="174.92" transform="matrix(-0.5 -0.866 0.866 -0.5 2008.2847 1517.827)" fill="none" stroke="#000000" width="127.558" height="8.504"/>
			
				<rect x="888.441" y="174.92" transform="matrix(0.5 -0.866 0.866 0.5 320.9414 914.2321)" fill="none" stroke="#000000" width="127.558" height="8.504"/>
			
				<rect x="1380.26" y="456.645" transform="matrix(0.5 -0.866 0.866 0.5 322.8704 1481.0225)" fill="none" stroke="#000000" width="127.558" height="8.504"/>
			
				<rect x="1270.602" y="69.709" transform="matrix(0.866 0.5 -0.5 0.866 215.7543 -657.2827)" fill="none" stroke="#000000" width="127.558" height="8.504"/>
			
				<rect x="993.372" y="71.618" transform="matrix(-0.866 0.5 -0.5 -0.866 2010.6062 -387.0016)" fill="none" stroke="#000000" width="127.558" height="8.504"/>
			
				<rect x="1276.305" y="564.048" transform="matrix(0.866 -0.5 0.5 0.866 -104.6125 746.1812)" fill="none" stroke="#000000" width="127.558" height="8.504"/>
			
				<rect x="990.555" y="564.048" transform="matrix(0.866 0.5 -0.5 0.866 425.4048 -451.0297)" fill="none" stroke="#000000" width="127.558" height="8.504"/>
			<rect x="1154.671" y="51.884" fill="none" stroke="#000000" width="85.039" height="8.504"/>
			<rect x="1154.671" y="584.871" fill="none" stroke="#000000" width="85.039" height="8.504"/>
			<rect x="1460.252" y="282.718" fill="none" stroke="#000000" width="8.504" height="85.039"/>
			<rect x="926.256" y="280.065" fill="none" stroke="#000000" width="8.504" height="85.039"/>
			
				<rect x="925.677" y="446.603" transform="matrix(-0.5 -0.866 0.866 -0.5 1061.8425 1514.7645)" fill="none" stroke="#000000" width="85.039" height="8.504"/>
			
				<rect x="1387.158" y="444.334" transform="matrix(0.5 -0.866 0.866 0.5 326.3545 1462.4337)" fill="none" stroke="#000000" width="85.039" height="8.504"/>
			
				<rect x="925.219" y="184.437" transform="matrix(0.5 -0.866 0.866 0.5 320.4619 932.4334)" fill="none" stroke="#000000" width="85.039" height="8.504"/>
			
				<rect x="1280.855" y="84.82" transform="matrix(0.866 0.5 -0.5 0.866 221.8348 -649.7538)" fill="none" stroke="#000000" width="85.039" height="8.504"/>
			
				<rect x="1023.998" y="86.67" transform="matrix(0.866 -0.5 0.5 0.866 97.423 545.4351)" fill="none" stroke="#000000" width="85.039" height="8.504"/>
			
				<rect x="1385.623" y="185.958" transform="matrix(-0.5 -0.866 0.866 -0.5 1977.4868 1522.1218)" fill="none" stroke="#000000" width="85.039" height="8.504"/>
			
				<rect x="1285.459" y="549.548" transform="matrix(0.866 -0.5 0.5 0.866 -98.9849 738.1845)" fill="none" stroke="#000000" width="85.039" height="8.504"/>
			
				<rect x="1019.621" y="548.224" transform="matrix(0.866 0.5 -0.5 0.866 418.538 -457.0526)" fill="none" stroke="#000000" width="85.039" height="8.504"/>
		</g>
		<circle fill="none" stroke="#000000" cx="1197.191" cy="322.585" r="5.669"/>
	</g>
	<rect x="560.69" y="123.172" fill="none" width="208" height="112"/>
	<text transform="matrix(1 0 0 1 560.6902 151.3486)" fill="#231F20" font-family="'MyriadPro-Regular'" font-size="39.685">210</text>
</g>
</svg>
