<?xml version="1.0" encoding="utf-8"?>
<!-- Generator: Adobe Illustrator 15.0.0, SVG Export Plug-In . SVG Version: 6.00 Build 0)  -->
<!DOCTYPE svg PUBLIC "-//W3C//DTD SVG 1.1//EN" "http://www.w3.org/Graphics/SVG/1.1/DTD/svg11.dtd">
<svg version="1.1" xmlns="http://www.w3.org/2000/svg" xmlns:xlink="http://www.w3.org/1999/xlink" x="0px" y="0px" width="2684px"
	 height="926px" viewBox="0 0 2684 926" enable-background="new 0 0 2684 926" xml:space="preserve">
<g id="Layer_1">
</g>
<g id="Layer_2">
	<g id="HXnFfw_1_">
		
			<image overflow="visible" width="1379" height="2048" id="HXnFfw_2_" xlink:href="76B659F2.jpg"  transform="matrix(0.3016 0 0 0.3016 100.1528 47.9678)">
		</image>
	</g>
	<path fill="none" stroke="#000000" stroke-miterlimit="10" d="M1877.58,805"/>
	<polygon fill="none" stroke="#000000" stroke-miterlimit="10" points="1208.5,850.069 1080.5,850.069 1080.5,862.146 
		1088.814,862.146 1088.814,880.641 1202.201,880.641 1202.201,862.146 1208.5,862.146 	"/>
	<path fill="none" stroke="#000000" stroke-miterlimit="10" d="M824.684,698.506c0.023-4.984-4.129-6.409-4.129-6.409
		c-1.984-1.983-10.251-2.313-10.251-2.313l0.165-1.655c3.639-2.811,15.543,1.158,15.543,1.158c-0.332,2.48,0.662,8.929,0.662,8.929
		l1.652-1.818c3.969-8.929-3.639-12.401-3.639-12.401c-4.794-3.637-12.896-3.472-12.896-3.472l0.827-1.158
		c4.134-1.983,7.11,0.993,7.11,0.993c1.983,0.33,6.613,0.247,6.613,0.247c0.248,1.984,4.712,5.953,4.712,5.953
		c0.993-9.426-4.712-10.666-4.712-10.666c-1.488-3.224-7.689-3.224-7.689-3.224l-3.224-2.728c-6.448-5.209-11.16,0-11.16,0
		l-6.945,5.207c-4.216-1.735-8.68,1.984-8.68,1.984s0,0-0.745,0.249c-0.744,0.247-3.72,3.72-3.72,3.72
		c-3.968,1.735-11.128,8.146-11.128,8.146l0.248-4.308c-0.331-9.26,4.268-26.077,4.268-26.077l3.968-7.936
		c7.605-14.551,0.662-29.433,0.662-29.433c3.968-5.952,3.968-13.227,3.968-13.227c3.637-3.307,7.274-11.573,7.274-11.573
		L787.155,600c5.623-23.479-8.266-32.077-8.266-32.077c-1.322-4.96-10.582-9.121-10.582-9.121v139.704H759.5v12.077h8.314v18.494
		h113.387v-18.494h6.299v-12.077H824.684z M809.311,696.231c5.66-2.071,9.696,1.151,10.878,2.274h-13.33
		C808.308,697.275,809.311,696.231,809.311,696.231z"/>
	<path fill="none" stroke="#000000" stroke-miterlimit="10" d="M936.471,698.616c6.833-2.948,17.913-7.095,17.913-7.095
		c3.473-1.652,7.109-5.455,7.109-5.455c6.779-2.481,11.244,2.645,11.244,2.645c0.992,3.308,2.976,4.63,2.976,4.63
		c3.803-9.094-2.976-11.409-2.976-11.409c-1.984-1.983-10.251-2.313-10.251-2.313l0.165-1.655
		c3.638-2.811,15.543,1.158,15.543,1.158c-0.332,2.48,0.662,8.929,0.662,8.929l1.653-1.818c3.968-8.929-3.639-12.401-3.639-12.401
		c-4.794-3.637-12.896-3.472-12.896-3.472l0.827-1.158c4.133-1.983,7.11,0.993,7.11,0.993c1.983,0.33,6.614,0.247,6.614,0.247
		c0.248,1.984,4.711,5.953,4.711,5.953c0.993-9.426-4.711-10.666-4.711-10.666c-1.488-3.224-7.689-3.224-7.689-3.224l-3.224-2.728
		c-6.448-5.209-11.16,0-11.16,0l-6.945,5.207c-4.216-1.735-8.68,1.984-8.68,1.984s0,0-0.745,0.249c-0.744,0.247-3.72,3.72-3.72,3.72
		c-3.968,1.735-15.128,13.146-15.128,13.146l0.248-3.308c-0.331-9.26,8.268-32.077,8.268-32.077l3.968-7.936
		c7.605-14.551,0.662-29.433,0.662-29.433c3.968-5.952,3.968-13.227,3.968-13.227c3.637-3.307,7.274-11.573,7.274-11.573
		l-6.284,3.306c5.622-23.479-8.266-32.077-8.266-32.077c-1.322-4.96-10.582-9.121-10.582-9.121s-7.341-5.164-12.008,0l0.165,149.979
		h-0.165h-9.51v12.077h8.314v18.494h113.387v-18.494h6.299v-12.077H936.471z"/>
	<path fill="none" stroke="#000000" stroke-miterlimit="10" d="M1108.907,698c6.402-2.919,19.847-7.95,19.847-7.95
		c3.473-1.652,7.109-5.455,7.109-5.455c6.779-2.481,11.244,2.645,11.244,2.645c0.992,3.308,2.977,4.63,2.977,4.63
		c3.803-9.094-2.977-11.409-2.977-11.409c-1.984-1.983-10.251-2.313-10.251-2.313l0.165-1.655
		c3.639-2.811,15.543,1.158,15.543,1.158c-0.332,2.48,0.662,8.929,0.662,8.929l1.652-1.818c3.969-8.929-3.639-12.401-3.639-12.401
		c-4.794-3.637-12.896-3.472-12.896-3.472l0.827-1.158c4.134-1.983,7.11,0.993,7.11,0.993c1.983,0.33,6.613,0.247,6.613,0.247
		c0.248,1.984,4.712,5.953,4.712,5.953c0.993-9.426-4.712-10.666-4.712-10.666c-1.488-3.224-7.689-3.224-7.689-3.224l-3.224-2.728
		c-6.448-5.209-11.16,0-11.16,0l-6.945,5.207c-4.216-1.735-8.68,1.984-8.68,1.984s0,0-0.745,0.249c-0.744,0.247-3.72,3.72-3.72,3.72
		c-3.968,1.735-15.128,13.146-15.128,13.146l0.248-3.308c-0.331-9.26,8.268-32.077,8.268-32.077l3.968-7.936
		c7.605-14.551,0.661-29.433,0.661-29.433c3.969-5.952,3.969-13.227,3.969-13.227c3.637-3.307,7.274-11.574,7.274-11.574
		l-6.284,3.307c5.623-23.479-8.266-32.077-8.266-32.077c-1.322-4.96-10.582-9.12-10.582-9.12
		c-11.575-12.761-22.487,3.83-22.487,3.83c-7.274-0.992-14.16,9.258-14.16,9.258V698h-7.572v12.077h8.314v18.494h113.387v-18.494
		h6.299V698H1108.907z"/>
	<path fill="none" stroke="#000000" stroke-miterlimit="10" d="M1349.883,660.741c-1.741-3.773-8.996-3.773-8.996-3.773
		l-3.771-3.191c-7.544-6.093-13.059,0-13.059,0l-8.124,6.094c-4.934-2.031-10.156,2.321-10.156,2.321s0,0-0.872,0.291
		c-0.871,0.29-4.353,4.352-4.353,4.352c-4.642,2.031-17.7,15.38-17.7,15.38l0.291-3.869c-0.386-10.834,7.573-17.235,7.573-17.235
		l1.843-9.284c8.899-17.023,8.474-36.534,8.474-36.534c4.642-6.964,8.141-13.377,8.141-13.377
		c4.257-3.868,8.512-13.541,8.512-13.541l-7.351,3.869c6.577-27.471-9.672-37.529-9.672-37.529
		c-1.548-5.805-12.381-10.672-12.381-10.672c-13.543-14.93-24.211,4.481-24.211,4.481c-8.512-1.161-16.568,10.833-16.568,10.833
		s-17.632-1.793-22.745,0.54V698.43h-8.477v12.077h8.314v18.494h113.387v-18.494h6.299V698.43h-41.74
		c7.991-3.354,19.099-7.51,19.099-7.51c4.063-1.935,8.318-6.384,8.318-6.384c7.933-2.903,13.155,3.095,13.155,3.095
		c1.161,3.87,3.482,5.417,3.482,5.417c4.448-10.642-3.482-13.349-3.482-13.349c-2.32-2.32-11.993-2.708-11.993-2.708l0.192-1.936
		c4.257-3.288,18.185,1.355,18.185,1.355c-0.386,2.901,0.774,10.446,0.774,10.446l1.936-2.128c4.642-10.445-4.257-14.51-4.257-14.51
		c-5.61-4.254-15.091-4.062-15.091-4.062l0.969-1.354c4.836-2.321,8.318,1.162,8.318,1.162c2.321,0.386,7.737,0.287,7.737,0.287
		c0.29,2.323,5.514,6.967,5.514,6.967C1356.558,662.191,1349.883,660.741,1349.883,660.741z"/>
	<path fill="none" stroke="#000000" stroke-miterlimit="10" d="M1568.182,645.856c-1.629-3.53-8.417-3.53-8.417-3.53l-3.529-2.985
		c-7.059-5.701-12.216,0-12.216,0l-7.602,5.7c-4.615-1.9-9.502,2.173-9.502,2.173s0,0-0.815,0.271
		c-0.814,0.271-4.072,4.071-4.072,4.071c-4.343,1.9-16.561,14.39-16.561,14.39l0.273-3.62c-0.363-10.136,9.049-35.112,9.049-35.112
		l4.344-8.688c8.326-15.927,0.725-32.216,0.725-32.216c4.343-6.516,4.343-14.479,4.343-14.479c3.981-3.62,7.963-12.669,7.963-12.669
		l-6.877,3.619c6.153-25.7-9.049-35.112-9.049-35.112c-1.448-5.43-8.31-9.984-8.31-9.984c-12.671-13.968-24.616,4.193-24.616,4.193
		c-7.963-1.086-15.5,10.135-15.5,10.135s-29.171-5.63-39.211,2.663c0,0-8.729-6.983-20.951,14.842c0,0-3.492,16.586-3.492,18.77
		l-10.933,13.967v66.784l13.987-14.488c0,0-1.31,33.694,0,38.933l-13.36,25.596h-9.496v12.077h8.314v18.494h113.387v-18.494h6.299
		v-12.077h-43.224l28.436-12.501l21.207-3.196c6.303-3.05,22.981-9.29,22.981-9.29c3.802-1.81,7.783-5.972,7.783-5.972
		c7.421-2.716,12.307,2.896,12.307,2.896c1.087,3.62,3.258,5.067,3.258,5.067c4.162-9.956-3.258-12.488-3.258-12.488
		c-2.172-2.172-11.221-2.533-11.221-2.533l0.181-1.812c3.981-3.076,17.013,1.268,17.013,1.268c-0.361,2.715,0.725,9.773,0.725,9.773
		l1.811-1.991c4.343-9.772-3.982-13.574-3.982-13.574c-5.249-3.98-14.117-3.8-14.117-3.8l0.905-1.269
		c4.523-2.171,7.782,1.088,7.782,1.088c2.172,0.361,7.239,0.27,7.239,0.27c0.271,2.173,5.158,6.517,5.158,6.517
		C1574.426,647.214,1568.182,645.856,1568.182,645.856z"/>
	<path fill="none" stroke="#000000" stroke-miterlimit="10" d="M1795.909,644.499c-1.503-3.53-7.767-3.53-7.767-3.53l-3.257-2.985
		c-6.515-5.701-11.273,0-11.273,0l-7.016,5.7c-4.258-1.9-8.769,2.173-8.769,2.173s0,0-0.752,0.271s-3.758,4.071-3.758,4.071
		c-4.008,1.9-15.282,14.39-15.282,14.39l0.252-3.62c-0.335-10.136,8.351-35.112,8.351-35.112l4.008-8.688
		c7.685-15.927,0.67-32.217,0.67-32.217c4.007-6.516,4.007-14.479,4.007-14.479c3.675-3.619,7.349-12.669,7.349-12.669l-6.347,3.619
		c5.679-25.7-8.35-35.112-8.35-35.112c-1.337-5.43-7.669-9.984-7.669-9.984c-11.693-13.967-22.717,4.193-22.717,4.193
		c-7.348-1.086-14.304,10.135-14.304,10.135s-26.92-5.63-36.185,2.664c0,0-8.057-6.984-19.334,14.84c0,0-3.223,16.587-3.223,18.77
		l-10.089,13.969c0,0-16.325,20.146-16.94,26.813s-12.35,24.666-12.35,28c0,2.538,0,56.414,0,82.01h-7.666v12.077h7.666
		c0,0.779,0,1.209,0,1.209h0.007v17.285h104.637v-18.494h5.812v-12.077h-13.975l-0.77-6.343l5.149-13.063l24.719-13.095l19.57-3.196
		c5.816-3.05,21.208-9.29,21.208-9.29c3.508-1.81,7.182-5.972,7.182-5.972c6.849-2.716,11.357,2.896,11.357,2.896
		c1.003,3.62,3.007,5.067,3.007,5.067c3.841-9.956-3.007-12.488-3.007-12.488c-2.004-2.172-10.354-2.533-10.354-2.533l0.167-1.812
		c3.674-3.076,15.699,1.268,15.699,1.268c-0.333,2.715,0.669,9.773,0.669,9.773l1.67-1.991c4.009-9.772-3.674-13.574-3.674-13.574
		c-4.844-3.98-13.028-3.8-13.028-3.8l0.835-1.269c4.176-2.171,7.182,1.088,7.182,1.088c2.006,0.361,6.681,0.27,6.681,0.27
		c0.251,2.173,4.761,6.517,4.761,6.517C1801.672,645.856,1795.909,644.499,1795.909,644.499z M1631.665,717.721v-52.676
		l4.728-19.538l10.971-12.314c0,0-1.208,33.694,0,38.933l-7.078,26.189v19.406H1631.665z"/>
	<g>
		<path fill="none" stroke="#000000" stroke-miterlimit="10" d="M1995.063,618.004c2.641-2.338,4.527-9.958,4.527-9.958
			c0-1.207-1.358-6.187-1.358-6.187l-0.83-4.525c-1.434-2.641-7.996-6.715-7.996-6.715c-0.378-1.886-6.865-8.751-6.865-8.751
			l-2.489-0.378l-1.962-1.584c-0.906-0.604-2.941,1.359-2.941,1.359c-3.019-0.151-16.341,4.073-16.341,4.073
			c-1.252,0.452-23.341,9.808-23.341,9.808l-0.151-0.604c1.661-1.962,2.866-8.602,2.866-9.355s0.755-7.694,0.755-7.694
			c1.056-4.677-2.866-10.26-2.717-11.015c0.151-0.754,2.415-9.053,2.415-9.053l-1.658-1.056c1.507-3.319-0.152-8.902-0.152-8.902
			c1.659-0.905,10.713-9.656,10.713-9.656l2.112,6.036l3.621-0.906l1.207-9.354c2.112-2.716,0.754-4.677,0.754-4.677
			c0.603-0.906,0.603-5.733,0.603-5.733c0.907-0.604,4.015-3.169,4.015-3.169l-0.092-3.621c0.454-2.112-0.949-4.979-0.949-4.979
			l-0.861-7.846c-0.753-4.98-4.224-9.053-4.224-9.053l-7.544-7.997c-8.148-7.242-16.144-5.13-16.144-5.13
			c-1.509,0.15-8.449,5.733-8.449,5.733l-2.716-2.112l-6.639,3.923l-4.677,6.186c-2.717-1.659-6.338-0.905-6.338-0.905
			c-2.413,0.453-7.693-0.754-7.693-0.754c-4.981-1.509-11.62,0-11.62,0l-4.374,2.938l-5.582,0.381
			c-15.541-2.564-28.817,8.602-28.817,8.602s1.508-0.906,0,0.603c-1.506,1.509-1.51,9.656-1.51,9.656l1.51,2.491
			c-1.697,1.697-16.294,37.002-16.294,37.002c-2.716,3.395-9.845,16.293-9.845,16.293l-2.716,10.523
			c-2.716,10.523,3.395,26.139,3.395,26.139c0.34,4.074,17.313,47.864,17.313,47.864c-2.716,3.733-5.771,15.275-5.771,15.275
			c-11.202,15.276-12.899,40.396-12.899,40.396c5.093-14.938,21.726-34.502,21.726-34.502c-5.092,6.572-11.541,43.327-11.541,43.327
			s0.343,0.883,0.75,1.921h-13.667v12.077h8.314v18.494h113.387v-18.494h6.299v-12.077h-29.271l-4.019-39.939l1.377-16.968
			l2.263-10.562c6.79-7.694,5.884-23.386,5.884-23.386l4.828-5.432c6.186-1.811,34.023-13.277,34.023-13.277
			c4.979-0.68,11.467-4.225,11.467-4.225c1.81-1.207,4.452-0.302,4.452-0.302c2.036,4.45,5.355,3.923,5.355,3.923
			c1.131,2.263,5.809,4.526,5.809,4.526c0.527,0.679,2.641,3.018,2.641,3.018c0,0.829,0.905,4.375,0.905,4.375
			c-0.076,0.604-0.981,3.848-0.981,3.848h1.283c4.3-6.639,2.489-6.337,1.886-8.374c-0.032-0.111-0.077-0.234-0.132-0.367
			c-0.938-2.312-4.847-7.705-4.847-7.705l-4.602-8.072c0.979,1.359,5.732,3.019,5.732,3.019c1.206,1.584,3.621,4.149,3.621,4.149
			l0.227,4.902c0.527,4.074,5.28,9.506,5.28,9.506l0.151-0.905c-0.754-2.64-1.585-11.618-1.585-11.618
			c0.302-2.715-0.377-9.505-0.377-9.505c-1.811-0.683-7.317-6.412-7.317-6.412c-2.187-1.659-3.695-3.546-3.695-3.546
			c0.526-0.227,3.545,1.358,3.545,1.358c0.452,0.98,6.941,5.959,6.941,5.959c0.903,0.98,4.525,6.714,4.525,6.714
			c-1.058,1.66-2.49,9.279-2.49,9.279L1995.063,618.004z M1828.947,722.362c0.607-2.897,1.622-6.673,1.622-6.673
			c1.019-5.771,11.882-26.817,11.882-26.817s-3.055,10.185-4.413,13.919c-1.359,3.732,4.073,19.009,3.734,17.65
			c-0.34-1.358,1.019-14.597,1.019-16.973s10.862-15.616,10.862-15.616l-1.019,14.938l-1.204,19.571H1828.947z"/>
		<polygon fill="none" stroke="#000000" stroke-miterlimit="10" points="1847.334,560 1834.667,585.333 1841,612.667 		"/>
	</g>
	<path fill="none" stroke="#000000" stroke-miterlimit="10" d="M2165.33,578.639c-1.252,0.451-23.341,9.807-23.341,9.807
		l-0.151-0.604c1.661-1.961,2.866-8.602,2.866-9.355s0.755-7.693,0.755-7.693c1.056-4.678-2.866-10.26-2.717-11.016
		c0.151-0.754,2.415-9.053,2.415-9.053l-1.658-1.055c1.507-3.32-0.152-8.902-0.152-8.902c1.659-0.906,10.713-9.656,10.713-9.656
		l2.112,6.035l3.621-0.906l1.207-9.354c2.112-2.717,0.754-4.678,0.754-4.678c0.603-0.906,0.603-5.732,0.603-5.732
		c0.907-0.605,4.015-3.17,4.015-3.17l-0.092-3.621c0.454-2.111-0.949-4.979-0.949-4.979l-0.861-7.846
		c-0.753-4.98-4.224-9.053-4.224-9.053l-7.544-7.996c-8.148-7.242-16.144-5.131-16.144-5.131c-1.509,0.15-8.449,5.734-8.449,5.734
		l-2.716-2.113l-6.639,3.924l-4.677,6.186c-2.717-1.66-6.338-0.906-6.338-0.906c-2.413,0.453-7.693-0.754-7.693-0.754
		c-4.981-1.508-11.62,0-11.62,0l-4.374,2.938l-5.582,0.381c-15.541-2.564-28.817,8.602-28.817,8.602s1.508-0.906,0,0.604
		c-1.506,1.508-1.51,9.656-1.51,9.656l1.51,2.49c-1.697,1.697-16.294,37.002-16.294,37.002c-2.716,3.395-9.845,16.293-9.845,16.293
		l-2.716,10.523c-2.716,10.523,3.395,26.139,3.395,26.139c0.34,4.074,17.313,47.865,17.313,47.865
		c-2.716,3.732-5.771,15.275-5.771,15.275c-11.202,15.275-12.899,40.396-12.899,40.396c5.093-14.938,21.726-34.502,21.726-34.502
		c-5.092,6.572-11.541,43.326-11.541,43.326s2.376,6.111,2.037,5.092c-0.34-1.018,2.035-9.844,2.035-9.844
		c1.019-5.771,11.882-26.816,11.882-26.816s-3.055,10.184-4.413,13.918c-1.359,3.732,4.073,19.01,3.734,17.65
		c-0.34-1.357,1.019-14.596,1.019-16.973c0-2.375,10.862-15.615,10.862-15.615l-1.019,14.938l-11.277,27.273h-22.778v12.077h8.314
		v18.494h113.387v-2.997h0.007V735.44h6.292v-12.077h-16.996c-9.724-16.415-21.293-47.641-21.293-47.641l1.377-16.969l2.263-10.561
		c6.79-7.695,5.884-23.387,5.884-23.387l4.828-5.432c6.186-1.811,34.023-13.277,34.023-13.277c4.979-0.68,11.467-4.225,11.467-4.225
		c1.81-1.207,4.452-0.301,4.452-0.301l2.564-0.041v-26.967C2178.652,574.414,2165.33,578.639,2165.33,578.639z"/>
	<polygon fill="none" stroke="#000000" stroke-miterlimit="10" points="2052,560 2041,582 2046.5,612.667 	"/>
	<path fill="none" stroke="#000000" stroke-miterlimit="10" d="M2341.5,728.571h-11.897c-10.179-13.645-24.705-52.852-24.705-52.852
		l1.377-16.969l2.263-10.561c6.79-7.695,5.884-23.387,5.884-23.387l4.828-5.432c3.303-0.967,12.776-4.686,20.892-7.942v-26.398
		c-4.417,1.865-8.066,3.412-8.066,3.412l-0.151-0.604c1.661-1.963,2.866-8.602,2.866-9.355s0.755-7.695,0.755-7.695
		c1.056-4.676-2.866-10.26-2.717-11.014c0.151-0.754,2.415-9.053,2.415-9.053l-1.658-1.057c1.507-3.318-0.152-8.902-0.152-8.902
		c0.913-0.498,4.06-3.367,6.709-5.85v-57.135c-7.147-4.759-13.498-3.1-13.498-3.1c-1.509,0.15-8.449,5.732-8.449,5.732l-2.716-2.111
		l-6.639,3.922l-4.677,6.186c-2.717-1.658-6.338-0.904-6.338-0.904c-2.413,0.453-7.693-0.754-7.693-0.754
		c-4.981-1.51-11.62,0-11.62,0l-4.374,2.938l-5.582,0.381c-15.541-2.564-28.817,8.602-28.817,8.602s1.508-0.906,0,0.602
		c-1.506,1.51-1.51,9.656-1.51,9.656l1.51,2.492c-1.697,1.697-16.294,37.002-16.294,37.002c-2.716,3.395-9.845,16.293-9.845,16.293
		l-2.716,10.523c-2.716,10.523,3.395,26.138,3.395,26.138c0.34,4.074,17.313,47.865,17.313,47.865
		c-2.716,3.732-5.771,15.275-5.771,15.275c-11.202,15.275-12.899,40.396-12.899,40.396c5.093-14.938,21.726-34.502,21.726-34.502
		c-5.092,6.572-11.541,43.326-11.541,43.326s2.376,6.111,2.037,5.092c-0.34-1.018,2.035-9.844,2.035-9.844
		c1.019-5.771,11.882-26.816,11.882-26.816s-3.055,10.184-4.413,13.918c-1.359,3.732,4.073,19.01,3.734,17.65
		c-0.34-1.357,1.019-14.596,1.019-16.973c0-2.375,10.862-15.615,10.862-15.615l-1.019,14.938l-13.433,32.484h-22.31v12.077h8.314
		v18.494h113.387v-8.208h1.693v-10.286h4.605V728.571z M2242.336,601.528l-5.5-25.001l11-21L2242.336,601.528z"/>
	<path fill="none" stroke="#000000" stroke-miterlimit="10" d="M2480.079,729.81V481.6c-0.248,0.035-0.394,0.064-0.394,0.064
		c-2.413,0.453-7.693-0.754-7.693-0.754c-4.981-1.509-11.62,0-11.62,0l-4.374,2.938l-5.582,0.381
		c-15.541-2.564-28.817,8.602-28.817,8.602s1.508-0.906,0,0.603c-1.506,1.509-1.51,9.656-1.51,9.656l1.51,2.491
		c-1.697,1.697-16.294,37.002-16.294,37.002c-2.716,3.395-9.845,16.293-9.845,16.293l-2.716,10.523
		c-2.716,10.523,3.395,26.139,3.395,26.139c0.34,4.074,17.313,47.865,17.313,47.865c-2.716,3.732-5.771,15.275-5.771,15.275
		c-11.202,15.275-12.899,40.396-12.899,40.396c5.093-14.938,21.726-34.502,21.726-34.502c-5.092,6.572-11.541,43.326-11.541,43.326
		s2.376,6.111,2.037,5.092c-0.34-1.018,2.035-9.844,2.035-9.844c1.019-5.771,11.882-26.816,11.882-26.816
		s-3.055,10.184-4.413,13.918c-1.359,3.732,4.073,19.01,3.734,17.65c-0.34-1.357,1.019-14.596,1.019-16.973
		c0-2.375,10.862-15.615,10.862-15.615l-1.019,14.938l-14.664,35.463h-11.07v4.099H2361.5v12.077h8.314v18.494h113.387v-18.494
		h6.299V729.81H2480.079z M2424.197,595.689l-5.5-25.001l11-21L2424.197,595.689z"/>
	<path fill="none" stroke="#000000" stroke-miterlimit="10" d="M2643.5,733.007h-6v-243.35c-8.55,2.547-14.465,7.515-14.465,7.515
		s1.508-0.906,0,0.604c-1.506,1.508-1.51,9.656-1.51,9.656l1.51,2.49c-1.697,1.697-16.294,37.002-16.294,37.002
		c-2.716,3.395-9.845,16.293-9.845,16.293l-2.716,10.523c-2.716,10.523,3.395,26.139,3.395,26.139
		c0.34,4.074,17.313,47.865,17.313,47.865c-2.716,3.732-5.771,15.275-5.771,15.275c-11.202,15.275-12.899,40.396-12.899,40.396
		c5.093-14.938,21.726-34.502,21.726-34.502c-5.092,6.572-11.541,43.326-11.541,43.326s2.376,6.111,2.037,5.092
		c-0.34-1.018,2.035-9.844,2.035-9.844c1.019-5.771,11.882-26.816,11.882-26.816s-3.055,10.184-4.413,13.918
		c-1.359,3.732,4.073,19.01,3.734,17.65c-0.34-1.357,1.019-14.596,1.019-16.973c0-2.375,10.862-15.615,10.862-15.615l-1.019,14.938
		l-14.664,35.463h-11.07v2.954H2515.5v12.077h8.314v18.494h113.387v-14.141h0.299v-4.354h6V733.007z M2625.634,600.031l-5.5-25
		l11-21L2625.634,600.031z"/>
</g>
</svg>
